<svg width="20" height="20" viewBox="0 0 20 20" fill="none" xmlns="http://www.w3.org/2000/svg">
<g clip-path="url(#clip0_140_1127)">
<path d="M19.5833 9.58319C19.8165 9.58319 20.0001 9.76639 20.0001 9.99999C20.0001 10.2336 19.8169 10.4168 19.5833 10.4168H19.1665V9.58358H19.5833V9.58319Z" fill="#202244"/>
<path d="M10.4167 9.58319H19.1667V10.4164H10.4167V9.58319Z" fill="#202244"/>
<path d="M17.9168 20H10C10.2332 20 10.4168 19.8168 10.4168 19.5832V19.1664H17.9168C18.6086 19.1664 19.1668 18.6082 19.1668 17.9164V10.4164H19.5836C19.8168 10.4164 20.0004 10.2332 20.0004 9.99963V17.9164C20.0004 19.0664 19.0672 19.9996 17.9172 19.9996L17.9168 20Z" fill="#202244"/>
<path d="M19.9999 2.08323V10C19.9999 9.76682 19.8167 9.58323 19.5831 9.58323H19.1663V2.08323C19.1663 1.39143 18.6081 0.833228 17.9163 0.833228H10.4163V0.416431C10.4163 0.183228 10.2331 -0.000366211 9.99951 -0.000366211H17.9163C19.0663 -0.000366211 19.9995 0.932837 19.9995 2.08284L19.9999 2.08323Z" fill="#202244"/>
<path fill-rule="evenodd" clip-rule="evenodd" d="M19.9999 10L19.9995 2.08284C19.9995 1.61422 19.8446 1.1816 19.5831 0.833453C19.583 0.833378 19.5832 0.833528 19.5831 0.833453C19.4646 0.675687 19.324 0.535049 19.1663 0.416503M10.4163 0.416431C10.4163 0.183228 10.2331 -0.000366211 9.99951 -0.000366211H17.9163C18.3852 -0.000366211 18.8181 0.154821 19.1663 0.416503M19.1663 2.91795V2.08323V2.91795ZM19.9999 10C19.9999 9.76682 19.8167 9.58323 19.5831 9.58323H19.1663V2.91795" fill="black"/>
<path d="M16.6667 5C16.9 5 17.0835 5.1832 17.0835 5.4168C17.0835 5.65039 16.9003 5.83359 16.6667 5.83359H13.3335C13.1003 5.83359 12.9167 5.65039 12.9167 5.4168C12.9167 5.1832 13.1 5 13.3335 5H16.6667Z" fill="#202244"/>
<path d="M16.6667 13.3332C16.9 13.3332 17.0835 13.5164 17.0835 13.75C17.0835 13.9836 16.9003 14.1668 16.6667 14.1668H13.3335C13.1003 14.1668 12.9167 13.9836 12.9167 13.75C12.9167 13.5164 13.1 13.3332 13.3335 13.3332H16.6667Z" fill="#202244"/>
<path d="M16.6667 15.8332C16.9 15.8332 17.0835 16.0164 17.0835 16.25C17.0835 16.4836 16.9003 16.6668 16.6667 16.6668H13.3335C13.1003 16.6668 12.9167 16.4836 12.9167 16.25C12.9167 16.0164 13.1 15.8332 13.3335 15.8332H16.6667Z" fill="#202244"/>
<path d="M10.4168 19.1668V19.5836C10.4168 19.8168 10.2336 20.0004 10 20.0004C9.76646 20.0004 9.58325 19.8172 9.58325 19.5836V19.1668H10.4165H10.4168Z" fill="#202244"/>
<path d="M9.58325 10.4168H10.4165V19.1668H9.58325V10.4168Z" fill="#202244"/>
<path d="M9.58325 9.58319H10.4165V10.4164H9.58325V9.58319Z" fill="#202244"/>
<path d="M9.58325 0.833191H10.4165V9.58319H9.58325V0.833191Z" fill="#202244"/>
<path d="M10.4167 0.416797V0.833594H9.5835V0.416797C9.5835 0.183594 9.7667 0 10.0003 0C10.2339 0 10.4171 0.183203 10.4171 0.416797H10.4167Z" fill="#202244"/>
<path d="M0.833252 9.58319H9.58325V10.4164H0.833252V9.58319Z" fill="#202244"/>
<path d="M6.66675 5C6.89995 5 7.08354 5.1832 7.08354 5.4168C7.08354 5.65039 6.90034 5.83359 6.66675 5.83359H5.41675V5.00039H6.66675V5Z" fill="#202244"/>
<path d="M6.5418 15.9582C6.70859 16.1164 6.70859 16.3832 6.5418 16.5414C6.4668 16.6246 6.35859 16.6664 6.25 16.6664C6.14141 16.6664 6.0332 16.6246 5.9582 16.5414L5 15.5832L5.5832 15L6.54141 15.9582H6.5418Z" fill="#202244"/>
<path d="M5.9582 13.4582C6.11641 13.2914 6.3832 13.2914 6.54141 13.4582C6.7082 13.6164 6.7082 13.8832 6.54141 14.0414L5.5832 14.9996L5 14.4164L5.9582 13.4582Z" fill="#202244"/>
<path d="M4.41406 14.9992L4.99727 14.416L5.58047 14.9992L4.99727 15.5824L4.41406 14.9992Z" fill="#202244"/>
<path d="M5.41685 5.83319V7.08319C5.41685 7.31639 5.23364 7.49999 5.00005 7.49999C4.76646 7.49999 4.58325 7.31678 4.58325 7.08319V5.83319H5.41646H5.41685Z" fill="#202244"/>
<path d="M4.58325 5H5.41646V5.8332H4.58325V5Z" fill="#202244"/>
<path d="M5.4167 3.74999V4.99999H4.5835V3.74999C4.5835 3.51678 4.7667 3.33319 5.00029 3.33319C5.23389 3.33319 5.41709 3.51639 5.41709 3.74999H5.4167Z" fill="#202244"/>
<path d="M5 14.4168L4.4168 15L3.45859 14.0418C3.2918 13.8836 3.2918 13.6168 3.45859 13.4586C3.6168 13.2918 3.88359 13.2918 4.0418 13.4586L5 14.4168Z" fill="#202244"/>
<path d="M4.5833 5.00002V5.83323H3.3333C3.1001 5.83323 2.9165 5.65002 2.9165 5.41643C2.9165 5.18284 3.09971 4.99963 3.3333 4.99963H4.5833V5.00002Z" fill="#202244"/>
<path d="M4.0417 16.5418C3.9667 16.625 3.8585 16.6668 3.7499 16.6668C3.64131 16.6668 3.53311 16.625 3.45811 16.5418C3.29131 16.3836 3.29131 16.1168 3.45811 15.9586L4.41631 15.0004L4.99951 15.5836L4.04131 16.5418H4.0417Z" fill="#202244"/>
<path d="M0.833105 9.58322V10.4164H0.416309C0.183105 10.4164 -0.000488281 10.2332 -0.000488281 9.99962C-0.000488281 9.76603 0.182715 9.58282 0.416309 9.58282H0.833105V9.58322Z" fill="#202244"/>
<path d="M-9.76563e-05 2.0832C-9.76563e-05 0.933203 0.933106 0 2.08311 0H9.9999C9.7667 0 9.58311 0.183203 9.58311 0.416797V0.833594H2.08311C1.39131 0.833594 0.833105 1.3918 0.833105 2.08359V9.58359H0.416309C0.183105 9.58359 -0.000488281 9.7668 -0.000488281 10.0004V2.0832H-9.76563e-05Z" fill="#202244"/>
<path d="M0.833203 17.9168C0.833203 18.6086 1.39141 19.1668 2.0832 19.1668H9.5832V19.5836C9.5832 19.8168 9.76641 20.0004 10 20.0004H2.0832C0.933203 20.0004 0 19.0672 0 17.9172V10.0004C0 10.2336 0.183203 10.4172 0.416797 10.4172H0.833594V17.9172L0.833203 17.9168Z" fill="#202244"/>
</g>
<defs>
<clipPath id="clip0_140_1127">
<rect width="20" height="20" fill="white"/>
</clipPath>
</defs>
</svg>
