<svg width="20" height="20" viewBox="0 0 20 20" fill="none" xmlns="http://www.w3.org/2000/svg">
<path fill-rule="evenodd" clip-rule="evenodd" d="M19.7549 18.6058L16.3169 15.2468L16.239 15.1258C16.087 14.9728 15.884 14.8908 15.669 14.8908C15.4579 14.8908 15.2509 14.9728 15.103 15.1258C12.181 17.8048 7.68095 17.9498 4.58295 15.4648C1.48495 12.9768 0.75495 8.63277 2.87595 5.30977C4.99695 1.98777 9.30995 0.71977 12.9539 2.34477C16.5989 3.96977 18.446 7.98377 17.267 11.7268C17.1849 12.0008 17.2509 12.2938 17.4499 12.5008C17.6459 12.7078 17.9429 12.7938 18.2239 12.7308C18.5049 12.6688 18.7319 12.4608 18.8179 12.1918C20.2239 7.75077 18.0989 2.96977 13.818 0.940771C9.53595 -1.08523 4.37995 0.250771 1.68895 4.08577C-1.00305 7.92177 -0.42505 13.1018 3.05195 16.2818C6.52395 19.4578 11.853 19.6758 15.587 16.7938L18.6299 19.7698C18.9429 20.0788 19.45 20.0788 19.767 19.7698C20.079 19.4608 20.079 18.9608 19.767 18.6488L19.7549 18.6058Z" fill="#202244"/>
<path d="M13.9997 7C14.5594 7 15 7.21978 15 7.5C15 7.78022 14.5603 8 13.9997 8H6.00028C5.44061 8 5 7.78022 5 7.5C5 7.21978 5.43967 7 6.00028 7H13.9997Z" fill="#202244"/>
<path d="M13.0997 9C13.6035 9 14 9.21978 14 9.5C14 9.78022 13.6043 10 13.0997 10H5.90025C5.39655 10 5 9.78022 5 9.5C5 9.21978 5.39571 9 5.90025 9H13.0997Z" fill="#202244"/>
<path d="M11.2998 11C11.6916 11 12 11.2198 12 11.5C12 11.7802 11.6922 12 11.2998 12H5.7002C5.30843 12 5 11.7802 5 11.5C5 11.2198 5.30777 11 5.7002 11H11.2998Z" fill="#202244"/>
</svg>
