<svg width="16" height="16" viewBox="0 0 16 16" fill="none" xmlns="http://www.w3.org/2000/svg">
<g clip-path="url(#clip0_0_1)">
<path d="M11.7773 6.85233L8.12383 5.13919C7.72732 4.95376 7.271 4.95328 6.87257 5.13968C6.87257 5.13968 3.22443 6.84989 3.2196 6.85233C2.92681 6.98957 2.92777 7.42175 3.2196 7.55851L4.53984 8.17708V10.5993C4.53984 10.7127 4.58904 10.8208 4.6749 10.8947C5.52724 11.6321 6.50693 12 7.49048 12C8.47402 12 9.45757 11.6326 10.3205 10.8967C10.4069 10.8227 10.457 10.7137 10.457 10.5993V8.17757L11.2288 7.81596V9.02294C11.2288 9.51839 12.0006 9.52958 12.0006 9.02294V7.20566C12.0006 7.06111 11.9075 6.91365 11.7778 6.85281L11.7773 6.85233ZM9.68476 10.4144C8.31291 11.4953 6.66515 11.4968 5.31114 10.4158V8.53869L6.8716 9.27018C7.26569 9.45609 7.72925 9.45561 8.12383 9.27067L9.68428 8.53918V10.4144H9.68476ZM7.79871 8.56449C7.60528 8.65452 7.39159 8.65501 7.19768 8.564L4.29817 7.20517L7.1972 5.84586C7.39111 5.75485 7.6048 5.75534 7.79871 5.84537L10.6982 7.20517L7.79871 8.56449Z" fill="#202244"/>
</g>
<path fill-rule="evenodd" clip-rule="evenodd" d="M8 1.33333C4.318 1.33333 1.33333 4.318 1.33333 8C1.33333 11.682 4.318 14.6667 8 14.6667C11.682 14.6667 14.6667 11.682 14.6667 8C14.6667 4.318 11.682 1.33333 8 1.33333ZM8 16C3.58067 16 0 12.4193 0 8C0 3.58067 3.58067 0 8 0C12.4193 0 16 3.58067 16 8C16 12.4193 12.4193 16 8 16Z" fill="#202244"/>
<defs>
<clipPath id="clip0_0_1">
<rect width="9" height="7" fill="white" transform="translate(3 5)"/>
</clipPath>
</defs>
</svg>
