<svg width="19" height="20" viewBox="0 0 19 20" fill="none" xmlns="http://www.w3.org/2000/svg">
<path fill-rule="evenodd" clip-rule="evenodd" d="M7.922 18.258H3.922C2.625 18.254 1.574 17.207 1.566 15.91V7.95299C1.566 7.51899 1.762 7.10899 2.094 6.83199L2.801 6.30799C3.059 6.03499 3.082 5.61699 2.863 5.31199C2.641 5.00799 2.234 4.90599 1.895 5.06599L1.176 5.60499C0.445 6.16799 0.016 7.03099 0 7.95299V15.918C0.004 18.082 1.758 19.836 3.922 19.84H7.922C8.355 19.84 8.703 19.488 8.703 19.059C8.703 18.625 8.355 18.274 7.922 18.274V18.258Z" fill="#202244"/>
<path fill-rule="evenodd" clip-rule="evenodd" d="M18.7929 7.93419C18.7809 7.02319 18.3629 6.16019 17.6519 5.58619L11.6449 0.797189C10.3239 -0.265811 8.44093 -0.265811 7.12093 0.797189L5.21893 2.18019C4.85893 2.43719 4.77693 2.93419 5.03493 3.29319C5.29293 3.64819 5.78893 3.73019 6.14793 3.47319L8.07793 2.03119C8.83593 1.40619 9.92993 1.40619 10.6879 2.03119L16.6949 6.82019C17.0429 7.09819 17.2459 7.51219 17.2539 7.95319V15.9182C17.2539 17.2152 16.1989 18.2662 14.9059 18.2662H13.1209C12.9379 18.2662 12.7929 18.1172 12.7929 17.9342V14.3442C12.7929 13.1992 11.8669 12.2692 10.7229 12.2662H8.11293C7.56193 12.2662 7.03493 12.4842 6.64493 12.8752C6.25393 13.2662 6.03493 13.7932 6.03493 14.3442V15.7192C6.03493 16.1482 6.38693 16.5002 6.81593 16.5002C7.24993 16.5002 7.60193 16.1482 7.60193 15.7192V14.3442C7.59793 14.2072 7.64793 14.0782 7.74593 13.9802C7.83993 13.8872 7.96893 13.8322 8.10493 13.8322H10.7149C10.9919 13.8322 11.2189 14.0592 11.2189 14.3362V17.9342C11.2229 18.9842 12.0739 19.8322 13.1209 19.8322H14.8589C17.0269 19.8322 18.7809 18.0742 18.7809 15.9102L18.7929 7.93419Z" fill="#202244"/>
</svg>
