<svg width="105" height="104" viewBox="0 0 105 104" fill="none" xmlns="http://www.w3.org/2000/svg">
<path d="M104.253 0.00512695H0.852905V103.39H104.253V0.00512695Z" fill="#9E1B3A"/>
<path fill-rule="evenodd" clip-rule="evenodd" d="M20.945 24.4146V22.1399C20.945 20.1419 20.2371 18.6953 18.6098 17.9583C19.9931 17.2831 20.6391 16.0547 20.6391 14.3316V13.4691C20.6391 10.2101 18.9483 8.4577 15.7179 8.4577C12.4875 8.4577 10.8603 10.2084 10.8603 13.4691V14.3316C10.8603 16.0238 11.4737 17.2831 12.826 17.9583C11.1971 18.6953 10.5218 20.1419 10.5218 22.1399V24.4146C10.5218 27.5826 12.0287 29.7954 15.7179 29.7954C19.4071 29.7954 20.945 27.5826 20.945 24.4146ZM14.1474 13.2561C14.1474 11.9934 14.5804 11.2546 15.7162 11.2546C16.852 11.2546 17.3159 11.9917 17.3159 13.2561V14.6683C17.3159 15.9293 16.8829 16.6698 15.7162 16.6698C14.5495 16.6698 14.1474 15.9293 14.1474 14.6683V13.2561ZM17.4397 24.7822C17.4397 26.045 16.9792 26.9366 15.7179 26.9366C14.4567 26.9366 14.0271 26.045 14.0271 24.7822V21.3995C14.0271 20.1402 14.4876 19.2485 15.7179 19.2485C16.9482 19.2485 17.4397 20.1402 17.4397 21.3995V24.7822Z" fill="white"/>
<path fill-rule="evenodd" clip-rule="evenodd" d="M72.1726 50.8685L61.6635 60.8639C61.2666 61.259 61.0638 61.5511 61.0638 62.3671V90.3827C61.0638 90.7109 61.3319 90.9789 61.6635 90.9789H72.5197C72.8514 90.9789 73.1195 90.7109 73.1195 90.3827V51.121C73.1195 50.7912 72.8583 50.1882 72.1744 50.8685H72.1726Z" fill="white"/>
<path fill-rule="evenodd" clip-rule="evenodd" d="M41.8945 63.8928L31.3853 73.8882C30.9884 74.2833 30.7857 74.5737 30.7857 75.388V90.3828C30.7857 90.7092 31.0554 90.9789 31.3853 90.9789H42.2416C42.5732 90.9789 42.8413 90.7092 42.8413 90.3828V64.1436C42.8413 63.812 42.5801 63.2073 41.8963 63.8928H41.8945Z" fill="white"/>
<path fill-rule="evenodd" clip-rule="evenodd" d="M76.9513 38.748C76.953 38.6672 76.9255 38.5831 76.8602 38.5195C76.8053 38.4662 76.733 38.4405 76.666 38.4353L76.6059 38.4387L76.5217 38.4439L68.4732 40.2581L68.3271 40.2736C68.267 40.2839 68.212 40.3148 68.1691 40.356C68.0488 40.4746 68.0488 40.6687 68.1691 40.7873L68.2601 40.88L70.097 42.7166L51.8624 60.9481L43.441 52.5264C43.3465 52.4302 43.1936 52.4302 43.0973 52.5264L40.812 54.8131L40.8103 54.8148L27.3113 68.3115C27.2185 68.406 27.2185 68.5606 27.3113 68.6551L29.5984 70.9418C29.6911 71.0363 29.8441 71.0363 29.9403 70.9418L43.2726 57.6135L49.3846 63.7244C49.3914 63.7347 49.3932 63.745 49.4035 63.7536L51.6906 66.0351C51.7834 66.1331 51.9363 66.1331 52.0325 66.0351L72.7277 45.3434L74.6573 47.2727C74.7776 47.393 74.9701 47.393 75.0903 47.2727C75.1436 47.2161 75.1711 47.1473 75.1763 47.0752V47.0494L76.9462 38.8339L76.9513 38.7463V38.748Z" fill="white"/>
<path fill-rule="evenodd" clip-rule="evenodd" d="M57.0946 65.6469L52.0084 70.7734C51.9122 70.8542 51.773 70.8507 51.6819 70.7614L47.0751 66.0661C46.2315 65.226 46.0476 65.908 46.0476 66.2361V90.3811C46.0476 90.7092 46.3122 90.9789 46.6456 90.9789H57.5035C57.83 90.9789 58.0998 90.7092 58.0998 90.3811V65.8358C58.0998 65.5043 57.8403 64.8995 57.0946 65.6469Z" fill="white"/>
<path fill-rule="evenodd" clip-rule="evenodd" d="M27.1996 8.01617H30.9747V9.17411H29.8011V16.4653H28.3698V9.17411H27.1996V8.01617Z" fill="white"/>
<path fill-rule="evenodd" clip-rule="evenodd" d="M33.1432 12.5895V16.4653H31.7221V8.01617H33.791C35.224 8.01617 35.7499 8.72743 35.7499 9.91114V10.9952C35.7499 11.9058 35.4251 12.4418 34.6158 12.629L35.9749 16.4671H34.4801L33.1449 12.5912L33.1432 12.5895ZM33.1432 9.17411V11.8044H33.6191C34.1037 11.8044 34.3168 11.5553 34.3168 11.1069V9.8596C34.3168 9.39917 34.1037 9.17411 33.6191 9.17411H33.1432Z" fill="white"/>
<path fill-rule="evenodd" clip-rule="evenodd" d="M36.3719 16.4653L37.9665 8.01617H39.5886L41.1952 16.4653H39.7363L39.4751 14.9209H37.9665L37.7191 16.4653H36.3719ZM38.1521 13.787H39.2861L38.7242 10.3973H38.7122L38.1503 13.787H38.1521Z" fill="white"/>
<path fill-rule="evenodd" clip-rule="evenodd" d="M41.8687 8.01617H43.9255C45.3465 8.01617 45.8191 8.67761 45.8191 9.87334V10.7323C45.8191 11.4436 45.5596 11.892 44.9737 12.0793C45.6833 12.2408 46.0322 12.7149 46.0322 13.4863V14.6082C46.0322 15.8039 45.4978 16.4653 44.0768 16.4653H41.8704V8.01617H41.8687ZM43.2898 11.581H43.7881C44.2486 11.581 44.46 11.344 44.46 10.8956V9.8596C44.46 9.39917 44.2503 9.17411 43.7743 9.17411H43.2898V11.5793V11.581ZM43.2898 12.6651V15.3074H43.9135C44.386 15.3074 44.6111 15.072 44.6111 14.6219V13.3506C44.6111 12.9022 44.3981 12.6651 43.9015 12.6651H43.2898Z" fill="white"/>
<path fill-rule="evenodd" clip-rule="evenodd" d="M46.606 16.4653L48.1989 8.01617H49.821L51.4276 16.4653H49.9688L49.7076 14.9209H48.1989L47.9498 16.4653H46.606ZM48.3879 13.787H49.522L48.9602 10.3973H48.9481L48.3862 13.787H48.3879Z" fill="white"/>
<path fill-rule="evenodd" clip-rule="evenodd" d="M52.1012 8.01617H53.5222V15.3057H55.2182V16.4653H52.1012V8.01617Z" fill="white"/>
<path fill-rule="evenodd" clip-rule="evenodd" d="M58.7458 12.739H57.3746V16.4653H55.9536V8.01617H57.3746V11.5931H58.7458V8.01617H60.1806V16.4653H58.7458V12.739Z" fill="white"/>
<path fill-rule="evenodd" clip-rule="evenodd" d="M61.0758 14.2852V10.1981C61.0758 8.87864 61.7254 7.91827 63.2203 7.91827C64.7152 7.91827 65.3768 8.87864 65.3768 10.1981V14.2852C65.3768 15.5943 64.7272 16.565 63.2203 16.565C61.7133 16.565 61.0758 15.5926 61.0758 14.2852ZM63.9558 14.5086V9.9713C63.9558 9.46105 63.7323 9.10027 63.2203 9.10027C62.7082 9.10027 62.4986 9.46105 62.4986 9.9713V14.5086C62.4986 15.0188 62.7202 15.3813 63.2203 15.3813C63.7203 15.3813 63.9558 15.0188 63.9558 14.5086Z" fill="white"/>
<path fill-rule="evenodd" clip-rule="evenodd" d="M71.9235 10.2839V14.1976C71.9235 15.4947 71.3856 16.4653 69.8649 16.4653H67.6707V8.01617H69.8649C71.3856 8.01617 71.9235 8.97654 71.9235 10.2839ZM69.6897 15.3057C70.2774 15.3057 70.499 14.9569 70.499 14.4467V10.0228C70.499 9.52459 70.2774 9.17583 69.6897 9.17583H69.0917V15.3074H69.6897V15.3057Z" fill="white"/>
<path fill-rule="evenodd" clip-rule="evenodd" d="M72.8188 8.01617H76.209V9.17411H74.238V11.5931H75.6471V12.739H74.238V15.3057H76.209V16.4653H72.8188V8.01617Z" fill="white"/>
<path fill-rule="evenodd" clip-rule="evenodd" d="M77.0716 14.2852V10.1981C77.0716 8.87864 77.6952 7.91827 79.1902 7.91827C80.7607 7.91827 81.1955 8.79102 81.1955 10.0366V11.033H79.9016V9.92491C79.9016 9.40092 79.7281 9.10198 79.216 9.10198C78.7039 9.10198 78.4926 9.46277 78.4926 9.97301V14.5103C78.4926 15.0205 78.7057 15.383 79.216 15.383C79.7263 15.383 79.9016 15.0583 79.9016 14.5601V13.0036H81.1955V14.4605C81.1955 15.6699 80.6988 16.5667 79.1902 16.5667C77.6815 16.5667 77.0716 15.5943 77.0716 14.2869V14.2852Z" fill="white"/>
<path fill-rule="evenodd" clip-rule="evenodd" d="M81.7831 8.01617H85.1733V9.17411H83.2042V11.5931H84.6131V12.739H83.2042V15.3057H85.1733V16.4653H81.7831V8.01617Z" fill="white"/>
<path fill-rule="evenodd" clip-rule="evenodd" d="M86.9432 11.1567V16.4653H85.7472V8.01617H87.1425L88.6752 12.8644V8.01617H89.8591V16.4653H88.6134L86.9432 11.1567Z" fill="white"/>
<path fill-rule="evenodd" clip-rule="evenodd" d="M90.3231 8.01617H94.0982V9.17411H92.9264V16.4653H91.4932V9.17411H90.3231V8.01617Z" fill="white"/>
<path fill-rule="evenodd" clip-rule="evenodd" d="M94.5707 8.01617H97.9626V9.17411H95.9917V11.5931H97.4007V12.739H95.9917V15.3057H97.9626V16.4653H94.5707V8.01617Z" fill="white"/>
<path fill-rule="evenodd" clip-rule="evenodd" d="M26.7116 19.7811H30.1018V20.9408H28.1326V23.358H29.5416V24.5039H28.1326V27.0724H30.1018V28.2303H26.7116V19.7811Z" fill="white"/>
<path fill-rule="evenodd" clip-rule="evenodd" d="M31.8837 26.0501V21.963C31.8837 20.6418 32.5074 19.6832 34.0023 19.6832C35.5728 19.6832 36.0111 20.5559 36.0111 21.8015V22.7979H34.712V21.6881C34.712 21.1658 34.5402 20.8669 34.0264 20.8669C33.5126 20.8669 33.3048 21.2294 33.3048 21.7396V26.2752C33.3048 26.7854 33.5143 27.1479 34.0264 27.1479C34.5385 27.1479 34.712 26.8249 34.712 26.325V24.7668H36.0111V26.2253C36.0111 27.4331 35.5127 28.3316 34.0023 28.3316C32.4919 28.3316 31.8837 27.3592 31.8837 26.0501Z" fill="white"/>
<path fill-rule="evenodd" clip-rule="evenodd" d="M38.0661 24.3562V28.232H36.6451V19.7828H38.7122C40.147 19.7828 40.671 20.4924 40.671 21.6761V22.7601C40.671 23.6707 40.3463 24.205 39.5369 24.394L40.8961 28.232H39.3995L38.0661 24.3562ZM38.0661 20.9408V23.571H38.5387C39.025 23.571 39.2362 23.3219 39.2362 22.8718V21.6263C39.2362 21.1658 39.0267 20.9408 38.5387 20.9408H38.0661Z" fill="white"/>
<path fill-rule="evenodd" clip-rule="evenodd" d="M41.3068 19.7811H44.6953V20.9408H42.7279V23.358H44.1351V24.5039H42.7279V27.0724H44.6953V28.2303H41.3068V19.7811Z" fill="white"/>
<path fill-rule="evenodd" clip-rule="evenodd" d="M45.2451 26.4109V25.277H46.5683V26.4367C46.5683 26.9091 46.7779 27.184 47.2659 27.184C47.7144 27.184 47.9136 26.8851 47.9136 26.4367V26.1137C47.9136 25.6258 47.7161 25.3286 47.2779 24.9162L46.4428 24.0813C45.6335 23.2841 45.2589 22.7979 45.2589 21.8255V21.5386C45.2589 20.4906 45.8706 19.6815 47.2556 19.6815C48.6405 19.6815 49.2385 20.379 49.2385 21.6005V22.2877H47.9412V21.5524C47.9412 21.0662 47.7161 20.8308 47.2676 20.8308C46.8689 20.8308 46.594 21.0541 46.594 21.5283V21.7036C46.594 22.1777 46.8569 22.4509 47.2676 22.8495L48.1766 23.748C48.9498 24.5331 49.3227 25.0073 49.3227 25.9402V26.3508C49.3227 27.5104 48.6989 28.3334 47.2538 28.3334C45.8087 28.3334 45.2451 27.5225 45.2451 26.4143V26.4109Z" fill="white"/>
<path fill-rule="evenodd" clip-rule="evenodd" d="M49.9207 26.0501V21.963C49.9207 20.6418 50.5444 19.6832 52.0394 19.6832C53.6116 19.6832 54.0446 20.5559 54.0446 21.8015V22.7979H52.7508V21.6881C52.7508 21.1658 52.5772 20.8669 52.0651 20.8669C51.5531 20.8669 51.3417 21.2294 51.3417 21.7396V26.2752C51.3417 26.7854 51.5548 27.1479 52.0651 27.1479C52.5755 27.1479 52.7508 26.8249 52.7508 26.325V24.7668H54.0446V26.2253C54.0446 27.4331 53.5463 28.3316 52.0394 28.3316C50.5324 28.3316 49.9207 27.3592 49.9207 26.0501Z" fill="white"/>
<path d="M56.1048 19.7811H54.6838V28.2303H56.1048V19.7811Z" fill="white"/>
<path fill-rule="evenodd" clip-rule="evenodd" d="M60.6892 22.7481H60.6532L59.6927 28.2303H59.0345L57.9744 22.7481H57.9468V28.2303H56.7767V19.7811H58.4349L59.3559 24.5417H59.3679L60.1927 19.7811H61.9883V28.2303H60.6892V22.7481Z" fill="white"/>
<path fill-rule="evenodd" clip-rule="evenodd" d="M62.6584 19.7811H66.0504V20.9408H64.0795V23.358H65.4885V24.5039H64.0795V27.0724H66.0504V28.2303H62.6584V19.7811Z" fill="white"/>
<path fill-rule="evenodd" clip-rule="evenodd" d="M67.858 22.9234V28.2303H66.6621V19.7811H68.0556L69.5918 24.6294V19.7811H70.7757V28.2303H69.5282L67.858 22.9234Z" fill="white"/>
<path fill-rule="evenodd" clip-rule="evenodd" d="M71.2843 19.7811H75.0628V20.9408H73.8909V28.2303H72.4579V20.9408H71.2843V19.7811Z" fill="white"/>
<path fill-rule="evenodd" clip-rule="evenodd" d="M75.5852 26.0501V21.963C75.5852 20.6418 76.2347 19.6832 77.7296 19.6832C79.2245 19.6832 79.8861 20.6435 79.8861 21.963V26.0501C79.8861 27.3575 79.2366 28.3316 77.7296 28.3316C76.2227 28.3316 75.5852 27.3592 75.5852 26.0501ZM78.4651 26.2735V21.7379C78.4651 21.2259 78.2399 20.8652 77.7296 20.8652C77.2193 20.8652 77.0062 21.2277 77.0062 21.7379V26.2735C77.0062 26.7837 77.2313 27.1462 77.7296 27.1462C78.2279 27.1462 78.4651 26.7837 78.4651 26.2735Z" fill="white"/>
<path fill-rule="evenodd" clip-rule="evenodd" d="M26.7116 31.3468H30.1018V32.5065H28.1326V34.9237H29.5416V36.0713H28.1326V38.638H30.1018V39.796H26.7116V31.3468Z" fill="white"/>
<path fill-rule="evenodd" clip-rule="evenodd" d="M30.6757 37.6158V33.5286C30.6757 32.2075 31.2994 31.2471 32.7944 31.2471C34.3649 31.2471 34.7996 32.1199 34.7996 33.3654V34.3602H33.5023V33.252C33.5023 32.7281 33.3287 32.4291 32.8167 32.4291C32.3046 32.4291 32.0933 32.7899 32.0933 33.3019V37.8374C32.0933 38.3477 32.3063 38.7102 32.8167 38.7102C33.327 38.7102 33.5023 38.3855 33.5023 37.8872V36.329H34.7996V37.7876C34.7996 38.9954 34.303 39.8922 32.7944 39.8922C31.2857 39.8922 30.6757 38.9215 30.6757 37.6124V37.6158Z" fill="white"/>
<path fill-rule="evenodd" clip-rule="evenodd" d="M35.3873 37.6158V33.5286C35.3873 32.2075 36.0333 31.2471 37.5283 31.2471C39.0232 31.2471 39.6848 32.2075 39.6848 33.5286V37.6158C39.6848 38.9249 39.0369 39.8956 37.5283 39.8956C36.0196 39.8956 35.3873 38.9249 35.3873 37.6158ZM38.2654 37.8391V33.3036C38.2654 32.7916 38.0404 32.4308 37.53 32.4308C37.0197 32.4308 36.8083 32.7916 36.8083 33.3036V37.8391C36.8083 38.3494 37.03 38.7119 37.53 38.7119C38.03 38.7119 38.2654 38.3494 38.2654 37.8391Z" fill="white"/>
<path fill-rule="evenodd" clip-rule="evenodd" d="M41.5062 34.4873V39.796H40.3085V31.3468H41.7055L43.2399 36.1967V31.3468H44.4239V39.796H43.1781L41.5062 34.4873Z" fill="white"/>
<path fill-rule="evenodd" clip-rule="evenodd" d="M45.0476 37.6158V33.5287C45.0476 32.2075 45.6937 31.2471 47.192 31.2471C48.6904 31.2471 49.3468 32.2075 49.3468 33.5287V37.6158C49.3468 38.9249 48.699 39.8956 47.192 39.8956C45.6851 39.8956 45.0476 38.9249 45.0476 37.6158ZM45.9806 31.0358V30.3503L46.8776 29.6889H47.5013L48.4 30.3503V31.0358L47.204 30.6733L45.9806 31.0358ZM47.9274 37.8391V33.3036C47.9274 32.7916 47.7007 32.4308 47.192 32.4308C46.6834 32.4308 46.4686 32.7916 46.4686 33.3036V37.8391C46.4686 38.3494 46.6937 38.7119 47.192 38.7119C47.6903 38.7119 47.9274 38.3494 47.9274 37.8391Z" fill="white"/>
<path fill-rule="evenodd" clip-rule="evenodd" d="M53.8831 34.3138H53.847L52.8865 39.796H52.2249L51.1648 34.3138H51.1407V39.796H49.9688V31.3468H51.6287L52.5514 36.1074H52.5617L53.3865 31.3468H55.1804V39.796H53.8831V34.3138Z" fill="white"/>
<path d="M57.2252 31.3468H55.8024V39.796H57.2252V31.3468Z" fill="white"/>
<path fill-rule="evenodd" clip-rule="evenodd" d="M57.8609 37.6158V33.5286C57.8609 32.2075 58.4847 31.2471 59.9796 31.2471C61.5501 31.2471 61.9848 32.1199 61.9848 33.3654V34.3602H60.6875V33.252C60.6875 32.7281 60.5122 32.4291 60.0019 32.4291C59.4916 32.4291 59.2803 32.7899 59.2803 33.3019V37.8374C59.2803 38.3477 59.4898 38.7102 60.0019 38.7102C60.5139 38.7102 60.6875 38.3855 60.6875 37.8872V36.329H61.9848V37.7876C61.9848 38.9954 61.4882 39.8922 59.9796 39.8922C58.4709 39.8922 57.8609 38.9215 57.8609 37.6124V37.6158Z" fill="white"/>
<path fill-rule="evenodd" clip-rule="evenodd" d="M62.5725 37.6158V33.5286C62.5725 32.2075 63.2203 31.2471 64.7152 31.2471C66.2102 31.2471 66.8717 32.2075 66.8717 33.5286V37.6158C66.8717 38.9249 66.2239 39.8956 64.7152 39.8956C63.2066 39.8956 62.5725 38.9249 62.5725 37.6158ZM65.4524 37.8391V33.3036C65.4524 32.7916 65.2256 32.4308 64.7152 32.4308C64.2049 32.4308 63.9935 32.7916 63.9935 33.3036V37.8391C63.9935 38.3494 64.2186 38.7119 64.7152 38.7119C65.2118 38.7119 65.4524 38.3494 65.4524 37.8391Z" fill="white"/>
</svg>
