<svg width="104" height="104" viewBox="0 0 104 104" fill="none" xmlns="http://www.w3.org/2000/svg">
<path d="M103.744 0H0.34375V103.39H103.744V0Z" fill="#EC3824"/>
<path fill-rule="evenodd" clip-rule="evenodd" d="M16.8308 15.2662C15.4476 15.2662 14.4321 15.7576 13.8788 16.7111H13.8462V11.5158H19.8756V8.65704H10.6518V20.4014H13.8479V19.9375C13.8479 18.7074 14.4029 18.0322 15.3857 18.0322C16.4631 18.0322 16.8944 18.771 16.8944 19.9083V24.9489C16.8944 26.0553 16.494 26.825 15.4167 26.825C14.2173 26.825 13.7894 26.0244 13.7894 24.796V22.1829H10.5882V24.5486C10.5882 27.7167 11.8495 29.7456 15.4167 29.7456C18.9838 29.7456 20.3997 27.8696 20.3997 24.9799V19.8757C20.3997 16.5857 18.7072 15.2645 16.8325 15.2645L16.8308 15.2662Z" fill="white"/>
<path fill-rule="evenodd" clip-rule="evenodd" d="M75.6586 39.1226H62.8057C62.7197 39.1226 62.6424 39.1947 62.6424 39.2875V43.5568C62.6424 43.6478 62.718 43.72 62.8057 43.72H67.9228L62.2421 49.4031C59.3794 47.156 55.7795 45.8091 51.8653 45.8091C42.5847 45.8091 35.031 53.358 35.031 62.6387C35.031 71.1824 41.4352 78.252 49.6916 79.3223V84.2427H44.6226C44.5298 84.2427 44.4577 84.3148 44.4577 84.4042V88.9809C44.4577 89.072 44.5298 89.1442 44.6226 89.1442H49.6916V93.9855C49.6916 94.0749 49.7637 94.1487 49.8548 94.1487H54.4289C54.52 94.1487 54.5939 94.0749 54.5939 93.9855V89.1442H59.6629C59.7505 89.1442 59.8261 89.0703 59.8261 88.9809V84.4042C59.8261 84.3148 59.7522 84.2427 59.6629 84.2427H54.5939V79.2415C62.5788 77.9307 68.696 70.9882 68.696 62.637C68.696 59.036 67.555 55.6979 65.6202 52.9577L71.2236 47.357V52.1348C71.2236 52.2258 71.2992 52.298 71.3903 52.298H75.6568C75.7479 52.298 75.8235 52.2258 75.8235 52.1348V39.2858C75.8235 39.1947 75.7479 39.1208 75.6568 39.1208L75.6586 39.1226ZM51.867 75.0256C45.0367 75.0256 39.478 69.4678 39.478 62.6387C39.478 55.8096 45.0367 50.2501 51.867 50.2501C58.6972 50.2501 64.2559 55.8062 64.2559 62.6387C64.2559 69.4712 58.6989 75.0256 51.867 75.0256Z" fill="white"/>
<path fill-rule="evenodd" clip-rule="evenodd" d="M59.4326 57.5533H44.4061C44.3167 57.5533 44.2429 57.6203 44.2429 57.6994V61.3381C44.2429 61.4223 44.315 61.4859 44.4061 61.4859H59.4326C59.5288 61.4859 59.5993 61.4206 59.5993 61.3381V57.6994C59.5993 57.6203 59.5271 57.5533 59.4326 57.5533Z" fill="white"/>
<path fill-rule="evenodd" clip-rule="evenodd" d="M59.4326 64.0474H44.4061C44.3167 64.0474 44.2429 64.1161 44.2429 64.1986V67.8356C44.2429 67.9164 44.315 67.9834 44.4061 67.9834H59.4326C59.5288 67.9834 59.5993 67.9181 59.5993 67.8356V64.1986C59.5993 64.1144 59.5271 64.0474 59.4326 64.0474Z" fill="white"/>
<path fill-rule="evenodd" clip-rule="evenodd" d="M34.1307 23.3186V27.2322C34.1307 28.5276 33.5963 29.5 32.0756 29.5H29.883V21.0508H32.0756C33.5963 21.0508 34.1307 22.0111 34.1307 23.3186ZM31.9003 28.342C32.4862 28.342 32.7097 27.9933 32.7097 27.483V23.0591C32.7097 22.5592 32.4845 22.2122 31.9003 22.2122H31.3023V28.3437H31.9003V28.342Z" fill="white"/>
<path fill-rule="evenodd" clip-rule="evenodd" d="M35.0414 21.0508H38.4316V22.2104H36.4624V24.6277H37.8697V25.7753H36.4624V28.342H38.4316V29.5017H35.0414V21.0508Z" fill="white"/>
<path fill-rule="evenodd" clip-rule="evenodd" d="M42.8442 24.9885H44.8649V29.5H43.8425V28.5791C43.6569 29.2148 43.2566 29.5996 42.485 29.5996C41.2616 29.5996 40.7014 28.629 40.7014 27.3198V23.2327C40.7014 21.9115 41.3372 20.9529 42.8339 20.9529C44.4044 20.9529 44.8666 21.8256 44.8666 23.0712V23.8168H43.5693V22.9578C43.5693 22.4355 43.37 22.1366 42.8596 22.1366C42.3493 22.1366 42.1242 22.4974 42.1242 23.0093V27.5449C42.1242 28.0551 42.3356 28.4159 42.8235 28.4159C43.2823 28.4159 43.5212 28.1548 43.5212 27.6067V26.1103H42.8476V24.9885H42.8442Z" fill="white"/>
<path fill-rule="evenodd" clip-rule="evenodd" d="M45.7739 21.0508H49.1641V22.2104H47.1949V24.6277H48.6022V25.7753H47.1949V28.342H49.1641V29.5016H45.7739V21.0525V21.0508ZM46.3581 20.7398V20.0543L47.2568 19.3946H47.8788L48.7774 20.0543V20.7398L47.5815 20.379L46.3581 20.7398Z" fill="white"/>
<path fill-rule="evenodd" clip-rule="evenodd" d="M51.2209 24.1913V29.5017H50.0249V21.0508H51.4202L52.9529 25.899V21.0508H54.1351V29.5017H52.8911L51.2209 24.1913Z" fill="white"/>
<path fill-rule="evenodd" clip-rule="evenodd" d="M55.0476 21.0508H58.4395V22.2104H56.4685V24.6277H57.8776V25.7753H56.4685V28.342H58.4395V29.5017H55.0476V21.0508Z" fill="white"/>
<path fill-rule="evenodd" clip-rule="evenodd" d="M60.7179 25.6241V29.5H59.2986V21.0508H61.3674C62.8005 21.0508 63.3263 21.7603 63.3263 22.9457V24.0298C63.3263 24.9404 63.0015 25.4764 62.1888 25.6636L63.548 29.5017H62.053L60.7179 25.6258V25.6241ZM60.7179 22.2104V24.8407H61.1922C61.6802 24.8407 61.8898 24.5916 61.8898 24.1432V22.8976C61.8898 22.4372 61.6802 22.2122 61.1922 22.2122H60.7179V22.2104Z" fill="white"/>
<path fill-rule="evenodd" clip-rule="evenodd" d="M64.1837 27.3198V23.2327C64.1837 21.9115 64.8315 20.9529 66.3265 20.9529C67.8214 20.9529 68.4847 21.9132 68.4847 23.2327V27.3198C68.4847 28.629 67.8351 29.5996 66.3265 29.5996C64.8178 29.5996 64.1837 28.629 64.1837 27.3198ZM67.0619 27.5449V23.0093C67.0619 22.4974 66.8402 22.1366 66.3265 22.1366C65.8127 22.1366 65.6048 22.4974 65.6048 23.0093V27.5449C65.6048 28.0551 65.8299 28.4159 66.3265 28.4159C66.823 28.4159 67.0619 28.0551 67.0619 27.5449Z" fill="white"/>
<path d="M31.3023 8.66217H29.8813V17.1131H31.3023V8.66217Z" fill="white"/>
<path fill-rule="evenodd" clip-rule="evenodd" d="M34.3936 12.5999H36.4126V17.1131H35.3885V16.1905C35.2029 16.8262 34.8043 17.2127 34.031 17.2127C32.8093 17.2127 32.2474 16.2403 32.2474 14.9312V10.8441C32.2474 9.52292 32.8832 8.56427 34.3781 8.56427C35.9486 8.56427 36.4108 9.43702 36.4108 10.6826V11.4299H35.1153V10.5709C35.1153 10.0486 34.9159 9.7497 34.4039 9.7497C33.8918 9.7497 33.6684 10.1105 33.6684 10.6207V15.158C33.6684 15.6682 33.8798 16.029 34.3661 16.029C34.8524 16.029 35.0637 15.7679 35.0637 15.2198V13.7235H34.3918V12.6016L34.3936 12.5999Z" fill="white"/>
<path fill-rule="evenodd" clip-rule="evenodd" d="M41.4713 8.66217V15.0549C41.4713 16.364 40.9111 17.211 39.466 17.211C38.0209 17.211 37.3474 16.364 37.3474 15.0549V8.66217H38.7667V15.1923C38.7667 15.6906 38.9677 16.0273 39.466 16.0273C39.9643 16.0273 40.1636 15.6923 40.1636 15.1923V8.66217H41.4713Z" fill="white"/>
<path fill-rule="evenodd" clip-rule="evenodd" d="M42.1843 17.1131L43.7789 8.66217H45.3993L47.0076 17.1131H45.5488L45.2876 15.5669H43.7789L43.5298 17.1131H42.1843ZM43.9662 14.433H45.0986L44.5384 11.0433H44.5246L43.9645 14.433H43.9662Z" fill="white"/>
<path fill-rule="evenodd" clip-rule="evenodd" d="M47.7173 8.66217H49.14V15.9534H50.8343V17.1131H47.7173V8.66217Z" fill="white"/>
<path fill-rule="evenodd" clip-rule="evenodd" d="M55.8569 10.93V14.8436C55.8569 16.139 55.319 17.1114 53.8001 17.1114H51.6058V8.66046H53.8001C55.319 8.66046 55.8569 9.62083 55.8569 10.9282V10.93ZM53.6248 15.9534C54.2125 15.9534 54.4358 15.6047 54.4358 15.0944V10.6705C54.4358 10.1723 54.2107 9.82355 53.6248 9.82355H53.0286V15.9551H53.6248V15.9534Z" fill="white"/>
<path fill-rule="evenodd" clip-rule="evenodd" d="M56.5665 17.1131L58.1645 8.66217H59.7832L61.3932 17.1131H59.9344L59.6715 15.5669H58.1645L57.9137 17.1131H56.5665ZM58.3501 14.433H59.4842L58.9223 11.0433H58.9086L58.3501 14.433Z" fill="white"/>
<path fill-rule="evenodd" clip-rule="evenodd" d="M66.3522 10.93V14.8436C66.3522 16.139 65.8144 17.1114 64.2954 17.1114H62.1012V8.66046H64.2954C65.8144 8.66046 66.3522 9.62083 66.3522 10.9282V10.93ZM64.1202 15.9534C64.7078 15.9534 64.9312 15.6047 64.9312 15.0944V10.6705C64.9312 10.1723 64.7061 9.82355 64.1202 9.82355H63.5239V15.9551H64.1202V15.9534Z" fill="white"/>
<path fill-rule="evenodd" clip-rule="evenodd" d="M67.2887 8.66217H70.6806V9.82183H68.708V12.2391H70.1188V13.385H68.708V15.9534H70.6806V17.1131H67.2887V8.66217Z" fill="white"/>
</svg>
