<svg width="105" height="104" viewBox="0 0 105 104" fill="none" xmlns="http://www.w3.org/2000/svg">
<path d="M104.073 0.00512695H0.672745V103.39H104.073V0.00512695Z" fill="#409C46"/>
<path fill-rule="evenodd" clip-rule="evenodd" d="M15.4278 29.7954C18.964 29.7954 20.5019 27.9194 20.5019 25.0297V21.9544C20.5019 20.0509 19.672 18.8191 17.9193 18.4188C19.3644 17.9584 20.3163 16.7884 20.3163 15.0377V13.2235C20.3163 10.272 18.9022 8.45947 15.6735 8.45947C12.0427 8.45947 10.7832 10.6104 10.7832 13.6839V15.5291H13.981V13.4073C13.981 12.1171 14.3813 11.3784 15.4896 11.3784C16.5979 11.3784 16.9949 12.1171 16.9949 13.2527V15.4982C16.9949 16.6046 16.2577 17.187 15.1219 17.187H13.7971V19.8636H15.2749C16.5052 19.8636 16.9949 20.4477 16.9949 21.5524V24.997C16.9949 26.1034 16.5034 26.8731 15.4278 26.8731C14.2284 26.8731 13.7971 26.0725 13.7971 24.8424V21.8617H10.6011V24.5967C10.6011 27.7648 11.8606 29.7937 15.4278 29.7937V29.7954Z" fill="white"/>
<path fill-rule="evenodd" clip-rule="evenodd" d="M87.1032 64.6195C87.1032 61.7109 85.2354 59.3503 82.4088 59.3503C80.9947 59.3503 79.2901 60.8983 78.3622 61.8518C77.4361 60.8983 75.8449 59.3486 74.429 59.3486C71.6024 59.3486 69.6212 61.7075 69.6212 64.6178C69.6212 66.0729 70.1934 67.3906 71.1213 68.3441L78.3708 75.6044L85.61 68.3527L85.6032 68.3476C86.531 67.3941 87.1049 66.0764 87.1049 64.6212L87.1032 64.6195Z" fill="white"/>
<path fill-rule="evenodd" clip-rule="evenodd" d="M56.2426 87.4553C56.2185 87.4553 56.1944 87.4553 56.1687 87.4553C55.6171 87.421 55.1635 87.0104 55.0707 86.4675L51.3884 65.0267L45.8107 75.3657C45.5667 75.8175 45.0581 76.0615 44.5547 75.9704C44.0478 75.8811 43.6594 75.4774 43.5856 74.9688L41.2177 58.4227L36.8859 68.1518C36.6952 68.5795 36.269 68.8579 35.7999 68.8579H18.9623C18.3042 68.8579 17.7715 68.3236 17.7715 67.6656C17.7715 67.0076 18.3042 66.4767 18.9623 66.4767H35.025L40.7229 53.681C40.9394 53.1965 41.4497 52.9113 41.9755 52.9869C42.4996 53.059 42.9137 53.4696 42.9893 53.9954L45.4293 71.0569L50.9296 60.8622C51.1701 60.4138 51.6667 60.1699 52.1685 60.2523C52.6702 60.3348 53.062 60.7248 53.1496 61.2247L56.5587 81.0815L68.9855 39.8115C69.1281 39.3407 69.5439 39.0057 70.0319 38.9662C70.5216 38.9318 70.9838 39.1947 71.1986 39.6362L77.7368 53.1896C78.022 53.7806 77.7746 54.4919 77.1818 54.7788C76.5889 55.064 75.8776 54.8166 75.5923 54.2238L70.3842 43.4279L57.3818 86.6083C57.2306 87.1134 56.7649 87.4553 56.2426 87.4553Z" fill="white"/>
<path fill-rule="evenodd" clip-rule="evenodd" d="M30.1347 15.2954V14.1615H31.4561V15.3212C31.4561 15.7936 31.6674 16.0685 32.1537 16.0685C32.6022 16.0685 32.8015 15.7696 32.8015 15.3212V14.9982C32.8015 14.5103 32.6022 14.2131 32.1657 13.8008L31.3306 12.9658C30.5196 12.1669 30.1467 11.6807 30.1467 10.7101V10.4231C30.1467 9.37688 30.7585 8.56598 32.1417 8.56598C33.5249 8.56598 34.1246 9.26349 34.1246 10.485V11.1722H32.8273V10.4369C32.8273 9.9507 32.6022 9.71533 32.1537 9.71533C31.7551 9.71533 31.4818 9.94039 31.4818 10.4128V10.5864C31.4818 11.0605 31.743 11.3337 32.1537 11.734L33.0644 12.6325C33.8376 13.4159 34.2122 13.8901 34.2122 14.8247V15.237C34.2122 16.395 33.5885 17.2179 32.1434 17.2179C30.6983 17.2179 30.1364 16.407 30.1364 15.2989L30.1347 15.2954Z" fill="white"/>
<path fill-rule="evenodd" clip-rule="evenodd" d="M34.86 17.1165L36.4546 8.66388H38.075L39.6833 17.1165H38.2262L37.965 15.5703H36.4563L36.2072 17.1165H34.8618H34.86ZM36.6419 14.4364H37.776L37.2141 11.045H37.2004L36.6402 14.4364H36.6419Z" fill="white"/>
<path fill-rule="evenodd" clip-rule="evenodd" d="M44.5203 8.66389V15.0583C44.5203 16.3675 43.9584 17.2144 42.5133 17.2144C41.0683 17.2144 40.3947 16.3675 40.3947 15.0583V8.66389H41.8157V15.1958C41.8157 15.694 42.015 16.0307 42.5133 16.0307C43.0117 16.0307 43.2127 15.694 43.2127 15.1958V8.66389H44.522H44.5203ZM43.6474 8.06602L41.4153 8.35293V7.55577L43.6474 7.0816V8.06602Z" fill="white"/>
<path fill-rule="evenodd" clip-rule="evenodd" d="M49.7062 10.9334V14.847C49.7062 16.1441 49.17 17.1165 47.6494 17.1165H45.4551V8.66388H47.6494C49.17 8.66388 49.7062 9.62425 49.7062 10.9334ZM47.4741 15.9551C48.06 15.9551 48.2851 15.6064 48.2851 15.0961V10.6705C48.2851 10.1723 48.06 9.82354 47.4741 9.82354H46.8761V15.9568H47.4741V15.9551Z" fill="white"/>
<path fill-rule="evenodd" clip-rule="evenodd" d="M50.6409 8.66388H54.0311V9.82354H52.0619V12.2425H53.471V13.3884H52.0619V15.9551H54.0311V17.1165H50.6409V8.66388Z" fill="white"/>
<path fill-rule="evenodd" clip-rule="evenodd" d="M56.3388 8.66388H59.729V9.82354H57.7598V12.2425H59.1671V13.3884H57.7598V15.9551H59.729V17.1165H56.3388V8.66388Z" fill="white"/>
<path fill-rule="evenodd" clip-rule="evenodd" d="M30.2086 20.8669H32.2654C33.6882 20.8669 34.1607 21.5266 34.1607 22.7241V23.5848C34.1607 24.2943 33.8995 24.7444 33.3136 24.93C34.0232 25.0915 34.3738 25.5656 34.3738 26.3387V27.4606C34.3738 28.6563 33.8376 29.3178 32.4166 29.3178H30.2086V20.8669ZM31.6313 24.4318H32.1297C32.5919 24.4318 32.8032 24.1947 32.8032 23.7446V22.7103C32.8032 22.2482 32.5919 22.0231 32.1176 22.0231H31.6313V24.43V24.4318ZM31.6313 25.5158V28.1581H32.2551C32.7293 28.1581 32.9527 27.9228 32.9527 27.4726V26.2013C32.9527 25.7529 32.7397 25.5158 32.2413 25.5158H31.6313Z" fill="white"/>
<path fill-rule="evenodd" clip-rule="evenodd" d="M35.2088 20.8669H38.599V22.0248H36.6299V24.4438H38.0389V25.5897H36.6299V28.1581H38.599V29.3178H35.2088V20.8669Z" fill="white"/>
<path fill-rule="evenodd" clip-rule="evenodd" d="M43.3983 23.8339H43.3605L42.4016 29.3178H41.7418L40.6799 23.8339H40.6558V29.3178H39.484V20.8669H41.1421L42.0649 25.6275H42.0769L42.9 20.8669H44.6956V29.3178H43.3983V23.8339Z" fill="white"/>
<path d="M47.5359 24.8184H45.541V25.9643H47.5359V24.8184Z" fill="white"/>
<path fill-rule="evenodd" clip-rule="evenodd" d="M48.371 20.8669H51.7629V22.0248H49.7938V24.4438H51.2028V25.5897H49.7938V28.1581H51.7629V29.3178H48.371V20.8669Z" fill="white"/>
<path fill-rule="evenodd" clip-rule="evenodd" d="M52.574 27.4984V26.3646H53.8954V27.5242C53.8954 27.9984 54.1084 28.2715 54.593 28.2715C55.0415 28.2715 55.2408 27.9726 55.2408 27.5242V27.2012C55.2408 26.715 55.0415 26.4144 54.605 26.0038L53.7699 25.1688C52.9589 24.3699 52.586 23.8855 52.586 22.9114V22.6244C52.586 21.5782 53.1977 20.7673 54.581 20.7673C55.9642 20.7673 56.5639 21.4648 56.5639 22.6863V23.3718H55.2666V22.6365C55.2666 22.1503 55.0415 21.9132 54.593 21.9132C54.1943 21.9132 53.9211 22.1382 53.9211 22.6124V22.7859C53.9211 23.2618 54.1823 23.535 54.593 23.9336L55.502 24.8321C56.2752 25.6172 56.6498 26.0897 56.6498 27.0243V27.4366C56.6498 28.5962 56.026 29.4192 54.581 29.4192C53.1359 29.4192 52.574 28.61 52.574 27.5002V27.4984Z" fill="white"/>
<path fill-rule="evenodd" clip-rule="evenodd" d="M57.3595 20.8669H61.1363V22.0248H59.9661V29.3178H58.5313V22.0248H57.3595V20.8669Z" fill="white"/>
<path fill-rule="evenodd" clip-rule="evenodd" d="M61.6982 29.3178L63.2927 20.8669H64.9148L66.5231 29.3178H65.0643L64.8031 27.7716H63.2945L63.0453 29.3178H61.6999H61.6982ZM63.48 26.6377H64.6141L64.0539 23.248H64.0419L63.48 26.6377Z" fill="white"/>
<path fill-rule="evenodd" clip-rule="evenodd" d="M68.6538 25.4402V29.3178H67.2328V20.8669H69.3016C70.7364 20.8669 71.2588 21.5764 71.2588 22.7618V23.8459C71.2588 24.7565 70.9357 25.2925 70.1247 25.4797L71.4839 29.3195H69.9872L68.6538 25.4419V25.4402ZM68.6538 22.0248V24.6551H69.1281C69.6144 24.6551 69.8257 24.406 69.8257 23.9576V22.712C69.8257 22.2499 69.6127 22.0248 69.1281 22.0248H68.6538Z" fill="white"/>
</svg>
