<svg width="105" height="104" viewBox="0 0 105 104" fill="none" xmlns="http://www.w3.org/2000/svg">
<path d="M104.237 0.00341797H0.838104V103.39H104.237V0.00341797Z" fill="#DFA428"/>
<path fill-rule="evenodd" clip-rule="evenodd" d="M20.1741 26.6532H14.423V25.6705C14.423 24.0401 15.0089 23.4267 15.9007 22.4715L18.1448 20.1058C19.9576 18.1679 20.3597 16.9378 20.3597 14.847V12.818C20.3597 9.83556 18.9129 8.41992 15.777 8.41992C12.6411 8.41992 11.1342 10.0486 11.1342 12.9709V15.493H14.3319V12.8799C14.3319 11.6206 14.9471 11.2495 15.6859 11.2495C16.3612 11.2495 16.9454 11.5278 16.9454 12.8197V14.5395C16.9454 16.2626 16.7908 16.9395 15.6533 18.137L13.6841 20.2278C11.7802 22.2568 11.0723 23.6106 11.0723 25.6705V29.5119H20.1741V26.6532Z" fill="white"/>
<path fill-rule="evenodd" clip-rule="evenodd" d="M42.0807 87.8539V89.309C42.0807 89.309 42.0756 89.3296 42.0756 89.3399C42.0756 89.3537 42.079 89.3657 42.0807 89.3726C42.0945 89.7334 42.39 90.0203 42.7526 90.0271C42.756 90.0271 42.7612 90.0306 42.7663 90.0306C42.7715 90.0306 42.7766 90.0271 42.7835 90.0271H59.8411C59.8411 90.0271 59.8496 90.0306 59.8548 90.0306C59.86 90.0306 59.8651 90.0271 59.8703 90.0271C60.2431 90.022 60.5404 89.7162 60.5404 89.3451C60.5404 89.3434 60.5438 89.3417 60.5438 89.3399C60.5438 89.3399 60.5404 89.3382 60.5404 89.3348V87.6889C70.1423 84.5415 77.3368 76.7589 78.9176 67.279C78.9228 67.2583 78.9245 67.2394 78.9279 67.2223C78.9348 67.1879 78.9365 67.1587 78.9365 67.1261C78.9365 66.7447 78.6289 66.4371 78.2458 66.4371H23.8856C23.5007 66.4371 23.1914 66.7464 23.1914 67.1261L23.2292 67.4353C24.8908 77.0081 32.283 84.8319 42.0807 87.8504V87.8539Z" fill="white"/>
<path fill-rule="evenodd" clip-rule="evenodd" d="M60.525 43.2406C60.2999 43.5602 55.0487 51.1194 60.6435 57.2321C63.2072 60.0376 62.9856 62.5115 62.2519 64.1866H65.8397C66.5665 61.7178 66.2675 58.6202 63.3533 55.4385C59.2311 50.9339 63.4048 44.8452 63.4684 44.7525C63.9599 44.0584 63.697 43.1616 62.8876 42.7441C62.0732 42.3266 61.0198 42.55 60.525 43.2406Z" fill="white"/>
<path fill-rule="evenodd" clip-rule="evenodd" d="M51.4386 64.1848H55.0281C55.7532 61.716 55.4525 58.6202 52.54 55.4384C48.4161 50.9321 52.5881 44.8469 52.6551 44.7473C53.1431 44.0566 52.8837 43.1615 52.0692 42.7423C51.2599 42.3283 50.2031 42.5482 49.7117 43.2388C49.4866 43.5584 44.2286 51.1176 49.8268 57.232C52.3922 60.0375 52.1689 62.5132 51.4386 64.1848Z" fill="white"/>
<path fill-rule="evenodd" clip-rule="evenodd" d="M38.8933 43.2406C38.6648 43.5602 33.4136 51.1194 39.0084 57.2321C41.5756 60.0393 41.3539 62.515 40.6219 64.1866H44.2097C44.9348 61.7178 44.6341 58.622 41.7199 55.4385C37.5977 50.9339 41.7714 44.8452 41.8367 44.749C42.323 44.0584 42.0636 43.1616 41.2508 42.7441C40.4398 42.3266 39.3847 42.55 38.8916 43.2406H38.8933Z" fill="white"/>
<path fill-rule="evenodd" clip-rule="evenodd" d="M30.3688 6.74829H33.6972V7.90623H31.7898V10.3252H33.2109V11.4711H31.7898V15.1975H30.3688V6.74829Z" fill="white"/>
<path fill-rule="evenodd" clip-rule="evenodd" d="M34.4326 13.0173V8.9302C34.4326 7.60905 35.0804 6.64868 36.5753 6.64868C38.0702 6.64868 38.7317 7.60905 38.7317 8.9302V13.0173C38.7317 14.3248 38.0839 15.2971 36.5753 15.2971C35.0666 15.2971 34.4326 14.3248 34.4326 13.0173ZM37.3124 13.2407V8.70514C37.3124 8.19317 37.0891 7.83239 36.577 7.83239C36.0649 7.83239 35.8553 8.19317 35.8553 8.70514V13.2407C35.8553 13.7509 36.0804 14.1134 36.577 14.1134C37.0736 14.1134 37.3124 13.7509 37.3124 13.2407Z" fill="white"/>
<path fill-rule="evenodd" clip-rule="evenodd" d="M43.5705 9.71358H43.5327L42.5722 15.1975H41.9123L40.8522 9.71358H40.8264V15.1975H39.6562V6.74829H41.3144L42.2354 11.5089H42.2474L43.0705 6.74829H44.8661V15.1975H43.5705V9.71358Z" fill="white"/>
<path fill-rule="evenodd" clip-rule="evenodd" d="M45.7888 6.74829H49.179V7.90623H47.2081V10.3252H48.6189V11.4711H47.2081V14.0378H49.179V15.1975H45.7888V6.74829Z" fill="white"/>
<path fill-rule="evenodd" clip-rule="evenodd" d="M52.8562 14.0378H55.0126V15.1975H51.3733V14.0378L53.6036 7.90623H51.5967V6.74829H55.0986V7.90623L52.8562 14.0378Z" fill="white"/>
<path fill-rule="evenodd" clip-rule="evenodd" d="M55.9594 6.74829H59.3496V7.90623H57.3805V10.3252H58.7895V11.4711H57.3805V14.0378H59.3496V15.1975H55.9594V6.74829Z" fill="white"/>
<path fill-rule="evenodd" clip-rule="evenodd" d="M61.6315 11.3216V15.1975H60.2105V6.74829H62.2793C63.7124 6.74829 64.2365 7.45955 64.2365 8.64326V9.7256C64.2365 10.6361 63.9117 11.1705 63.1007 11.3594L64.4599 15.1975H62.9632L61.6298 11.3216H61.6315ZM61.6315 7.90623V10.5365H62.1058C62.5921 10.5365 62.8034 10.2874 62.8034 9.83899V8.59172C62.8034 8.13129 62.5921 7.90451 62.1058 7.90451H61.6315V7.90623Z" fill="white"/>
<path fill-rule="evenodd" clip-rule="evenodd" d="M65.1094 13.0173V8.9302C65.1094 7.60905 65.7572 6.64868 67.2521 6.64868C68.747 6.64868 69.4086 7.60905 69.4086 8.9302V13.0173C69.4086 14.3248 68.7608 15.2971 67.2521 15.2971C65.7434 15.2971 65.1094 14.3248 65.1094 13.0173ZM67.9893 13.2407V8.70514C67.9893 8.19317 67.7642 7.83239 67.2538 7.83239C66.7435 7.83239 66.5321 8.19317 66.5321 8.70514V13.2407C66.5321 13.7509 66.7555 14.1134 67.2538 14.1134C67.7521 14.1134 67.9893 13.7509 67.9893 13.2407Z" fill="white"/>
<path fill-rule="evenodd" clip-rule="evenodd" d="M30.3447 18.4772H33.7349V19.6351H31.7658V22.0524H33.1731V23.2H31.7658V25.7667H33.7349V26.9263H30.3447V18.4772Z" fill="white"/>
<path fill-rule="evenodd" clip-rule="evenodd" d="M35.8296 26.9263L37.4241 18.4772H39.0462L40.6528 26.9263H39.194L38.9328 25.3801H37.4241L37.175 26.9263H35.8279H35.8296ZM37.6114 24.2463H38.7455L38.1836 20.8549H38.1716L37.6097 24.2463H37.6114Z" fill="white"/>
<path fill-rule="evenodd" clip-rule="evenodd" d="M43.5069 22.4149H45.5259V26.9264H44.5035V26.0055C44.3163 26.6412 43.9176 27.026 43.1444 27.026C41.9227 27.026 41.3625 26.0536 41.3625 24.7462V20.6591C41.3625 19.3379 41.9983 18.3793 43.4932 18.3793C45.0637 18.3793 45.5259 19.252 45.5259 20.4976V21.2449H44.2286V20.3842C44.2286 19.8619 44.0293 19.563 43.519 19.563C43.0086 19.563 42.7835 19.9255 42.7835 20.4357V24.9713C42.7835 25.4815 42.9966 25.844 43.4829 25.844C43.9434 25.844 44.1805 25.5812 44.1805 25.0331V23.5367H43.5069V22.4166V22.4149Z" fill="white"/>
<path fill-rule="evenodd" clip-rule="evenodd" d="M47.8817 23.0505V26.9246H46.4607V18.4755H48.5295C49.9626 18.4755 50.4866 19.185 50.4866 20.3687V21.4528C50.4866 22.3616 50.1636 22.8976 49.3526 23.0866L50.7117 26.9246H49.2151L47.8817 23.0505ZM47.8817 19.6351V22.2654H48.356C48.8422 22.2654 49.0536 22.0163 49.0536 21.5662V20.3206C49.0536 19.8602 48.8422 19.6351 48.356 19.6351H47.8817Z" fill="white"/>
<path d="M52.8064 18.4772H51.3853V26.9263H52.8064V18.4772Z" fill="white"/>
<path fill-rule="evenodd" clip-rule="evenodd" d="M53.7531 24.7445V20.6574C53.7531 19.3362 54.3769 18.3776 55.8718 18.3776C57.4423 18.3776 57.8771 19.2503 57.8771 20.4959V21.4923H56.5815V20.3825C56.5815 19.8602 56.4079 19.5613 55.8959 19.5613C55.3838 19.5613 55.1725 19.9238 55.1725 20.434V24.9696C55.1725 25.4798 55.3855 25.8423 55.8959 25.8423C56.4062 25.8423 56.5815 25.5193 56.5815 25.0194V23.4612H57.8771V24.918C57.8771 26.1275 57.3788 27.0243 55.8718 27.0243C54.3649 27.0243 53.7531 26.0519 53.7531 24.7445Z" fill="white"/>
<path fill-rule="evenodd" clip-rule="evenodd" d="M62.9031 18.4772V24.8699C62.9031 26.1773 62.3429 27.0243 60.8978 27.0243C59.4528 27.0243 58.7792 26.1773 58.7792 24.8699V18.4772H60.2002V25.0056C60.2002 25.5038 60.3995 25.8406 60.8996 25.8406C61.3996 25.8406 61.5972 25.5038 61.5972 25.0056V18.4772H62.9065H62.9031Z" fill="white"/>
<path fill-rule="evenodd" clip-rule="evenodd" d="M63.8258 18.4772H65.2468V25.7667H66.9411V26.9263H63.8258V18.4772Z" fill="white"/>
<path fill-rule="evenodd" clip-rule="evenodd" d="M67.5528 18.4772H71.3296V19.6351H70.1577V26.9263H68.7247V19.6351H67.5528V18.4772Z" fill="white"/>
<path fill-rule="evenodd" clip-rule="evenodd" d="M76.2405 18.4772V24.8699C76.2405 26.1773 75.6787 27.0243 74.2336 27.0243C72.7885 27.0243 72.1132 26.1773 72.1132 24.8699V18.4772H73.5342V25.0056C73.5342 25.5038 73.7335 25.8406 74.2319 25.8406C74.7302 25.8406 74.9295 25.5038 74.9295 25.0056V18.4772H76.2388H76.2405Z" fill="white"/>
<path fill-rule="evenodd" clip-rule="evenodd" d="M78.5963 23.0505V26.9246H77.1753V18.4755H79.2441C80.6772 18.4755 81.1995 19.185 81.1995 20.3687V21.4528C81.1995 22.3616 80.8765 22.8976 80.0672 23.0866L81.4264 26.9246H79.9297L78.5963 23.0505ZM78.5963 19.6351V22.2654H79.0706C79.5568 22.2654 79.7682 22.0163 79.7682 21.5662V20.3206C79.7682 19.8602 79.5568 19.6351 79.0706 19.6351H78.5963Z" fill="white"/>
<path fill-rule="evenodd" clip-rule="evenodd" d="M81.8748 26.9263L83.4711 18.4772H85.0915L86.6981 26.9263H85.241L84.9798 25.3801H83.4711L83.222 26.9263H81.8766H81.8748ZM83.6567 24.2463H84.7908L84.2306 20.8549H84.2169L83.655 24.2463H83.6567Z" fill="white"/>
<path fill-rule="evenodd" clip-rule="evenodd" d="M30.2691 36.6743V35.5387H31.5905V36.6984C31.5905 37.1708 31.8019 37.4457 32.2881 37.4457C32.7366 37.4457 32.9359 37.1468 32.9359 36.6984V36.3754C32.9359 35.8892 32.7366 35.5903 32.3002 35.1797L31.4651 34.3447C30.654 33.5476 30.2812 33.0596 30.2812 32.089V31.8021C30.2812 30.7558 30.8912 29.9449 32.2744 29.9449C33.6576 29.9449 34.2573 30.6441 34.2573 31.8639V32.5494H32.96V31.8141C32.96 31.3279 32.7349 31.0925 32.2864 31.0925C31.8895 31.0925 31.6146 31.3159 31.6146 31.79V31.9653C31.6146 32.436 31.8757 32.7109 32.2864 33.1112L33.1971 34.008C33.9703 34.7931 34.3449 35.2673 34.3449 36.2002V36.6125C34.3449 37.7704 33.7212 38.5933 32.2761 38.5933C30.831 38.5933 30.2691 37.7842 30.2691 36.676V36.6743Z" fill="white"/>
<path fill-rule="evenodd" clip-rule="evenodd" d="M39.3314 30.0411V36.4356C39.3314 37.7447 38.7713 38.59 37.3262 38.59C35.8811 38.59 35.2075 37.743 35.2075 36.4356V30.0411H36.6303V36.5713C36.6303 37.0695 36.8279 37.4062 37.3279 37.4062C37.8279 37.4062 38.0255 37.0695 38.0255 36.5713V30.0411H39.3349H39.3314Z" fill="white"/>
<path fill-rule="evenodd" clip-rule="evenodd" d="M40.1923 36.6743V35.5387H41.5137V36.6984C41.5137 37.1708 41.725 37.4457 42.2113 37.4457C42.6598 37.4457 42.8591 37.1468 42.8591 36.6984V36.3754C42.8591 35.8892 42.6598 35.5903 42.2233 35.1797L41.3882 34.3447C40.5789 33.5476 40.2043 33.0596 40.2043 32.089V31.8021C40.2043 30.7558 40.8143 29.9449 42.1976 29.9449C43.5808 29.9449 44.1805 30.6441 44.1805 31.8639V32.5494H42.8832V31.8141C42.8832 31.3279 42.6581 31.0925 42.2096 31.0925C41.8109 31.0925 41.5377 31.3159 41.5377 31.79V31.9653C41.5377 32.436 41.7989 32.7109 42.2096 33.1112L43.1186 34.008C43.8918 34.7931 44.2664 35.2673 44.2664 36.2002V36.6125C44.2664 37.7704 43.6426 38.5933 42.1976 38.5933C40.7525 38.5933 40.1906 37.7842 40.1906 36.676L40.1923 36.6743Z" fill="white"/>
<path fill-rule="evenodd" clip-rule="evenodd" d="M44.9795 30.0411H48.7546V31.2008H47.5844V38.492H46.1497V31.2008H44.9795V30.0411Z" fill="white"/>
<path fill-rule="evenodd" clip-rule="evenodd" d="M49.5416 30.0411H52.9301V31.2008H50.9609V33.618H52.3699V34.7657H50.9609V37.3324H52.9301V38.492H49.5416V30.0411Z" fill="white"/>
<path fill-rule="evenodd" clip-rule="evenodd" d="M55.0006 33.1834V38.492H53.803V30.0411H55.2L56.7327 34.8911V30.0411H57.9166V38.492H56.6708L55.0006 33.1834Z" fill="white"/>
<path fill-rule="evenodd" clip-rule="evenodd" d="M58.6898 30.0411H62.4666V31.2008H61.2948V38.492H59.8617V31.2008H58.6898V30.0411Z" fill="white"/>
<path fill-rule="evenodd" clip-rule="evenodd" d="M63.0268 38.492L64.6231 30.0411H66.2435L67.8501 38.492H66.3912L66.1301 36.9475H64.6214L64.3722 38.492H63.0251H63.0268ZM66.5923 29.445L64.3602 29.7319V28.933L66.5923 28.4606V29.445ZM64.8104 35.8119H65.9445L65.3826 32.4223H65.3706L64.8087 35.8119H64.8104Z" fill="white"/>
<path fill-rule="evenodd" clip-rule="evenodd" d="M73.1115 30.0411L71.5049 38.492H69.9584L68.3501 30.0411H69.7969L70.7677 35.9373H70.7798L71.7781 30.0411H73.1115Z" fill="white"/>
<path fill-rule="evenodd" clip-rule="evenodd" d="M73.8229 30.0411H77.2131V31.2008H75.2439V33.618H76.6512V34.7657H75.2439V37.3324H77.2131V38.492H73.8229V30.0411Z" fill="white"/>
<path fill-rule="evenodd" clip-rule="evenodd" d="M78.098 30.0411H79.519V37.3324H81.2133V38.492H78.098V30.0411Z" fill="white"/>
</svg>
