<svg width="104" height="104" viewBox="0 0 104 104" fill="none" xmlns="http://www.w3.org/2000/svg">
<path d="M103.417 0.00341797H0.0164795V103.39H103.417V0.00341797Z" fill="#F6C115"/>
<path fill-rule="evenodd" clip-rule="evenodd" d="M10.6236 11.5296H16.0362L11.359 29.5137H14.8368L19.4195 11.8972V8.66907H10.6236V11.5296Z" fill="white"/>
<path fill-rule="evenodd" clip-rule="evenodd" d="M51.7562 50.0937C43.3864 50.0937 36.6042 56.8781 36.6042 65.2465C36.6042 73.615 43.3864 80.4011 51.7562 80.4011C60.1261 80.4011 66.9082 73.6184 66.9082 65.2465C66.9082 56.8747 60.1244 50.0937 51.7562 50.0937ZM50.6342 56.081C50.6342 55.5759 51.1411 55.0209 51.7631 55.0209C52.3852 55.0209 52.8851 55.5759 52.8851 56.081V61.2831C52.8851 61.7865 52.3834 62.3345 51.7631 62.3345C51.1428 62.3345 50.6342 61.7848 50.6342 61.2831V56.081ZM51.7579 73.0102C47.4038 73.0102 43.8744 69.4832 43.8744 65.1297C43.8744 61.5923 46.2061 58.6013 49.4142 57.6031V60.5375C47.7423 61.3913 46.5962 63.1248 46.5962 65.1297C46.5962 67.9799 48.9056 70.2889 51.7562 70.2889C54.6069 70.2889 56.9163 67.9782 56.9163 65.1297C56.9163 63.1179 55.7633 61.381 54.0845 60.5306V57.598C57.3012 58.5927 59.6398 61.5872 59.6398 65.1297C59.6398 69.4832 56.1104 73.0102 51.7562 73.0102H51.7579Z" fill="white"/>
<path fill-rule="evenodd" clip-rule="evenodd" d="M34.3584 65.1143C34.3584 64.4271 33.7519 63.8704 33.1952 63.8704H26.5556C25.9972 63.8704 25.3837 64.4271 25.3837 65.1143C25.3837 65.8015 25.9972 66.3633 26.5556 66.3633H33.1952C33.7519 66.3633 34.3584 65.8032 34.3584 65.1143Z" fill="white"/>
<path fill-rule="evenodd" clip-rule="evenodd" d="M78.1356 65.1143C78.1356 64.4271 77.5273 63.8704 76.9705 63.8704H70.3345C69.7761 63.8704 69.1626 64.4271 69.1626 65.1143C69.1626 65.8015 69.7761 66.3633 70.3345 66.3633H76.9705C77.5273 66.3633 78.1356 65.8032 78.1356 65.1143Z" fill="white"/>
<path fill-rule="evenodd" clip-rule="evenodd" d="M51.7631 47.7194C52.4487 47.7194 53.0054 47.1113 53.0054 46.5564V39.9197C53.0054 39.3596 52.4487 38.7463 51.7631 38.7463C51.0775 38.7463 50.5121 39.3596 50.5121 39.9197V46.5564C50.5121 47.1113 51.0741 47.7194 51.7631 47.7194Z" fill="white"/>
<path fill-rule="evenodd" clip-rule="evenodd" d="M51.7631 91.4857C52.4487 91.4857 53.0054 90.8776 53.0054 90.3209V83.686C53.0054 83.1276 52.4487 82.5143 51.7631 82.5143C51.0775 82.5143 50.5121 83.1276 50.5121 83.686V90.3209C50.5121 90.8776 51.0741 91.4857 51.7631 91.4857Z" fill="white"/>
<path fill-rule="evenodd" clip-rule="evenodd" d="M36.6592 56.4744C37.0012 55.8782 36.7503 55.0914 36.2675 54.8165L30.5077 51.5196C30.0232 51.2413 29.2138 51.42 28.8685 52.0144C28.5265 52.6123 28.7826 53.4026 29.2706 53.6826L35.0286 56.9794C35.5114 57.2543 36.3173 57.0722 36.6592 56.4744Z" fill="white"/>
<path fill-rule="evenodd" clip-rule="evenodd" d="M74.6508 78.2124C74.9927 77.618 74.7385 76.8311 74.2591 76.5545L68.4993 73.2576C68.0148 72.981 67.202 73.158 66.8635 73.7559C66.5198 74.352 66.7758 75.1423 67.2621 75.4206L73.0202 78.7158C73.503 78.9924 74.3106 78.8085 74.6508 78.2107V78.2124Z" fill="white"/>
<path fill-rule="evenodd" clip-rule="evenodd" d="M60.4062 50.0199C61.0007 50.3583 61.7859 50.1075 62.0609 49.6264L65.3583 43.866C65.6349 43.3798 65.458 42.5723 64.8617 42.2287C64.2655 41.8868 63.4716 42.1428 63.195 42.629L59.8992 48.3878C59.6226 48.8705 59.8065 49.6763 60.4062 50.0199Z" fill="white"/>
<path fill-rule="evenodd" clip-rule="evenodd" d="M38.6627 88.0051C39.2573 88.347 40.0426 88.0944 40.3175 87.6116L43.6149 81.8529C43.895 81.3684 43.7146 80.5575 43.1183 80.2156C42.5221 79.8737 41.7282 80.128 41.4515 80.6142L38.1559 86.3712C37.8792 86.8557 38.0631 87.6615 38.6627 88.0033V88.0051Z" fill="white"/>
<path fill-rule="evenodd" clip-rule="evenodd" d="M43.0873 50.0353C43.6819 49.6934 43.864 48.8877 43.584 48.4049L40.2762 42.653C39.9961 42.1668 39.2092 41.9125 38.6112 42.2561C38.0132 42.598 37.8345 43.4107 38.1163 43.8951L41.424 49.6453C41.7024 50.1281 42.4859 50.3772 43.0856 50.0336L43.0873 50.0353Z" fill="white"/>
<path fill-rule="evenodd" clip-rule="evenodd" d="M64.9081 87.9741C65.5044 87.6322 65.6847 86.8265 65.4081 86.3454L62.1003 80.5918C61.822 80.1074 61.0333 79.8531 60.4353 80.195C59.8391 80.5369 59.6587 81.3495 59.9405 81.8357L63.2482 87.5859C63.5231 88.0686 64.3101 88.316 64.9081 87.9724V87.9741Z" fill="white"/>
<path fill-rule="evenodd" clip-rule="evenodd" d="M66.8447 56.4452C67.1866 57.0413 67.9908 57.2217 68.4736 56.9434L74.2265 53.6362C74.7145 53.3562 74.9687 52.5676 74.6251 51.9732C74.2814 51.377 73.4721 51.1966 72.9841 51.4767L67.2313 54.7839C66.7519 55.0605 66.501 55.8507 66.8447 56.4452Z" fill="white"/>
<path fill-rule="evenodd" clip-rule="evenodd" d="M28.8977 78.2639C29.2396 78.8601 30.0438 79.0388 30.5266 78.7605L36.2795 75.4533C36.7641 75.1732 37.0201 74.3864 36.6747 73.792C36.3328 73.1941 35.5217 73.0154 35.0372 73.2937L29.2843 76.6009C28.8015 76.8775 28.554 77.6661 28.8977 78.2639Z" fill="white"/>
<path fill-rule="evenodd" clip-rule="evenodd" d="M29.5455 8.6347H32.934V9.79264H30.9631V12.2099H32.3721V13.3558H30.9631V15.9242H32.934V17.0839H29.5455V8.6347Z" fill="white"/>
<path fill-rule="evenodd" clip-rule="evenodd" d="M34.8155 11.7752V17.0839H33.6196V8.6347H35.0165L36.5493 13.4812V8.6347H37.7332V17.0839H36.484L34.8155 11.7752Z" fill="white"/>
<path fill-rule="evenodd" clip-rule="evenodd" d="M38.4807 8.6347H41.8726V9.79264H39.9016V12.2099H41.3107V13.3558H39.9016V15.9242H41.8726V17.0839H38.4807V8.6347Z" fill="white"/>
<path fill-rule="evenodd" clip-rule="evenodd" d="M44.0015 13.208V17.0839H42.5839V8.6347H44.6528C46.0858 8.6347 46.6082 9.34424 46.6082 10.5297V11.6137C46.6082 12.5243 46.2834 13.0603 45.4741 13.2476L46.8333 17.0856H45.3349L44.0015 13.2098V13.208ZM44.0015 9.79264V12.4229H44.4775C44.9621 12.4229 45.1751 12.1738 45.1751 11.7237V10.4781C45.1751 10.0177 44.9621 9.79264 44.4775 9.79264H44.0015Z" fill="white"/>
<path fill-rule="evenodd" clip-rule="evenodd" d="M49.3369 12.5724H51.3576V17.0839H50.3352V16.1613C50.1496 16.797 49.7492 17.1836 48.976 17.1836C47.7526 17.1836 47.1942 16.2112 47.1942 14.9038V10.8166C47.1942 9.49545 47.8299 8.5368 49.3248 8.5368C50.8954 8.5368 51.3576 9.40784 51.3576 10.6551V11.4007H50.0603V10.5417C50.0603 10.0177 49.8627 9.7188 49.3489 9.7188C48.8351 9.7188 48.6152 10.0796 48.6152 10.5915V15.1288C48.6152 15.6391 48.8248 16.0016 49.3128 16.0016C49.7733 16.0016 50.0104 15.7387 50.0104 15.1907V13.6943H49.3369V12.5724Z" fill="white"/>
<path d="M53.4024 8.6347H51.9814V17.0839H53.4024V8.6347Z" fill="white"/>
<path fill-rule="evenodd" clip-rule="evenodd" d="M53.813 17.0839L55.4076 8.6347H57.0297L58.6363 17.0839H57.1774L56.918 15.5377H55.4093L55.1602 17.0839H53.813ZM55.5966 14.4038H56.7307L56.1688 11.0141H56.1568L55.5949 14.4038H55.5966Z" fill="white"/>
<path fill-rule="evenodd" clip-rule="evenodd" d="M60.1569 8.6347H61.578V15.9242H63.2739V17.0839H60.1569V8.6347Z" fill="white"/>
<path d="M65.1555 8.6347H63.7345V17.0839H65.1555V8.6347Z" fill="white"/>
<path fill-rule="evenodd" clip-rule="evenodd" d="M69.7056 11.6H69.6695L68.7089 17.0839H68.0475L66.9872 11.6H66.9632V17.0839H65.7913V8.6347H67.4512L68.3705 13.3953H68.3842L69.2055 8.6347H71.0012V17.0839H69.7056V11.6Z" fill="white"/>
<path fill-rule="evenodd" clip-rule="evenodd" d="M71.6249 8.6347H73.7315C75.1646 8.6347 75.6904 9.34424 75.6904 10.5297V12.3112C75.6904 13.495 75.1646 14.22 73.7315 14.22H73.0459V17.0856H71.6249V8.63642V8.6347ZM73.0459 9.79264V13.1204H73.5683C74.0546 13.1204 74.266 12.8851 74.266 12.4229V10.4781C74.266 10.0177 74.0563 9.79264 73.5683 9.79264H73.0459Z" fill="white"/>
<path fill-rule="evenodd" clip-rule="evenodd" d="M76.0117 17.0839L77.6098 8.6347H79.2284L80.8384 17.0839H79.3796L79.1167 15.5377H77.6098L77.3589 17.0839H76.0117ZM77.7953 14.4038H78.9294L78.3676 11.0141H78.3538L77.7953 14.4038Z" fill="white"/>
<path fill-rule="evenodd" clip-rule="evenodd" d="M29.5334 21.08H32.9064V22.2345H30.9459V24.638H32.348V25.7804H30.9459V28.3334H32.9064V29.4862H29.5334V21.08Z" fill="white"/>
<path fill-rule="evenodd" clip-rule="evenodd" d="M34.3705 29.4862L35.9564 21.08H37.5682L39.1714 29.4862H37.7194L37.4582 27.9503H35.9564L35.7073 29.4862H34.3705ZM36.1438 26.8198H37.2727L36.7142 23.4474H36.7022L36.1438 26.8198Z" fill="white"/>
<path fill-rule="evenodd" clip-rule="evenodd" d="M39.5649 27.3163V23.2498C39.5649 21.9355 40.1852 20.9803 41.6732 20.9803C43.2352 20.9803 43.6699 21.8496 43.6699 23.0883V24.0796H42.3812V22.9783C42.3812 22.4578 42.2094 22.1588 41.7008 22.1588C41.1921 22.1588 40.979 22.5179 40.979 23.0264V27.5396C40.979 28.0482 41.1921 28.409 41.7008 28.409C42.2094 28.409 42.3812 28.086 42.3812 27.5895V26.0398H43.6699V27.4898C43.6699 28.6924 43.175 29.5858 41.6732 29.5858C40.1714 29.5858 39.5649 28.6186 39.5649 27.3146V27.3163Z" fill="white"/>
<path fill-rule="evenodd" clip-rule="evenodd" d="M44.2524 21.08H47.6272V22.2345H45.6666V24.638H47.0687V25.7804H45.6666V28.3334H47.6272V29.4862H44.2524V21.08Z" fill="white"/>
<path fill-rule="evenodd" clip-rule="evenodd" d="M48.1237 27.6771V26.5484H49.4365V27.7011C49.4365 28.1719 49.6461 28.445 50.1307 28.445C50.5774 28.445 50.7751 28.1478 50.7751 27.7011V27.3782C50.7751 26.8954 50.5775 26.5982 50.1427 26.1876L49.3111 25.3578C48.5035 24.5641 48.134 24.0796 48.134 23.1141V22.8289C48.134 21.7878 48.7406 20.9803 50.1187 20.9803C51.4968 20.9803 52.0896 21.6744 52.0896 22.889V23.571H50.7991V22.8392C50.7991 22.3564 50.5774 22.121 50.1307 22.121C49.732 22.121 49.4589 22.3444 49.4589 22.8151V22.9904C49.4589 23.4611 49.72 23.7343 50.1307 24.1311L51.0362 25.0228C51.806 25.8045 52.1772 26.2752 52.1772 27.2064V27.6135C52.1772 28.768 51.5569 29.5875 50.1187 29.5875C48.6805 29.5875 48.122 28.7801 48.122 27.6771H48.1237Z" fill="white"/>
<path fill-rule="evenodd" clip-rule="evenodd" d="M52.6618 27.6771V26.5484H53.978V27.7011C53.978 28.1719 54.1876 28.445 54.6705 28.445C55.1172 28.445 55.3183 28.1478 55.3183 27.7011V27.3782C55.3183 26.8954 55.1172 26.5982 54.6825 26.1876L53.8543 25.3578C53.0467 24.5641 52.6738 24.0796 52.6738 23.1141V22.8289C52.6738 21.7878 53.2803 20.9803 54.6584 20.9803C56.0365 20.9803 56.6311 21.6744 56.6311 22.889V23.571H55.3424V22.8392C55.3424 22.3564 55.1172 22.121 54.6705 22.121C54.2736 22.121 54.002 22.3444 54.002 22.8151V22.9904C54.002 23.4611 54.2632 23.7343 54.6705 24.1311L55.576 25.0228C56.3441 25.8045 56.717 26.2752 56.717 27.2064V27.6135C56.717 28.768 56.0966 29.5875 54.6584 29.5875C53.2202 29.5875 52.6618 28.7801 52.6618 27.6771Z" fill="white"/>
<path fill-rule="evenodd" clip-rule="evenodd" d="M59.1363 20.4855L56.9146 20.7707V19.977L59.1363 19.5045V20.4838V20.4855ZM57.2754 21.0799H58.6896V29.4862H57.2754V21.0799Z" fill="white"/>
<path fill-rule="evenodd" clip-rule="evenodd" d="M63.8479 21.08L62.2464 29.4862H60.7086L59.1123 21.08H60.5487L61.5161 26.9452H61.5282L62.5196 21.08H63.8479Z" fill="white"/>
<path fill-rule="evenodd" clip-rule="evenodd" d="M64.2431 21.08H67.6179V22.2345H65.6573V24.638H67.0594V25.7804H65.6573V28.3334H67.6179V29.4862H64.2431V21.08Z" fill="white"/>
<path fill-rule="evenodd" clip-rule="evenodd" d="M68.1866 21.08H69.6008V28.3334H71.2881V29.4862H68.1866V21.08Z" fill="white"/>
</svg>
