<svg width="104" height="104" viewBox="0 0 104 104" fill="none" xmlns="http://www.w3.org/2000/svg">
<path d="M103.908 0.00170898H0.509125V103.39H103.908V0.00170898Z" fill="#C22026"/>
<path fill-rule="evenodd" clip-rule="evenodd" d="M16.7075 29.512H20.0273V26.1292H21.4431V23.3941H20.0273V8.66736H16.5821L10.5251 23.98V26.1309H16.7058V29.5137L16.7075 29.512ZM13.6025 23.3959L16.7384 14.8178H16.7711V23.3959H13.6025Z" fill="white"/>
<path fill-rule="evenodd" clip-rule="evenodd" d="M46.3602 55.4385L27.8163 44.7301V79.3669L46.3602 84.9608V55.4385Z" fill="white"/>
<path fill-rule="evenodd" clip-rule="evenodd" d="M48.3999 55.5089V84.9728L67.0657 79.3617V44.7335L48.3999 55.5089Z" fill="white"/>
<path fill-rule="evenodd" clip-rule="evenodd" d="M81.6232 43.8556C81.6232 42.6427 80.6403 41.6617 79.4306 41.6617C78.2209 41.6617 77.2363 42.6427 77.2363 43.8556V46.2213H81.6232V43.8556Z" fill="white"/>
<path fill-rule="evenodd" clip-rule="evenodd" d="M77.7811 78.7519H77.2363L79.4306 86.4193L81.6214 78.7519H81.0768H81.6214V47.9376H81.0768H80.5321H79.9547H78.8618H78.324H77.7811H77.2346V78.7519H77.7811Z" fill="white"/>
<path fill-rule="evenodd" clip-rule="evenodd" d="M71.0487 46.2196L69.0607 44.6476V80.305L48.4548 86.9622H47.5012H47.3139H46.3602L25.8472 81.2327V44.6476L23.8574 46.2196V82.6277L46.2657 88.8297H47.3139H47.5012H48.5493L69.2222 82.2652L71.0487 81.7292V46.2196Z" fill="white"/>
<path fill-rule="evenodd" clip-rule="evenodd" d="M31.6705 30.0755V29.5016C30.5364 29.3006 30.0501 28.4674 30.0501 27.3198V23.2326C30.0501 21.9132 30.6979 20.9528 32.1928 20.9528C33.6878 20.9528 34.351 21.9115 34.351 23.2326V27.3198C34.351 28.2423 34.0263 28.9656 33.3046 29.3144L34.351 29.5137V30.572L31.6705 30.0737V30.0755ZM32.9283 27.6187V23.0076C32.9283 22.4973 32.7049 22.1348 32.1928 22.1348C31.6808 22.1348 31.4694 22.4973 31.4694 23.0076V27.6187C31.4694 28.1169 31.6945 28.4897 32.1928 28.4897C32.6911 28.4897 32.9283 28.1169 32.9283 27.6187Z" fill="white"/>
<path fill-rule="evenodd" clip-rule="evenodd" d="M39.3856 21.0524V27.4451C39.3856 28.7543 38.8238 29.6012 37.3804 29.6012C35.937 29.6012 35.2617 28.7543 35.2617 27.4451V21.0524H36.6827V27.5826C36.6827 28.0825 36.8821 28.4175 37.3804 28.4175C37.8787 28.4175 38.078 28.0825 38.078 27.5826V21.0524H39.3873H39.3856Z" fill="white"/>
<path fill-rule="evenodd" clip-rule="evenodd" d="M40.0592 29.5016L41.6538 21.0524H43.2759L44.8825 29.5016H43.4236L43.1625 27.9554H41.6538L41.4063 29.5016H40.0592ZM41.8428 26.8232H42.9769L42.415 23.4336H42.403L41.8411 26.8232H41.8428Z" fill="white"/>
<path fill-rule="evenodd" clip-rule="evenodd" d="M45.5698 21.0524H46.9908V28.3419H48.6851V29.5016H45.5698V21.0524Z" fill="white"/>
<path d="M50.8553 21.0524H49.4343V29.5016H50.8553V21.0524Z" fill="white"/>
<path fill-rule="evenodd" clip-rule="evenodd" d="M56.0274 23.3202V27.2321C56.0274 28.5292 55.4913 29.5016 53.9706 29.5016H51.7763V21.0524H53.9706C55.4913 21.0524 56.0274 22.0111 56.0274 23.3202ZM53.7953 28.3419C54.3812 28.3419 54.6063 27.9932 54.6063 27.4829V23.0591C54.6063 22.5591 54.3812 22.2121 53.7953 22.2121H53.1973V28.3437H53.7953V28.3419Z" fill="white"/>
<path fill-rule="evenodd" clip-rule="evenodd" d="M56.713 29.5016L58.3093 21.0524H59.9296L61.5363 29.5016H60.0774L59.8162 27.9554H58.3076L58.0584 29.5016H56.7113H56.713ZM58.4949 26.8232H59.6289L59.067 23.4336H59.055L58.4932 26.8232H58.4949Z" fill="white"/>
<path fill-rule="evenodd" clip-rule="evenodd" d="M66.4729 23.3202V27.2321C66.4729 28.5292 65.9368 29.5016 64.4161 29.5016H62.2219V21.0524H64.4161C65.9368 21.0524 66.4729 22.0111 66.4729 23.3202ZM64.2426 28.3419C64.8285 28.3419 65.0519 27.9932 65.0519 27.4829V23.0591C65.0519 22.5591 64.8268 22.2121 64.2426 22.2121H63.6446V28.3437H64.2426V28.3419Z" fill="white"/>
<path fill-rule="evenodd" clip-rule="evenodd" d="M67.3836 21.0524H70.7738V22.2121H68.8047V24.6293H70.2119V25.7752H68.8047V28.3419H70.7738V29.5016H67.3836V21.0524Z" fill="white"/>
<path fill-rule="evenodd" clip-rule="evenodd" d="M30.0501 8.6637H33.442V9.82335H31.4712V12.2389H32.8802V13.3865H31.4712V15.9532H33.442V17.1129H30.0501V8.6637Z" fill="white"/>
<path fill-rule="evenodd" clip-rule="evenodd" d="M38.5523 10.9317V14.8436C38.5523 16.1407 38.0162 17.1131 36.4955 17.1131H34.3012V8.66217H36.4955C38.0162 8.66217 38.5523 9.62082 38.5523 10.9299V10.9317ZM36.3202 15.9534C36.9061 15.9534 37.1312 15.6064 37.1312 15.0944V10.6705C37.1312 10.1723 36.9079 9.82355 36.3202 9.82355H35.7222V15.9534H36.3202Z" fill="white"/>
<path fill-rule="evenodd" clip-rule="evenodd" d="M43.6006 8.66388V15.0566C43.6006 16.3657 43.0405 17.2127 41.5937 17.2127C40.1468 17.2127 39.475 16.3657 39.475 15.0566V8.66388H40.8943V15.1923C40.8943 15.6905 41.0953 16.0273 41.5919 16.0273C42.0885 16.0273 42.2896 15.6905 42.2896 15.1923V8.66388H43.5989H43.6006Z" fill="white"/>
<path fill-rule="evenodd" clip-rule="evenodd" d="M44.5354 14.9312V10.8441C44.5354 9.52292 45.1591 8.56427 46.654 8.56427C48.2246 8.56427 48.6593 9.4353 48.6593 10.6826V11.679H47.3637V10.5692C47.3637 10.0469 47.1885 9.74626 46.6781 9.74626C46.1678 9.74626 45.9547 10.1088 45.9547 10.619V15.1546C45.9547 15.6665 46.1678 16.0273 46.6781 16.0273C47.1885 16.0273 47.3637 15.7043 47.3637 15.2044V13.6461H48.6593V15.1047C48.6593 16.3125 48.161 17.211 46.654 17.211C45.1471 17.211 44.5354 16.2386 44.5354 14.9295V14.9312Z" fill="white"/>
<path fill-rule="evenodd" clip-rule="evenodd" d="M49.0219 17.1131L50.6164 8.66217H52.2368L53.8451 17.1131H52.388L52.1268 15.5669H50.6182L50.369 17.1131H49.0219ZM50.8055 14.433H51.9395L51.3776 11.0416H51.3656L50.8038 14.433H50.8055Z" fill="white"/>
<path fill-rule="evenodd" clip-rule="evenodd" d="M55.7524 17.9738C56.1528 17.9601 56.2147 17.8742 56.2147 17.7728C56.2147 17.6869 56.1391 17.6371 56.0153 17.6371H55.9535V17.1766C54.7438 17.0255 54.2455 16.1166 54.2455 14.9329V10.8458C54.2455 9.52463 54.8675 8.56598 56.3642 8.56598C57.9347 8.56598 58.3711 9.43701 58.3711 10.6843V11.6807H57.0738V10.5709C57.0738 10.0486 56.9003 9.74797 56.3882 9.74797C55.8762 9.74797 55.6665 10.1105 55.6665 10.6207V15.1563C55.6665 15.6682 55.8779 16.029 56.3882 16.029C56.8986 16.029 57.0738 15.706 57.0738 15.2061V13.6479H58.3711V15.1064C58.3711 16.2902 57.8969 17.1629 56.4896 17.2127V17.3244C56.8247 17.3742 57.012 17.4979 57.012 17.7728C57.012 18.1593 56.6494 18.3724 55.7524 18.3724V17.9738Z" fill="white"/>
<path fill-rule="evenodd" clip-rule="evenodd" d="M58.7337 17.1131L60.3283 8.66218H61.9486L63.557 17.1131H62.0981L61.837 15.5669H60.3283L60.0791 17.1131H58.7337ZM59.842 8.32716C59.8678 7.74304 60.0912 7.26715 60.7149 7.26715C61.0757 7.26715 61.3747 7.48018 61.562 7.48018C61.6617 7.48018 61.7373 7.41834 61.7373 7.29292H62.4349C62.4091 7.87876 62.1858 8.35293 61.562 8.35293C61.2012 8.35293 60.9022 8.1399 60.7149 8.1399C60.6152 8.1399 60.5414 8.20175 60.5414 8.32716H59.842ZM60.5139 14.433H61.6479L61.0878 11.0416H61.074L60.5122 14.433H60.5139Z" fill="white"/>
<path fill-rule="evenodd" clip-rule="evenodd" d="M63.9556 14.9312V10.8441C63.9556 9.52292 64.6034 8.56427 66.0983 8.56427C67.5933 8.56427 68.2548 9.52292 68.2548 10.8441V14.9312C68.2548 16.2403 67.607 17.2127 66.0983 17.2127C64.5897 17.2127 63.9556 16.2403 63.9556 14.9312ZM66.8355 15.1563V10.6207C66.8355 10.1105 66.6104 9.74798 66.1001 9.74798C65.5897 9.74798 65.3783 10.1105 65.3783 10.6207V15.1563C65.3783 15.6682 65.6018 16.029 66.1001 16.029C66.5984 16.029 66.8355 15.6682 66.8355 15.1563Z" fill="white"/>
<path fill-rule="evenodd" clip-rule="evenodd" d="M74.2517 10.9317V14.8436C74.2517 16.1407 73.7156 17.1131 72.1949 17.1131H70.0006V8.66217H72.1949C73.7156 8.66217 74.2517 9.62082 74.2517 10.9299V10.9317ZM72.0196 15.9534C72.6055 15.9534 72.8306 15.6064 72.8306 15.0944V10.6705C72.8306 10.1723 72.6055 9.82355 72.0196 9.82355H71.4216V15.9534H72.0196Z" fill="white"/>
<path fill-rule="evenodd" clip-rule="evenodd" d="M74.8754 8.66394H78.2656V9.8236H76.2964V12.2391H77.7054V13.3868H76.2964V15.9535H78.2656V17.1131H74.8754V8.66394Z" fill="white"/>
</svg>
