<svg width="104" height="104" viewBox="0 0 104 104" fill="none" xmlns="http://www.w3.org/2000/svg">
<path d="M103.581 0H0.180115V103.39H103.581V0Z" fill="#00BBE3"/>
<path fill-rule="evenodd" clip-rule="evenodd" d="M15.8235 29.7869C19.5437 29.7869 20.9888 27.7562 20.9888 24.5263V21.4511C20.9888 18.0391 19.6365 16.3177 17.1123 16.3177C15.6363 16.3177 14.7462 16.9946 14.2221 18.0099H14.1912V13.5207C14.1912 12.258 14.5916 11.3681 15.8528 11.3681C17.114 11.3681 17.4817 12.1068 17.4817 13.397V14.7818H20.6795V13.6736C20.6795 10.5984 19.664 8.44745 15.7909 8.44745C11.9179 8.44745 10.7168 10.8149 10.7168 14.0739V24.2205C10.7168 27.4504 12.1309 29.7869 15.8218 29.7869H15.8235ZM14.1929 21.0216C14.2547 19.855 14.7462 19.118 15.8545 19.118C17.0539 19.118 17.5144 19.855 17.5144 21.2088V24.8373C17.5144 26.1584 17.0246 26.9281 15.8235 26.9281C14.6225 26.9281 14.1929 26.1275 14.1929 24.8373V21.0216Z" fill="white"/>
<path fill-rule="evenodd" clip-rule="evenodd" d="M70.9243 41.8061C70.8367 41.7116 70.7181 41.6583 70.5858 41.6583H33.0719C32.9413 41.6583 32.8244 41.7116 32.7351 41.8061C32.6509 41.9109 32.62 42.0414 32.6423 42.1617L38.945 80.274C38.9777 80.4854 39.1615 80.64 39.378 80.64H47.1138L47.6448 86.8489L44.3903 86.8523L51.9628 94.4253L59.5577 86.8369L56.2998 86.8403L56.8308 80.6417H64.7023C64.9188 80.6417 65.0992 80.4871 65.1319 80.2689L71.0274 42.1634C71.0463 42.0329 71.0102 41.9074 70.9294 41.8078L70.9243 41.8061ZM56.4235 72.3197C56.4235 72.3197 54.7207 74.0703 51.9491 73.8796C49.1689 74.0703 47.4695 72.3197 47.4695 72.3197C44.6584 69.5124 45.6618 66.0197 46.6413 64.2141C47.2427 63.0836 51.5608 56.6016 51.9337 56.0484V56.0054C51.9337 56.0054 51.9405 56.014 51.9508 56.026L51.968 56.0054V56.0484C52.3289 56.6016 56.6538 63.0836 57.2569 64.2141C58.2364 66.0197 59.2364 69.5124 56.4253 72.3197H56.4235ZM68.3262 49.8257C67.309 49.3773 66.022 49.5388 64.7831 50.0405C60.1282 51.9269 56.9614 52.6055 52.066 51.073C48.9833 50.1075 46.0966 48.0854 42.6875 49.3172C40.4245 50.1316 38.3144 50.9081 35.7576 50.8858L34.2798 43.3128H69.3898L68.3262 49.8257Z" fill="white"/>
<path fill-rule="evenodd" clip-rule="evenodd" d="M29.8225 21.049H33.2145V22.2069H31.2436V24.6259H32.6526V25.7718H31.2436V28.3402H33.2145V29.4999H29.8225V21.049Z" fill="white"/>
<path fill-rule="evenodd" clip-rule="evenodd" d="M35.1939 27.6806V26.5467H36.5171V27.7063C36.5171 28.1788 36.7301 28.4537 37.2164 28.4537C37.6631 28.4537 37.8642 28.1547 37.8642 27.7063V27.3816C37.8642 26.8954 37.6631 26.5965 37.2284 26.1859L36.3933 25.3509C35.5805 24.5538 35.2094 24.0659 35.2094 23.0952V22.8083C35.2094 21.762 35.8177 20.9511 37.2044 20.9511C38.591 20.9511 39.1855 21.6486 39.1855 22.8701V23.5556H37.8883V22.8186C37.8883 22.3324 37.6631 22.097 37.2164 22.097C36.816 22.097 36.5428 22.3221 36.5428 22.7945V22.9698C36.5428 23.4422 36.8023 23.7171 37.2164 24.1157L38.1236 25.0142C38.8969 25.7993 39.2715 26.2735 39.2715 27.2081V27.6187C39.2715 28.7784 38.6477 29.6013 37.2009 29.6013C35.7541 29.6013 35.1922 28.7904 35.1922 27.6823L35.1939 27.6806Z" fill="white"/>
<path fill-rule="evenodd" clip-rule="evenodd" d="M39.7836 29.4999L41.3781 21.049H42.9968L44.6068 29.4999H43.148L42.8851 27.9537H41.3781L41.1272 29.4999H39.7836ZM41.5654 26.8198H42.6995L42.1376 23.4302H42.1256L41.5637 26.8198H41.5654Z" fill="white"/>
<path fill-rule="evenodd" clip-rule="evenodd" d="M46.3887 24.1895V29.4999H45.1928V21.049H46.5897L48.1224 25.8972V21.049H49.3064V29.4999H48.0606L46.3887 24.1895Z" fill="white"/>
<path fill-rule="evenodd" clip-rule="evenodd" d="M50.1174 21.049H53.5076V22.2069H51.5367V24.6259H52.9457V25.7718H51.5367V28.3402H53.5076V29.4999H50.1174V21.049Z" fill="white"/>
<path fill-rule="evenodd" clip-rule="evenodd" d="M54.03 29.4999L55.6246 21.049H57.2466L58.8532 29.4999H57.3944L57.1315 27.9537H55.6246L55.3771 29.4999H54.03ZM55.8118 26.8198H56.9476L56.384 23.4302H56.372L55.8118 26.8198Z" fill="white"/>
<path fill-rule="evenodd" clip-rule="evenodd" d="M63.3535 24.016H63.3174L62.3586 29.4999H61.697L60.6351 24.016H60.6128V29.4999H59.4392V21.049H61.099L62.0218 25.8096H62.0321L62.8568 21.049H64.6508V29.4999H63.3535V24.016Z" fill="white"/>
<path fill-rule="evenodd" clip-rule="evenodd" d="M65.4618 21.049H68.8503V22.2069H66.8829V24.6259H68.2901V25.7718H66.8829V28.3402H68.8503V29.4999H65.4618V21.049Z" fill="white"/>
<path fill-rule="evenodd" clip-rule="evenodd" d="M70.7972 24.1895V29.4999H69.6012V21.049H70.9948L72.5292 25.8972V21.049H73.7131V29.4999H72.4656L70.7972 24.1895Z" fill="white"/>
<path fill-rule="evenodd" clip-rule="evenodd" d="M74.3626 21.049H78.1377V22.2069H76.9676V29.4999H75.5328V22.2069H74.3626V21.049Z" fill="white"/>
<path fill-rule="evenodd" clip-rule="evenodd" d="M78.7992 27.3181V23.2309C78.7992 21.9098 79.447 20.9494 80.9437 20.9494C82.4403 20.9494 83.0967 21.9098 83.0967 23.2309V27.3181C83.0967 28.6272 82.4489 29.5996 80.9437 29.5996C79.4384 29.5996 78.7992 28.6272 78.7992 27.3181ZM81.6791 27.5414V23.0041C81.6791 22.4939 81.454 22.1314 80.9437 22.1314C80.4333 22.1314 80.2203 22.4939 80.2203 23.0041V27.5414C80.2203 28.0534 80.4454 28.4142 80.9437 28.4142C81.442 28.4142 81.6791 28.0534 81.6791 27.5414Z" fill="white"/>
<path fill-rule="evenodd" clip-rule="evenodd" d="M29.5356 17.0358L31.1302 8.58491H32.7523L34.3589 17.0358H32.9L32.6406 15.4896H31.1302L30.8828 17.0358H29.5356ZM33.1011 7.98705L30.8673 8.27395V7.47508L33.1011 7.00262V7.98705ZM31.3192 14.3557H32.4533L31.8931 10.9661H31.8811L31.3192 14.3557Z" fill="white"/>
<path fill-rule="evenodd" clip-rule="evenodd" d="M37.2164 12.5225H39.2337V17.0358H38.2113V16.1132C38.0257 16.7489 37.6236 17.1354 36.8521 17.1354C35.6287 17.1354 35.0702 16.163 35.0702 14.8556V10.7667C35.0702 9.44559 35.706 8.48694 37.201 8.48694C38.7715 8.48694 39.2337 9.35969 39.2337 10.6052V11.3543H37.9364V10.4936C37.9364 9.9713 37.7388 9.67237 37.2267 9.67237C36.7147 9.67237 36.4913 10.0331 36.4913 10.5434V15.0807C36.4913 15.5926 36.7009 15.9534 37.1889 15.9534C37.6494 15.9534 37.8866 15.6923 37.8866 15.1442V13.6478H37.2147V12.526L37.2164 12.5225Z" fill="white"/>
<path fill-rule="evenodd" clip-rule="evenodd" d="M44.2975 8.5849V14.9793C44.2975 16.2885 43.7356 17.1354 42.2888 17.1354C40.842 17.1354 40.1702 16.2885 40.1702 14.9793V8.5849H41.5912V15.1168C41.5912 15.6167 41.7888 15.9517 42.2888 15.9517C42.7888 15.9517 42.9865 15.6167 42.9865 15.1168V8.5849H44.2975Z" fill="white"/>
<path fill-rule="evenodd" clip-rule="evenodd" d="M44.9934 17.0358L46.5897 8.5849H48.2084L49.8184 17.0358H48.3596L48.0967 15.4896H46.5897L46.3389 17.0358H44.9951H44.9934ZM46.7753 14.3557H47.9094L47.3475 10.9661H47.3355L46.7736 14.3557H46.7753Z" fill="white"/>
<path fill-rule="evenodd" clip-rule="evenodd" d="M51.9474 8.5849H54.054C55.4888 8.5849 56.0129 9.29444 56.0129 10.4781V12.2614C56.0129 13.4452 55.4905 14.1702 54.054 14.1702H53.3684V17.0358H51.9474V8.5849ZM53.3684 9.74456V13.0723H53.8908C54.3788 13.0723 54.5901 12.8353 54.5901 12.3748V10.43C54.5901 9.96962 54.3771 9.74456 53.8908 9.74456H53.3684Z" fill="white"/>
<path fill-rule="evenodd" clip-rule="evenodd" d="M56.8721 14.8556V10.7667C56.8721 9.44559 57.5199 8.48694 59.0165 8.48694C60.5131 8.48694 61.173 9.44559 61.173 10.7667V14.8556C61.173 16.1647 60.5252 17.1354 59.0165 17.1354C57.5078 17.1354 56.8721 16.163 56.8721 14.8556ZM59.7519 15.0772V10.54C59.7519 10.028 59.5268 9.66893 59.0165 9.66893C58.5062 9.66893 58.2931 10.0297 58.2931 10.54V15.0772C58.2931 15.5892 58.5182 15.95 59.0165 15.95C59.5148 15.95 59.7519 15.5892 59.7519 15.0772Z" fill="white"/>
<path fill-rule="evenodd" clip-rule="evenodd" d="M61.9462 8.5849H65.723V9.74456H64.5528V17.0358H63.1163V9.74456H61.9462V8.5849Z" fill="white"/>
<path fill-rule="evenodd" clip-rule="evenodd" d="M66.2832 17.0358L67.8794 8.58491H69.5015L71.1081 17.0358H69.651L69.3881 15.4896H67.8794L67.6303 17.0358H66.2832ZM69.8486 7.98705L67.6166 8.27395V7.47508L69.8486 7.00262V7.98705ZM68.065 14.3557H69.2026L68.6407 10.9661H68.6269L68.065 14.3557Z" fill="white"/>
<path fill-rule="evenodd" clip-rule="evenodd" d="M76.3679 8.5849L74.7595 17.0358H73.2131L71.6065 8.5849H73.0516L74.0258 14.4811H74.0379L75.0362 8.5849H76.3679Z" fill="white"/>
<path fill-rule="evenodd" clip-rule="evenodd" d="M77.0775 8.5849H80.4694V9.74456H78.5003V12.1618H79.9093V13.3094H78.5003V15.8761H80.4694V17.0358H77.0775V8.5849Z" fill="white"/>
<path fill-rule="evenodd" clip-rule="evenodd" d="M81.3406 8.5849H82.7634V15.8761H84.4593V17.0358H81.3406V8.5849Z" fill="white"/>
</svg>
