<svg width="104" height="104" viewBox="0 0 104 104" fill="none" xmlns="http://www.w3.org/2000/svg">
<path d="M103.402 0.00323486H0.00326538V103.39H103.402V0.00323486Z" fill="#E41E2D"/>
<path fill-rule="evenodd" clip-rule="evenodd" d="M14.4406 13.6014H14.4715V29.5583H17.9751V8.71368H15.1778L11.9491 12.495V16.1527H11.98L14.4406 13.6014Z" fill="white"/>
<path fill-rule="evenodd" clip-rule="evenodd" d="M79.6363 49.3292C79.6363 47.7469 80.9199 46.4653 82.5025 46.4653C84.085 46.4653 85.36 47.7469 85.36 49.3292C85.36 50.9115 84.0816 52.1914 82.5025 52.1914C80.9233 52.1914 79.6363 50.9098 79.6363 49.3292Z" fill="white"/>
<path fill-rule="evenodd" clip-rule="evenodd" d="M85.8411 53.2943C87.7845 53.4696 89.3069 55.1034 89.3069 57.0963V65.0301C89.3069 65.6382 88.8086 66.1382 88.1969 66.1382C87.5852 66.1382 87.0886 65.6382 87.0886 65.0301V58.2147C87.0886 57.9605 87.0113 57.6134 86.5456 57.6134C86.2226 57.6134 86.1556 57.9553 86.1435 58.1752V78.5989C86.1435 79.4768 85.4322 80.1932 84.5507 80.1932C83.6692 80.1932 82.9526 79.4768 82.9526 78.5989V66.8288C82.9492 66.7 82.9045 66.3615 82.5007 66.3615H82.499C82.0918 66.3615 82.0419 66.7 82.0385 66.8288V78.5989C82.0385 79.4768 81.3289 80.1932 80.4457 80.1932C79.5624 80.1932 78.8511 79.4768 78.8511 78.5989V58.1752C78.8425 57.9553 78.772 57.6134 78.4507 57.6134C77.9799 57.6134 77.9077 57.9605 77.9077 58.2147V65.0301C77.9077 65.6382 77.4111 66.1382 76.7977 66.1382C76.1843 66.1382 75.6894 65.6382 75.6894 65.0301V57.0963C75.6894 55.1034 77.2118 53.4713 79.1586 53.2943C79.2222 53.2858 79.2909 53.2772 79.3683 53.2772H85.6246C85.7088 53.2772 85.7758 53.2858 85.8428 53.2943H85.8411Z" fill="white"/>
<path fill-rule="evenodd" clip-rule="evenodd" d="M62.6131 50.8325C62.6131 49.3361 61.4017 48.1198 59.9051 48.1198C58.4084 48.1198 57.1936 49.3344 57.1936 50.8325C57.1936 52.3306 58.4067 53.5435 59.9051 53.5435C61.4034 53.5435 62.6131 52.3289 62.6131 50.8325Z" fill="white"/>
<path fill-rule="evenodd" clip-rule="evenodd" d="M54.4426 56.9726L52.1899 64.3068C52.1899 64.3068 51.7895 65.652 52.9288 65.987C54.0646 66.3255 54.4082 65.0112 54.4082 65.0112L56.2262 58.8899C56.2262 58.8899 56.3259 58.4175 56.6798 58.5206C57.0338 58.6219 56.9015 59.1253 56.9015 59.1253L53.7381 70.5965H56.6798V78.8137C56.6798 79.592 57.3122 80.2242 58.0923 80.2242C58.8724 80.2242 59.503 79.592 59.503 78.8137V70.5965H60.3054V78.8137C60.3054 79.592 60.9361 80.2242 61.7162 80.2242C62.4963 80.2242 63.1303 79.592 63.1303 78.8137V70.5965H66.0703L62.9104 59.1253C62.9104 59.1253 62.7781 58.6219 63.132 58.5206C63.486 58.4175 63.5857 58.8899 63.5857 58.8899L65.4002 65.0112C65.4002 65.0112 65.7456 66.3255 66.8814 65.987C68.024 65.652 67.6185 64.3068 67.6185 64.3068L65.3658 56.9726C65.3658 56.9726 64.5617 54.8526 62.7781 54.8526H57.0338C55.2519 54.8526 54.4443 56.9726 54.4443 56.9726H54.4426Z" fill="white"/>
<path fill-rule="evenodd" clip-rule="evenodd" d="M46.3786 50.8325C46.3786 49.3361 45.1672 48.1198 43.6689 48.1198C42.1705 48.1198 40.9574 49.3344 40.9574 50.8325C40.9574 52.3306 42.1705 53.5435 43.6689 53.5435C45.1672 53.5435 46.3786 52.3289 46.3786 50.8325Z" fill="white"/>
<path fill-rule="evenodd" clip-rule="evenodd" d="M38.2064 56.9726L35.9537 64.3068C35.9537 64.3068 35.5516 65.652 36.6926 65.987C37.8266 66.3255 38.1703 65.0112 38.1703 65.0112L39.9883 58.8899C39.9883 58.8899 40.0879 58.4175 40.4402 58.5206C40.7942 58.6219 40.6618 59.1253 40.6618 59.1253L37.5019 70.5965H40.4419V78.8137C40.4419 79.592 41.0777 80.2242 41.8561 80.2242C42.6345 80.2242 43.2668 79.592 43.2668 78.8137V70.5965H44.0692V78.8137C44.0692 79.592 44.6981 80.2242 45.48 80.2242C46.2618 80.2242 46.8941 79.592 46.8941 78.8137V70.5965H49.8358L46.6759 59.1253C46.6759 59.1253 46.5401 58.6219 46.8941 58.5206C47.2481 58.4175 47.3477 58.8899 47.3477 58.8899L49.1623 65.0112C49.1623 65.0112 49.5077 66.3255 50.6417 65.987C51.7844 65.652 51.3806 64.3068 51.3806 64.3068L49.1279 56.9726C49.1279 56.9726 48.3237 54.8526 46.5401 54.8526H40.7959C39.014 54.8526 38.2064 56.9726 38.2064 56.9726Z" fill="white"/>
<path fill-rule="evenodd" clip-rule="evenodd" d="M71.7167 66.0008C72.9642 66.0008 73.9728 64.9889 73.9728 63.7416C73.9728 62.4944 72.9659 61.4893 71.7167 61.4893C70.4675 61.4893 69.4606 62.4944 69.4606 63.7416C69.4606 64.9889 70.4692 66.0008 71.7167 66.0008Z" fill="white"/>
<path fill-rule="evenodd" clip-rule="evenodd" d="M66.3075 73.0102C66.1958 73.2731 66.1064 73.8332 66.6357 74.0771C67.2577 74.3623 67.6031 73.7627 67.6031 73.7627L68.8299 69.8525C68.8299 69.8525 69.0447 69.5914 69.0447 69.8628V79.0697H69.0499C69.0499 79.7105 69.5654 80.2259 70.2063 80.2259C70.8472 80.2259 71.3627 79.7088 71.3627 79.0697V75.4361C71.3627 75.4361 71.2957 74.9224 71.7098 74.9224C72.1239 74.9224 72.0603 75.4361 72.0603 75.4361V79.0697C72.0603 79.7105 72.5793 80.2259 73.2202 80.2259C73.8611 80.2259 74.38 79.7088 74.38 79.0697V69.8628C74.38 69.5914 74.5227 69.7855 74.5227 69.7855L75.4849 72.4639C75.4849 72.4639 75.9007 73.6614 76.0313 73.7129C76.4661 73.895 76.9661 73.6888 77.1482 73.249C77.2685 72.9656 77.2221 72.6563 77.0572 72.4261L77.064 72.4175C77.0365 72.3316 75.6275 68.875 75.4609 68.3905C74.9522 66.9061 74.0261 66.9182 73.1343 66.8941C72.2425 66.8735 71.7081 66.8941 71.7081 66.8941C71.7081 66.8941 71.1393 66.8701 69.9606 66.9061C68.7853 66.9422 68.4124 67.5452 67.1168 70.8799C66.9329 71.3609 66.3058 72.9175 66.2972 73.0085L66.3058 73.012L66.3075 73.0102Z" fill="white"/>
<path fill-rule="evenodd" clip-rule="evenodd" d="M22.1695 49.3292C22.1695 47.7469 20.8859 46.4653 19.3051 46.4653C17.7242 46.4653 16.4458 47.7469 16.4458 49.3292C16.4458 50.9115 17.726 52.1914 19.3051 52.1914C20.8842 52.1914 22.1695 50.9098 22.1695 49.3292Z" fill="white"/>
<path fill-rule="evenodd" clip-rule="evenodd" d="M15.963 53.2943C14.0213 53.4696 12.4972 55.1034 12.4972 57.0963V65.0301C12.4972 65.6382 12.9955 66.1382 13.6089 66.1382C14.2224 66.1382 14.719 65.6382 14.719 65.0301V58.2147C14.719 57.9605 14.7946 57.6134 15.2619 57.6134C15.585 57.6134 15.652 57.9553 15.6657 58.1752V78.5989C15.6657 79.4768 16.3754 80.1932 17.2586 80.1932C18.1418 80.1932 18.8532 79.4768 18.8532 78.5989V66.8288C18.8601 66.7 18.903 66.3615 19.3085 66.3615C19.7141 66.3615 19.7639 66.7 19.769 66.8288V78.5989C19.769 79.4768 20.4804 80.1932 21.3619 80.1932C22.2434 80.1932 22.9565 79.4768 22.9565 78.5989V58.1752C22.9651 57.9553 23.039 57.6134 23.3586 57.6134C23.8294 57.6134 23.8998 57.9605 23.8998 58.2147V65.0301C23.8998 65.6382 24.3981 66.1382 25.0099 66.1382C25.6216 66.1382 26.1199 65.6382 26.1199 65.0301V57.0963C26.1199 55.1034 24.5975 53.4713 22.6506 53.2943C22.587 53.2858 22.5183 53.2772 22.441 53.2772H16.1847C16.1022 53.2772 16.0335 53.2858 15.9664 53.2943H15.963Z" fill="white"/>
<path fill-rule="evenodd" clip-rule="evenodd" d="M10.925 79.7672C10.925 79.7672 10.9112 79.7672 10.9043 79.7655C10.8442 79.7552 10.803 79.6968 10.815 79.6332L13.3564 66.1623C13.3667 66.1022 13.4251 66.0609 13.4869 66.073C13.5471 66.085 13.5883 66.1434 13.5763 66.2052L11.0332 79.6762C11.0246 79.7294 10.9765 79.7672 10.9232 79.7672H10.925Z" fill="white"/>
<path fill-rule="evenodd" clip-rule="evenodd" d="M27.4739 64.8187C27.3278 64.5885 27.0718 64.4339 26.778 64.4339C26.3244 64.4339 25.9566 64.8033 25.9566 65.2534C25.9566 65.384 26.0374 65.6142 26.0374 65.6142L28.3107 69.7305C28.3107 69.7305 28.4516 70.014 28.4516 70.2751V79.1109H28.455C28.455 79.7276 28.9534 80.2241 29.5685 80.2241C30.1837 80.2241 30.6768 79.7276 30.6768 79.1109V75.6233C30.6768 75.6233 30.6149 75.132 31.0136 75.132C31.4122 75.132 31.3487 75.6233 31.3487 75.6233V79.1109C31.3487 79.7276 31.8487 80.2241 32.4621 80.2241C33.0756 80.2241 33.5756 79.7276 33.5756 79.1109V70.2751C33.5756 70.014 33.713 69.7305 33.713 69.7305L35.8162 65.9303C35.8162 65.9303 36.0723 65.384 36.0723 65.2534C36.0723 64.8033 35.7045 64.4339 35.2492 64.4339C34.9519 64.4339 34.6976 64.5885 34.5533 64.8187L34.5447 64.8153C34.4777 64.872 33.4244 66.7463 33.0773 67.0934C32.7096 67.4645 32.3814 67.4232 32.3814 67.4232H29.6475C29.6475 67.4232 29.3159 67.4645 28.9499 67.0934C28.5977 66.7463 27.5495 64.8703 27.4825 64.8153L27.4756 64.8187H27.4739Z" fill="white"/>
<path fill-rule="evenodd" clip-rule="evenodd" d="M31.0119 66.0008C32.2593 66.0008 33.268 64.9889 33.268 63.7416C33.268 62.4944 32.2611 61.4893 31.0119 61.4893C29.7627 61.4893 28.7557 62.4944 28.7557 63.7416C28.7557 64.9889 29.7644 66.0008 31.0119 66.0008Z" fill="white"/>
<path fill-rule="evenodd" clip-rule="evenodd" d="M31.0153 69.1671L33.567 71.0277L34.7767 75.4876H31.0153H27.2505L28.4654 71.0277L31.0153 69.1671Z" fill="white"/>
<path fill-rule="evenodd" clip-rule="evenodd" d="M29.742 8.5625H33.1322V9.72044H31.1631V12.1394H32.5704V13.2853H31.1631V15.8537H33.1322V17.0117H29.742V8.5625Z" fill="white"/>
<path fill-rule="evenodd" clip-rule="evenodd" d="M35.4382 13.1358V17.0117H34.0172V8.5625H36.086C37.5191 8.5625 38.0432 9.27204 38.0432 10.4575V11.5415C38.0432 12.4521 37.7201 12.9864 36.9108 13.1736L38.2683 17.0117H36.7733L35.4399 13.1358H35.4382ZM35.4382 9.72044V12.3507H35.9107C36.397 12.3507 36.6084 12.1016 36.6084 11.6532V10.4076C36.6084 9.94722 36.3953 9.72044 35.9107 9.72044H35.4382Z" fill="white"/>
<path fill-rule="evenodd" clip-rule="evenodd" d="M40.3491 13.1358V17.0117H38.9281V8.5625H40.9969C42.4317 8.5625 42.9558 9.27204 42.9558 10.4575V11.5415C42.9558 12.4521 42.631 12.9864 41.8217 13.1736L43.1791 17.0117H41.6842L40.3508 13.1358H40.3491ZM40.3491 9.72044V12.3507H40.8216C41.3096 12.3507 41.521 12.1016 41.521 11.6532V10.4076C41.521 9.94722 41.3096 9.72044 40.8216 9.72044H40.3491Z" fill="white"/>
<path fill-rule="evenodd" clip-rule="evenodd" d="M43.6276 17.0117L45.2239 8.5625H46.8443L48.4526 17.0117H46.9938L46.7326 15.4672H45.2239L44.9748 17.0117H43.6293H43.6276ZM45.4095 14.3316H46.5436L45.9834 10.9402H45.9697L45.4095 14.3316Z" fill="white"/>
<path fill-rule="evenodd" clip-rule="evenodd" d="M53.4133 10.8303V14.7422C53.4133 16.0393 52.8772 17.01 51.3565 17.01H49.164V8.56079H51.3565C52.8772 8.56079 53.4133 9.52116 53.4133 10.8286V10.8303ZM51.1813 15.8537C51.7672 15.8537 51.9923 15.5033 51.9923 14.993V10.5691C51.9923 10.0709 51.7672 9.72045 51.1813 9.72045H50.5833V15.8537H51.1813Z" fill="white"/>
<path d="M55.7691 8.5625H54.3481V17.0117H55.7691V8.5625Z" fill="white"/>
<path fill-rule="evenodd" clip-rule="evenodd" d="M56.7039 14.8316V10.7444C56.7039 9.42326 57.3276 8.46289 58.8225 8.46289C60.3931 8.46289 60.8295 9.33564 60.8295 10.5812V11.5794H59.5322V10.4695C59.5322 9.94725 59.3587 9.6466 58.8466 9.6466C58.3346 9.6466 58.1249 10.0091 58.1249 10.5193V15.0549C58.1249 15.5651 58.3363 15.9276 58.8466 15.9276C59.3569 15.9276 59.5322 15.6047 59.5322 15.1064V13.5482H60.8295V15.0051C60.8295 16.2146 60.3312 17.1114 58.8225 17.1114C57.3139 17.1114 56.7039 16.139 56.7039 14.8316Z" fill="white"/>
<path fill-rule="evenodd" clip-rule="evenodd" d="M61.5031 17.0117L63.0977 8.5625H64.718L66.3264 17.0117H64.8675L64.6063 15.4672H63.0977L62.8485 17.0117H61.5031ZM63.285 14.3316H64.419L63.8572 10.9402H63.8434L63.2832 14.3316H63.285Z" fill="white"/>
<path fill-rule="evenodd" clip-rule="evenodd" d="M68.5447 17.8724C68.9433 17.8604 69.0052 17.7728 69.0052 17.6731C69.0052 17.5855 68.9313 17.5357 68.8059 17.5357H68.744V17.0736C67.5343 16.9258 67.036 16.0153 67.036 14.8316V10.7444C67.036 9.42326 67.6598 8.46289 69.1547 8.46289C70.7252 8.46289 71.1599 9.33564 71.1599 10.5812V11.5794H69.8643V10.4695C69.8643 9.94725 69.6891 9.6466 69.177 9.6466C68.665 9.6466 68.4553 10.0091 68.4553 10.5193V15.0549C68.4553 15.5651 68.6684 15.9276 69.177 15.9276C69.6856 15.9276 69.8643 15.6047 69.8643 15.1064V13.5482H71.1599V15.0051C71.1599 16.1888 70.6874 17.0615 69.2784 17.1114V17.223C69.6152 17.2728 69.8025 17.3965 69.8025 17.6714C69.8025 18.058 69.4399 18.2676 68.543 18.2676V17.8707L68.5447 17.8724Z" fill="white"/>
<path fill-rule="evenodd" clip-rule="evenodd" d="M71.8352 17.0117L73.4298 8.5625H75.0519L76.6585 17.0117H75.2014L74.9402 15.4672H73.4315L73.1824 17.0117H71.8352ZM72.947 8.22577C72.971 7.63993 73.1961 7.16748 73.8182 7.16748C74.1807 7.16748 74.478 7.3788 74.6653 7.3788C74.7649 7.3788 74.8388 7.31695 74.8388 7.19325H75.5382C75.5124 7.77909 75.289 8.25154 74.6653 8.25154C74.3027 8.25154 74.0054 8.04023 73.8182 8.04023C73.7185 8.04023 73.6446 8.10208 73.6446 8.22749H72.947V8.22577ZM73.6188 14.3316H74.7529L74.1927 10.9402H74.1807L73.6188 14.3316Z" fill="white"/>
<path fill-rule="evenodd" clip-rule="evenodd" d="M77.3716 14.8316V10.7444C77.3716 9.42326 78.0194 8.46289 79.5143 8.46289C81.0092 8.46289 81.6708 9.42326 81.6708 10.7444V14.8316C81.6708 16.1407 81.023 17.1114 79.5143 17.1114C78.0056 17.1114 77.3716 16.139 77.3716 14.8316ZM80.2497 15.0549V10.5193C80.2497 10.0091 80.0246 9.6466 79.5143 9.6466C79.004 9.6466 78.7926 10.0091 78.7926 10.5193V15.0549C78.7926 15.5651 79.016 15.9276 79.5143 15.9276C80.0126 15.9276 80.2497 15.5651 80.2497 15.0549Z" fill="white"/>
<path fill-rule="evenodd" clip-rule="evenodd" d="M33.9931 23.3306V27.2442C33.9931 28.5396 33.457 29.512 31.9363 29.512H29.7438V21.0628H31.9363C33.457 21.0628 33.9931 22.0232 33.9931 23.3306ZM31.7611 28.354C32.347 28.354 32.5704 28.0036 32.5704 27.495V23.0712C32.5704 22.5729 32.347 22.2242 31.7611 22.2242H31.1631V28.3558H31.7611V28.354Z" fill="white"/>
<path fill-rule="evenodd" clip-rule="evenodd" d="M34.7028 29.512L36.2974 21.0628H37.9177L39.5261 29.512H38.0672L37.806 27.9675H36.2974L36.0482 29.512H34.7028ZM36.4847 26.8336H37.617L37.0569 23.444H37.0431L36.4829 26.8336H36.4847Z" fill="white"/>
<path fill-rule="evenodd" clip-rule="evenodd" d="M41.6705 21.0628H43.7771C45.2102 21.0628 45.7343 21.7723 45.7343 22.9578V24.7393C45.7343 25.9231 45.2102 26.6481 43.7771 26.6481H43.0915V29.5137H41.6705V21.0645V21.0628ZM43.0915 22.2225V25.5502H43.6139C44.1001 25.5502 44.3115 25.3132 44.3115 24.8527V22.9079C44.3115 22.4458 44.0984 22.2225 43.6139 22.2225H43.0915Z" fill="white"/>
<path fill-rule="evenodd" clip-rule="evenodd" d="M46.5934 27.3318V23.2447C46.5934 21.9235 47.2412 20.9631 48.7379 20.9631C50.2345 20.9631 50.8943 21.9235 50.8943 23.2447V27.3318C50.8943 28.6409 50.2465 29.6116 48.7379 29.6116C47.2292 29.6116 46.5934 28.6392 46.5934 27.3318ZM49.4733 27.5569V23.0196C49.4733 22.5093 49.2482 22.1468 48.7379 22.1468C48.2275 22.1468 48.0144 22.5093 48.0144 23.0196V27.5569C48.0144 28.0671 48.2395 28.4296 48.7379 28.4296C49.2362 28.4296 49.4733 28.0671 49.4733 27.5569Z" fill="white"/>
<path fill-rule="evenodd" clip-rule="evenodd" d="M51.8308 21.0628H53.8876C55.3086 21.0628 55.7829 21.7242 55.7829 22.92V23.779C55.7829 24.4885 55.5217 24.9386 54.9358 25.1242C55.6454 25.2874 55.9942 25.7599 55.9942 26.533V27.6531C55.9942 28.8488 55.4581 29.5103 54.0388 29.5103H51.8325V21.0611L51.8308 21.0628ZM53.2518 24.6277H53.7501C54.2107 24.6277 54.4237 24.3906 54.4237 23.9405V22.9062C54.4237 22.4441 54.2107 22.2208 53.7381 22.2208H53.2518V24.626V24.6277ZM53.2518 25.7118V28.3541H53.8756C54.3481 28.3541 54.5732 28.117 54.5732 27.6686V26.3972C54.5732 25.9488 54.3619 25.7118 53.8636 25.7118H53.2518Z" fill="white"/>
<path fill-rule="evenodd" clip-rule="evenodd" d="M58.2486 25.6361V29.512H56.8276V21.0628H58.8964C60.3295 21.0628 60.8536 21.7723 60.8536 22.9578V24.0418C60.8536 24.9524 60.5305 25.4884 59.7195 25.6739L61.0787 29.512H59.582L58.2486 25.6361ZM58.2486 22.2225V24.8527H58.7229C59.2092 24.8527 59.4205 24.6036 59.4205 24.1535V22.9079C59.4205 22.4458 59.2092 22.2225 58.7229 22.2225H58.2486Z" fill="white"/>
<path fill-rule="evenodd" clip-rule="evenodd" d="M61.7523 21.0628H65.1425V22.2225H63.1733V24.6397H64.5806V25.7873H63.1733V28.354H65.1425V29.512H61.7523V21.0628Z" fill="white"/>
<path fill-rule="evenodd" clip-rule="evenodd" d="M67.4106 28.354H69.5671V29.512H65.9277V28.354L68.1598 22.2225H66.1528V21.0628H69.6547V22.2225L67.4106 28.354Z" fill="white"/>
<path fill-rule="evenodd" clip-rule="evenodd" d="M70.3025 29.512L71.8988 21.0628H73.5192L75.1258 29.512H73.667L73.4058 27.9675H71.8971L71.648 29.512H70.3008H70.3025ZM72.0861 26.8336H73.2202L72.6583 23.444H72.6463L72.0844 26.8336H72.0861Z" fill="white"/>
</svg>
