<svg width="105" height="104" viewBox="0 0 105 104" fill="none" xmlns="http://www.w3.org/2000/svg">
<path d="M104.09 0.00683594H0.68927V103.392H104.09V0.00683594Z" fill="#EF6323"/>
<path fill-rule="evenodd" clip-rule="evenodd" d="M19.6267 13.9158C19.6267 10.6877 18.2108 8.35461 14.5233 8.35461C10.8358 8.35461 9.35986 10.3819 9.35986 13.61V16.6835C9.35986 20.0938 10.7121 21.8152 13.2328 21.8152C14.7089 21.8152 15.599 21.1383 16.1231 20.1264H16.1523V24.6121C16.1523 25.8714 15.6608 26.7631 14.4013 26.7631C13.1418 26.7631 12.6796 26.0261 12.6796 24.7341V23.3511H9.48186V24.4592C9.48186 27.531 10.5901 29.6803 14.4632 29.6803C18.3362 29.6803 19.6267 27.3146 19.6267 24.0572V13.9175V13.9158ZM16.1523 17.1113C16.0904 18.2778 15.6007 19.0149 14.4924 19.0149C13.2964 19.0149 12.836 18.2778 12.836 16.9258V13.299C12.836 11.9779 13.3256 11.2117 14.525 11.2117C15.7244 11.2117 16.1539 12.0105 16.1539 13.299V17.1113H16.1523Z" fill="white"/>
<path fill-rule="evenodd" clip-rule="evenodd" d="M78.8031 67.9576L66.5122 60.8656V46.6748C66.5122 46.3759 66.3524 46.0993 66.0929 45.9498L53.3861 38.6139C53.1249 38.4645 52.8087 38.4645 52.5476 38.6139L39.8373 45.9498C39.5778 46.101 39.4163 46.3759 39.4163 46.6748V60.8656L27.127 67.9576C26.8676 68.1087 26.706 68.3853 26.706 68.6843V83.3595C26.706 83.6584 26.8659 83.9351 27.127 84.0862L39.8356 91.4204C39.9645 91.4943 40.1105 91.5321 40.2531 91.5321C40.3957 91.5321 40.5452 91.4943 40.6741 91.4204L52.9634 84.3268L65.2527 91.4204C65.3815 91.4943 65.5276 91.5321 65.6702 91.5321C65.8129 91.5321 65.9606 91.496 66.0912 91.4204L78.8031 84.0862C79.0609 83.9351 79.2207 83.6584 79.2207 83.3595V68.6843C79.2207 68.3853 79.0609 68.1087 78.8031 67.9576ZM52.1249 81.9078L41.9302 76.0219L52.1249 70.136V81.9078ZM63.9949 61.3501L53.8019 67.2325V55.4659L63.9949 61.3518V61.3501ZM52.1249 67.2325L41.9319 61.3501L52.1249 55.4659V67.2325ZM54.6422 68.6843L65.6702 62.3173L76.7051 68.6843L65.6702 75.0529L54.6422 68.6843ZM64.8316 59.8966L54.6422 54.0125L64.8316 48.1283V59.8966ZM51.288 54.0125L41.0951 59.8966V48.1283L51.288 54.0125ZM39.4163 89.242L28.3831 82.875V70.136L39.4163 76.5047V89.242ZM41.0951 89.242V77.4736L51.288 83.3595L41.0951 89.242ZM77.5436 82.875L66.5104 89.242V76.5047L77.5436 70.136V82.875Z" fill="white"/>
<path d="M26.4432 8.83398H25.0874V16.8932H26.4432V8.83398Z" fill="white"/>
<path fill-rule="evenodd" clip-rule="evenodd" d="M28.1923 11.8285V16.8932H27.0514V8.83398H28.3813L29.8419 13.4572V8.83398H30.9726V16.8932H29.7852L28.1923 11.8285Z" fill="white"/>
<path fill-rule="evenodd" clip-rule="evenodd" d="M35.6189 10.997V14.7302C35.6189 15.9654 35.1085 16.8932 33.6583 16.8932H31.5689V8.83398H33.6583C35.1068 8.83398 35.6189 9.74968 35.6189 10.997ZM33.4916 15.7868C34.0535 15.7868 34.2649 15.4552 34.2649 14.9673V10.7478C34.2649 10.272 34.0518 9.94038 33.4916 9.94038H32.9229V15.7868H33.4916Z" fill="white"/>
<path fill-rule="evenodd" clip-rule="evenodd" d="M40.15 8.83392V14.9329C40.15 16.1801 39.6156 16.9893 38.2375 16.9893C36.8594 16.9893 36.2168 16.1819 36.2168 14.9329V8.83392H37.5708V15.0617C37.5708 15.5376 37.7598 15.8589 38.2375 15.8589C38.7152 15.8589 38.9043 15.5393 38.9043 15.0617V8.83392H40.1517H40.15ZM39.3183 8.26354L37.1911 8.53671V7.77563L39.3183 7.32379V8.26183V8.26354Z" fill="white"/>
<path fill-rule="evenodd" clip-rule="evenodd" d="M40.6741 15.1562V14.0739H41.9337V15.1803C41.9337 15.6321 42.1364 15.8932 42.5969 15.8932C43.0265 15.8932 43.2172 15.608 43.2172 15.1803V14.871C43.2172 14.4072 43.0265 14.122 42.609 13.7303L41.8133 12.9331C41.0418 12.172 40.6861 11.7099 40.6861 10.7822V10.509C40.6861 9.50911 41.267 8.73944 42.5849 8.73944C43.9028 8.73944 44.4767 9.40431 44.4767 10.5691V11.222H43.2396V10.521C43.2396 10.0572 43.0265 9.83038 42.5969 9.83038C42.2172 9.83038 41.956 10.0434 41.956 10.4952V10.6619C41.956 11.1137 42.2051 11.3749 42.5969 11.7545L43.4664 12.6101C44.2018 13.3592 44.5609 13.8093 44.5609 14.7027V15.0944C44.5609 16.2008 43.9664 16.9842 42.5866 16.9842C41.2068 16.9842 40.6759 16.2111 40.6759 15.1545L40.6741 15.1562Z" fill="white"/>
<path fill-rule="evenodd" clip-rule="evenodd" d="M44.6434 8.83398H48.245V9.93867H47.1263V16.8932H45.762V9.93867H44.6434V8.83398Z" fill="white"/>
<path fill-rule="evenodd" clip-rule="evenodd" d="M50.0526 13.196V16.8932H48.6968V8.83398H50.6712C52.0373 8.83398 52.5373 9.51088 52.5373 10.6396V11.6756C52.5373 12.5415 52.2263 13.0534 51.4548 13.2321L52.7486 16.8932H51.3224L50.0526 13.196ZM50.0526 9.93867V12.447H50.5045C50.9684 12.447 51.1677 12.2082 51.1677 11.7821V10.5915C51.1677 10.1517 50.9667 9.93867 50.5045 9.93867H50.0526Z" fill="white"/>
<path d="M54.1525 8.83398H52.7967V16.8932H54.1525V8.83398Z" fill="white"/>
<path fill-rule="evenodd" clip-rule="evenodd" d="M54.5442 16.8932L56.0649 8.83398H57.6097L59.1424 16.8932H57.7523L57.5031 15.4191H56.0632L55.8243 16.8932H54.5425H54.5442ZM56.2453 14.3368H57.3278L56.7935 11.1035H56.7815L56.247 14.3368H56.2453Z" fill="white"/>
<path fill-rule="evenodd" clip-rule="evenodd" d="M60.9156 15.7043L60.2266 17.522H59.4672L59.6338 15.5961H60.9156V15.7043Z" fill="white"/>
<path d="M63.9348 8.83398H62.5808V16.8932H63.9348V8.83398Z" fill="white"/>
<path fill-rule="evenodd" clip-rule="evenodd" d="M65.6823 11.8285V16.8932H64.5413V8.83398H65.873L67.3353 13.4572V8.83398H68.4642V16.8932H67.2751L65.6823 11.8285Z" fill="white"/>
<path fill-rule="evenodd" clip-rule="evenodd" d="M69.0587 14.8127V10.9128C69.0587 9.65348 69.6756 8.7395 71.1035 8.7395C72.5314 8.7395 73.1586 9.65348 73.1586 10.9128V14.8127C73.1586 16.0617 72.54 16.9877 71.1035 16.9877C69.667 16.9877 69.0587 16.0617 69.0587 14.8127ZM71.8029 15.0257V10.6998C71.8029 10.2118 71.5898 9.86652 71.1035 9.86652C70.6172 9.86652 70.4127 10.2118 70.4127 10.6998V15.0257C70.4127 15.5119 70.6258 15.8572 71.1035 15.8572C71.5812 15.8572 71.8029 15.5119 71.8029 15.0257Z" fill="white"/>
<path fill-rule="evenodd" clip-rule="evenodd" d="M78.0901 8.83398L76.5574 16.8932H75.0848L73.5504 8.83398H74.9284L75.8581 14.457H75.8701L76.8202 8.83398H78.0901Z" fill="white"/>
<path fill-rule="evenodd" clip-rule="evenodd" d="M78.2585 16.8932L79.7827 8.83398H81.3257L82.8584 16.8932H81.4683L81.2191 15.4191H79.7809L79.5421 16.8932H78.2568H78.2585ZM79.9579 14.3368H81.0404L80.5061 11.1035H80.4941L79.9596 14.3368H79.9579Z" fill="white"/>
<path fill-rule="evenodd" clip-rule="evenodd" d="M84.6763 17.7127C85.0561 17.7006 85.1162 17.6165 85.1162 17.522C85.1162 17.4395 85.0441 17.3914 84.9255 17.3914H84.8688V16.9516C83.7141 16.809 83.2399 15.9414 83.2399 14.8127V10.9128C83.2399 9.65348 83.8344 8.7395 85.2605 8.7395C86.7572 8.7395 87.173 9.5693 87.173 10.7582V11.7117H85.9375V10.6534C85.9375 10.1551 85.7709 9.86823 85.2829 9.86823C84.7949 9.86823 84.5921 10.2136 84.5921 10.7015V15.0274C84.5921 15.5136 84.7949 15.8589 85.2829 15.8589C85.7709 15.8589 85.9375 15.5514 85.9375 15.0738V13.5894H87.173V14.9793C87.173 16.108 86.7211 16.9413 85.3791 16.9877V17.0959C85.6987 17.144 85.8792 17.2626 85.8792 17.5237C85.8792 17.8931 85.5355 18.0941 84.678 18.0941V17.7144L84.6763 17.7127Z" fill="white"/>
<path fill-rule="evenodd" clip-rule="evenodd" d="M87.5184 16.8931L89.0374 8.83396H90.5856L92.1183 16.8931H90.7282L90.4773 15.4191H89.0374L88.8003 16.8931H87.5184ZM88.5769 8.51269C88.601 7.95434 88.814 7.5025 89.4086 7.5025C89.7522 7.5025 90.0391 7.70351 90.2161 7.70351C90.3123 7.70351 90.3828 7.64338 90.3828 7.52484H91.0495C91.0254 8.08319 90.8106 8.53674 90.2161 8.53674C89.8725 8.53674 89.5873 8.33574 89.4086 8.33574C89.3141 8.33574 89.2436 8.39587 89.2436 8.51441H88.5769V8.51269ZM89.2161 14.3367H90.2986L89.7642 11.1035H89.7522L89.2179 14.3367H89.2161Z" fill="white"/>
<path fill-rule="evenodd" clip-rule="evenodd" d="M92.498 14.8127V10.9128C92.498 9.65348 93.1166 8.7395 94.5428 8.7395C95.969 8.7395 96.5979 9.65348 96.5979 10.9128V14.8127C96.5979 16.0617 95.9793 16.9877 94.5428 16.9877C93.1063 16.9877 92.498 16.0617 92.498 14.8127ZM95.2439 15.0257V10.6998C95.2439 10.2118 95.0291 9.86652 94.5411 9.86652C94.0531 9.86652 93.8504 10.2118 93.8504 10.6998V15.0257C93.8504 15.5119 94.0686 15.8572 94.5411 15.8572C95.0137 15.8572 95.2439 15.5119 95.2439 15.0257Z" fill="white"/>
<path fill-rule="evenodd" clip-rule="evenodd" d="M25.0874 21.2534H28.3212V22.3581H26.4448V24.6654H27.7868V25.758H26.4448V28.2062H28.3212V29.3126H25.0874V21.2534Z" fill="white"/>
<path d="M31.519 21.2534H30.1649V29.3126H31.519V21.2534Z" fill="white"/>
<path fill-rule="evenodd" clip-rule="evenodd" d="M33.3867 24.2479V29.3126H32.2441V21.2534H33.5775L35.0381 25.8766V21.2534H36.1653V29.3126H34.9796L33.3867 24.2479Z" fill="white"/>
<path fill-rule="evenodd" clip-rule="evenodd" d="M36.8801 21.2534H40.0538V22.3581H38.2358V24.6654H39.5898V25.758H38.2358V29.3126H36.8801V21.2534Z" fill="white"/>
<path fill-rule="evenodd" clip-rule="evenodd" d="M41.9456 25.6155V29.3109H40.59V21.2517H42.5626C43.9303 21.2517 44.4303 21.9286 44.4303 23.0573V24.0916C44.4303 24.9592 44.1193 25.4711 43.3495 25.6481L44.6468 29.3092H43.2189L41.9491 25.6137L41.9456 25.6155ZM41.9456 22.3581V24.8664H42.3976C42.8616 24.8664 43.0609 24.6293 43.0609 24.2015V23.0127C43.0609 22.5729 42.8598 22.3581 42.3976 22.3581H41.9456Z" fill="white"/>
<path fill-rule="evenodd" clip-rule="evenodd" d="M44.8805 29.3126L46.4012 21.2534H47.9459L49.4787 29.3126H48.0885L47.8394 27.8386H46.3994L46.1606 29.3126H44.8788H44.8805ZM46.5799 26.7562H47.6607L47.1262 23.5229H47.1143L46.5799 26.7562Z" fill="white"/>
<path fill-rule="evenodd" clip-rule="evenodd" d="M49.9805 21.2534H53.2126V22.3581H51.3345V24.6654H52.6765V25.758H51.3345V28.2062H53.2126V29.3126H49.9805V21.2534Z" fill="white"/>
<path fill-rule="evenodd" clip-rule="evenodd" d="M53.795 27.5757V26.4934H55.0563V27.5998C55.0563 28.0516 55.2574 28.3128 55.723 28.3128C56.1509 28.3128 56.3399 28.0276 56.3399 27.5998V27.2888C56.3399 26.825 56.1508 26.5398 55.735 26.1481L54.9378 25.3526C54.1663 24.5915 53.8088 24.1277 53.8088 23.1999V22.9268C53.8088 21.9286 54.3913 21.1555 55.7127 21.1555C57.0341 21.1555 57.6011 21.8204 57.6011 22.9852V23.6398H56.3639V22.9371C56.3639 22.4732 56.1509 22.2482 55.723 22.2482C55.3416 22.2482 55.0803 22.4612 55.0803 22.913V23.0797C55.0803 23.5315 55.3312 23.7944 55.723 24.1741L56.589 25.0313C57.3262 25.7787 57.6836 26.2305 57.6836 27.1222V27.5156C57.6836 28.6203 57.0891 29.4037 55.711 29.4037C54.3329 29.4037 53.795 28.6306 53.795 27.574V27.5757Z" fill="white"/>
<path fill-rule="evenodd" clip-rule="evenodd" d="M58.1698 21.2534H61.7714V22.3581H60.6528V29.3126H59.2867V22.3581H58.1698V21.2534Z" fill="white"/>
<path fill-rule="evenodd" clip-rule="evenodd" d="M63.6976 25.6155V29.3109H62.3419V21.2517H64.3145C65.6822 21.2517 66.1788 21.9286 66.1788 23.0573V24.0916C66.1788 24.9592 65.8712 25.4711 65.0997 25.6481L66.3971 29.3092H64.9691L63.6993 25.6137L63.6976 25.6155ZM63.6976 22.3581V24.8664H64.1495C64.6135 24.8664 64.8128 24.6293 64.8128 24.2015V23.0127C64.8128 22.5729 64.6117 22.3581 64.1495 22.3581H63.6976Z" fill="white"/>
<path fill-rule="evenodd" clip-rule="evenodd" d="M70.7804 21.2534V27.3506C70.7804 28.5996 70.2461 29.4071 68.868 29.4071C67.4899 29.4071 66.8472 28.5996 66.8472 27.3506V21.2534H68.2013V27.4812C68.2013 27.9571 68.392 28.2784 68.868 28.2784C69.344 28.2784 69.5312 27.9588 69.5312 27.4812V21.2534H70.7804Z" fill="white"/>
<path fill-rule="evenodd" clip-rule="evenodd" d="M71.3286 21.2534H74.9284V22.3581H73.8115V29.3126H72.4454V22.3581H71.3286V21.2534Z" fill="white"/>
<path fill-rule="evenodd" clip-rule="evenodd" d="M79.4355 21.2534V27.3506C79.4355 28.5996 78.9011 29.4071 77.5196 29.4071C76.1381 29.4071 75.5023 28.5996 75.5023 27.3506V21.2534H76.8563V27.4812C76.8563 27.9571 77.0453 28.2784 77.5196 28.2784C77.9938 28.2784 78.1863 27.9588 78.1863 27.4812V21.2534H79.4355Z" fill="white"/>
<path fill-rule="evenodd" clip-rule="evenodd" d="M81.4922 25.6155V29.3109H80.1382V21.2517H82.1108C83.4769 21.2517 83.9752 21.9286 83.9752 23.0573V24.0916C83.9752 24.9592 83.6642 25.4711 82.8927 25.6481L84.19 29.3092H82.7621L81.4922 25.6137V25.6155ZM81.4922 22.3581V24.8664H81.9442C82.4082 24.8664 82.6075 24.6293 82.6075 24.2015V23.0127C82.6075 22.5729 82.4064 22.3581 81.9442 22.3581H81.4922Z" fill="white"/>
<path fill-rule="evenodd" clip-rule="evenodd" d="M84.4409 29.3126L85.9598 21.2534H87.5063L89.0373 29.3126H87.6473L87.3981 27.8386H85.9582L85.7211 29.3126H84.4392H84.4409ZM86.1385 26.7562H87.2194L86.685 23.5229H86.673L86.1385 26.7562Z" fill="white"/>
</svg>
