<svg width="104" height="105" viewBox="0 0 104 105" fill="none" xmlns="http://www.w3.org/2000/svg">
<path d="M103.424 0.834412H0.0198975V104.224H103.424V0.834412Z" fill="#006299"/>
<path fill-rule="evenodd" clip-rule="evenodd" d="M7.97737 13.2883V16.9476H8.00829L10.4672 14.3964H10.4981V30.3515H14.0035V9.50519H11.2078L7.97737 13.2883Z" fill="white"/>
<path fill-rule="evenodd" clip-rule="evenodd" d="M26.2738 25.3401V22.2649C26.2738 18.8529 24.9215 17.1297 22.4008 17.1297C20.923 17.1297 20.0312 17.8066 19.5089 18.822H19.4797V14.3328C19.4797 13.0718 19.8766 12.1801 21.1395 12.1801C22.4025 12.1801 22.7685 12.9172 22.7685 14.2091V15.5955H25.9663V14.4857C25.9663 11.4122 24.9542 9.25952 21.0777 9.25952C17.2012 9.25952 16.0036 11.6269 16.0036 14.886V25.0326C16.0036 28.2607 17.4194 30.5972 21.1086 30.5972C24.7978 30.5972 26.2738 28.5682 26.2738 25.3401ZM22.7994 25.6476C22.7994 26.9705 22.308 27.7384 21.1086 27.7384C19.9092 27.7384 19.4797 26.9379 19.4797 25.6476V21.8354C19.5398 20.6671 20.0312 19.9284 21.1395 19.9284C22.3389 19.9284 22.7994 20.6671 22.7994 22.0192V25.6459V25.6476Z" fill="white"/>
<path fill-rule="evenodd" clip-rule="evenodd" d="M72.393 36.0862C72.393 36.0862 71.2022 37.6685 71.5476 39.2113C71.8964 40.7541 73.6542 41.6698 73.6542 41.6698C73.6542 41.6698 74.8467 40.0875 74.4996 38.5447C74.1508 37.0037 72.393 36.0862 72.393 36.0862Z" fill="white"/>
<path fill-rule="evenodd" clip-rule="evenodd" d="M70.4513 45.123C70.4513 45.123 71.6438 43.539 71.295 41.998C70.9462 40.4552 69.1918 39.5395 69.1918 39.5395C69.1918 39.5395 67.9959 41.1218 68.3447 42.6628C68.6935 44.2056 70.4531 45.123 70.4531 45.123H70.4513Z" fill="white"/>
<path fill-rule="evenodd" clip-rule="evenodd" d="M75.3485 43.4273C75.3485 43.4273 76.608 44.6969 78.0394 44.5698C79.4724 44.4427 80.5343 42.9686 80.5343 42.9686C80.5343 42.9686 79.2782 41.699 77.8435 41.8278C76.4104 41.955 75.3468 43.429 75.3468 43.429L75.3485 43.4273Z" fill="white"/>
<path fill-rule="evenodd" clip-rule="evenodd" d="M77.4104 36.648C76.2454 37.8318 76.4104 39.9243 76.4104 39.9243C76.4104 39.9243 78.4637 40.103 79.6322 38.921C80.8006 37.739 80.6357 35.6447 80.6357 35.6447C80.6357 35.6447 78.5806 35.4678 77.4122 36.648H77.4104Z" fill="white"/>
<path fill-rule="evenodd" clip-rule="evenodd" d="M74.8382 48.1329C76.2661 48.303 77.608 47.0746 77.608 47.0746C77.608 47.0746 76.6355 45.5748 75.2076 45.4065C73.7797 45.2398 72.436 46.4647 72.436 46.4647C72.436 46.4647 73.4103 47.9646 74.8382 48.1312V48.1329Z" fill="white"/>
<path fill-rule="evenodd" clip-rule="evenodd" d="M76.1131 72.9393H65.439C64.6022 72.9393 63.927 73.6127 63.927 74.4477C63.927 75.2826 64.6022 75.9595 65.439 75.9595H76.1131C76.9465 75.9595 77.6218 75.2826 77.6218 74.4477C77.6218 73.6127 76.9465 72.9393 76.1131 72.9393Z" fill="white"/>
<path fill-rule="evenodd" clip-rule="evenodd" d="M76.1131 89.5834H65.439C64.6022 89.5834 63.927 90.2585 63.927 91.0935C63.927 91.9284 64.6022 92.6019 65.439 92.6019H76.1131C76.9465 92.6019 77.6218 91.925 77.6218 91.0935C77.6218 90.262 76.9465 89.5834 76.1131 89.5834Z" fill="white"/>
<path fill-rule="evenodd" clip-rule="evenodd" d="M28.1038 69.2731C27.8529 69.1957 27.6055 69.127 27.3633 69.0823C27.3633 69.0823 27.6381 69.1683 28.1038 69.2731Z" fill="white"/>
<path fill-rule="evenodd" clip-rule="evenodd" d="M75.7196 77.0144H65.8291C65.3531 77.0144 64.9699 77.401 64.9699 77.8734V80.8696L58.5126 81.5792L49.0791 81.3627V75.6022C50.33 75.4424 51.5861 75.1933 52.8302 74.8411C61.9114 72.2796 63.8926 64.7719 63.695 59.5783C63.4974 54.2869 65.1899 52.2321 67.623 51.3198C68.3172 51.0587 69.0079 50.8921 69.6385 50.7855C69.6643 52.0844 69.9273 53.5945 70.5098 55.395C70.7246 55.3829 70.9393 55.3658 71.1524 55.3417C70.5389 53.5017 70.2778 51.9864 70.264 50.6945C71.5201 50.5467 72.4153 50.6292 72.4153 50.6292C72.4153 50.6292 71.5682 50.1739 70.3671 49.1689C70.7761 46.6658 72.2675 45.1264 73.8054 43.5544C74.6508 42.6886 75.5255 41.7952 76.2128 40.73L75.6749 40.3847C75.0254 41.3966 74.1714 42.2677 73.3466 43.1095C71.85 44.6437 70.3345 46.2105 69.8225 48.6982C69.3362 48.2583 68.8069 47.7378 68.2673 47.1331C66.0301 44.623 63.1451 46.4665 59.0349 50.2942C54.9196 54.1202 49.7492 54.2491 44.6992 49.083C38.0339 42.2625 32.2209 42.3003 28.2361 42.6868C30.9613 43.8465 31.9167 46.396 33.2965 52.8729C34.7416 59.6677 38.3896 62.7429 43.3812 63.1655C40.6062 64.1448 40.467 65.7133 36.7503 68.2801C33.8464 70.285 29.7602 69.651 28.1038 69.2748C31.1469 70.2231 34.7468 73.4117 37.9686 74.5216C39.845 75.1675 41.8227 75.5661 43.8503 75.7276V81.2424L26.9491 80.8559V84.7042L58.5091 83.9827L64.9665 84.6939V87.6867C64.9665 88.1609 65.3514 88.5474 65.8256 88.5474H75.7162C76.1922 88.5474 76.5788 88.1609 76.5788 87.6867V77.8751C76.5788 77.4027 76.1922 77.0161 75.7162 77.0161L75.7196 77.0144ZM45.4054 75.8066C46.1099 75.8187 46.8161 75.7981 47.5206 75.75V81.3249L45.4054 81.2768V75.8049V75.8066Z" fill="white"/>
<path fill-rule="evenodd" clip-rule="evenodd" d="M26.0264 84.0669C26.0264 84.8778 25.4611 85.5375 24.7635 85.5375H24.0023C23.3064 85.5375 22.7359 84.8778 22.7359 84.0669V81.4074C22.7359 80.5965 23.3064 79.9385 24.0023 79.9385H24.7635C25.4611 79.9385 26.0264 80.5965 26.0264 81.4074V84.0669Z" fill="white"/>
<path fill-rule="evenodd" clip-rule="evenodd" d="M33.037 7.56379H35.1402C36.575 7.56379 37.0991 8.27333 37.0991 9.45704V11.2386C37.0991 12.4223 36.5767 13.1456 35.1402 13.1456H34.4546V16.013H33.037V7.56207V7.56379ZM34.4546 8.72345V12.0495H34.9787C35.465 12.0495 35.6781 11.8141 35.6781 11.352V9.40721C35.6781 8.94679 35.465 8.72345 34.9787 8.72345H34.4546Z" fill="white"/>
<path fill-rule="evenodd" clip-rule="evenodd" d="M37.4737 16.013L39.0683 7.56207H40.6903L42.2953 16.013H40.8381L40.5752 14.4668H39.0683L38.8174 16.013H37.4737ZM39.2556 13.3329H40.3896L39.8278 9.94152H39.8158L39.2539 13.3329H39.2556Z" fill="white"/>
<path fill-rule="evenodd" clip-rule="evenodd" d="M44.1424 14.8533H46.2972V16.013H42.6595V14.8533L44.8899 8.72344H42.8829V7.56378H46.3831V8.72344L44.1424 14.8533Z" fill="white"/>
<path fill-rule="evenodd" clip-rule="evenodd" d="M48.4554 14.7657L47.7336 16.6727H46.9329L47.1082 14.6541H48.4554V14.7657Z" fill="white"/>
<path fill-rule="evenodd" clip-rule="evenodd" d="M54.0879 7.56378V14.0922C54.0879 15.3137 53.5536 16.1126 52.1325 16.1126C50.7115 16.1126 50.263 15.3017 50.263 14.2314V12.5477H51.6102V14.2572C51.6102 14.6798 51.7579 14.9289 52.1325 14.9289C52.5071 14.9289 52.6669 14.6798 52.6669 14.2434V7.56378H54.0879Z" fill="white"/>
<path fill-rule="evenodd" clip-rule="evenodd" d="M58.8889 7.56378V13.9565C58.8889 15.2639 58.327 16.1126 56.8819 16.1126C55.4369 16.1126 54.7615 15.2656 54.7615 13.9565V7.56378H56.1843V14.0922C56.1843 14.5922 56.3819 14.9289 56.8819 14.9289C57.382 14.9289 57.5796 14.5922 57.5796 14.0922V7.56378H58.8889Z" fill="white"/>
<path fill-rule="evenodd" clip-rule="evenodd" d="M59.4851 14.1936V13.0597H60.8082V14.2177C60.8082 14.6901 61.0213 14.965 61.5058 14.965C61.9577 14.965 62.1554 14.6661 62.1554 14.2177V13.893C62.1554 13.4068 61.9577 13.1078 61.5196 12.6955L60.6845 11.8623C59.8752 11.0634 59.5006 10.5789 59.5006 9.60654V9.31963C59.5006 8.27165 60.1123 7.46417 61.4938 7.46417C62.8753 7.46417 63.4767 8.16169 63.4767 9.3832V10.0687H62.1795V9.33337C62.1795 8.84717 61.9577 8.61009 61.5058 8.61009C61.1072 8.61009 60.834 8.83343 60.834 9.3076V9.48283C60.834 9.95529 61.0951 10.2302 61.5058 10.627L62.4166 11.5256C63.1898 12.3107 63.5627 12.7849 63.5627 13.7195V14.1301C63.5627 15.288 62.9389 16.1109 61.4938 16.1109C60.0487 16.1109 59.4851 15.3 59.4851 14.1919V14.1936Z" fill="white"/>
<path fill-rule="evenodd" clip-rule="evenodd" d="M64.0249 7.56378H67.8V8.72344H66.6298V16.013H65.1967V8.72344H64.0249V7.56378Z" fill="white"/>
<path d="M69.7589 7.56378H68.3378V16.0147H69.7589V7.56378Z" fill="white"/>
<path fill-rule="evenodd" clip-rule="evenodd" d="M71.9531 16.8737C72.35 16.86 72.4119 16.7741 72.4119 16.6727C72.4119 16.5868 72.338 16.537 72.2143 16.537H72.1524V16.0748C70.9444 15.9254 70.4444 15.0165 70.4444 13.8311V9.74398C70.4444 8.42283 71.0682 7.46417 72.5648 7.46417C74.0615 7.46417 74.5701 8.33521 74.5701 9.58248V10.5789H73.2727V9.47081C73.2727 8.94681 73.0992 8.64788 72.5872 8.64788C72.0751 8.64788 71.8638 9.01039 71.8638 9.52064V14.0562C71.8638 14.5681 72.0768 14.9289 72.5872 14.9289C73.0975 14.9289 73.2727 14.6059 73.2727 14.106V12.5478H74.5701V14.0064C74.5701 15.1884 74.0941 16.0628 72.6885 16.1126V16.2243C73.0236 16.2741 73.2109 16.3996 73.2109 16.6727C73.2109 17.0593 72.8483 17.2723 71.9531 17.2723V16.8737Z" fill="white"/>
<path fill-rule="evenodd" clip-rule="evenodd" d="M74.9928 16.013L76.5873 7.56207H78.2094L79.816 16.013H78.3572L78.096 14.4668H76.5873L76.3382 16.013H74.991H74.9928ZM76.7764 13.3329H77.9105L77.3486 9.94152H77.3366L76.7747 13.3329H76.7764Z" fill="white"/>
<path fill-rule="evenodd" clip-rule="evenodd" d="M81.4656 7.56378H84.8541V8.72344H82.8832V11.139H84.2922V12.2866H82.8832V14.8533H84.8541V16.013H81.4656V7.56378Z" fill="white"/>
<path d="M34.5062 18.6691H33.0851V27.1182H34.5062V18.6691Z" fill="white"/>
<path fill-rule="evenodd" clip-rule="evenodd" d="M36.6386 21.8079V27.1165H35.4426V18.6691H36.8362L38.3689 23.5156V18.6691H39.5545V27.1165H38.3071L36.6386 21.8079Z" fill="white"/>
<path fill-rule="evenodd" clip-rule="evenodd" d="M40.4017 25.2972V24.1633H41.723V25.323C41.723 25.7971 41.9361 26.072 42.4224 26.072C42.8692 26.072 43.0702 25.7714 43.0702 25.323V24.9983C43.0702 24.5121 42.8692 24.2149 42.4344 23.8025L41.5993 22.9676C40.79 22.1704 40.4154 21.6842 40.4154 20.7118V20.4249C40.4154 19.3769 41.0271 18.5677 42.4121 18.5677C43.797 18.5677 44.3916 19.267 44.3916 20.4868V21.1723H43.0977V20.4369C43.0977 19.9507 42.8709 19.7137 42.4241 19.7137C42.0255 19.7137 41.7506 19.9387 41.7506 20.4112V20.5864C41.7506 21.0606 42.0117 21.3355 42.4241 21.734L43.3348 22.6308C44.1063 23.416 44.4809 23.8884 44.4809 24.8248V25.2353C44.4809 26.395 43.8572 27.2162 42.4121 27.2162C40.967 27.2162 40.4034 26.4053 40.4034 25.2955L40.4017 25.2972Z" fill="white"/>
<path fill-rule="evenodd" clip-rule="evenodd" d="M45.1751 18.6691H48.9536V19.827H47.7835V27.1165H46.3487V19.827H45.1751V18.6691Z" fill="white"/>
<path d="M51.1445 18.6691H49.7269V27.1182H51.1445V18.6691Z" fill="white"/>
<path fill-rule="evenodd" clip-rule="evenodd" d="M51.9211 18.6691H55.698V19.827H54.5243V27.1165H53.0913V19.827H51.9211V18.6691Z" fill="white"/>
<path fill-rule="evenodd" clip-rule="evenodd" d="M60.5951 18.6691V25.0601C60.5951 26.3692 60.0333 27.2179 58.5899 27.2179C57.1465 27.2179 56.4695 26.3692 56.4695 25.0601V18.6691H57.8923V25.1992C57.8923 25.6975 58.0899 26.0342 58.5899 26.0342C59.0899 26.0342 59.2875 25.6975 59.2875 25.1992V18.6691H60.5968H60.5951Z" fill="white"/>
<path d="M62.9268 18.6691H61.5058V27.1182H62.9268V18.6691Z" fill="white"/>
<path fill-rule="evenodd" clip-rule="evenodd" d="M65.3566 27.9773C65.7552 27.9653 65.8171 27.8776 65.8171 27.7797C65.8171 27.6921 65.7431 27.6423 65.6194 27.6423H65.5576V27.1818C64.3496 27.0324 63.8496 26.1218 63.8496 24.9381V20.851C63.8496 19.5298 64.4734 18.5695 65.9683 18.5695C67.5388 18.5695 67.9735 19.4422 67.9735 20.6895V21.6859H66.6797V20.5761C66.6797 20.0521 66.5027 19.7532 65.9924 19.7532C65.482 19.7532 65.2706 20.114 65.2706 20.6242V25.1615C65.2706 25.6717 65.4837 26.0342 65.9924 26.0342C66.501 26.0342 66.6797 25.7095 66.6797 25.2113V23.6548H67.9735V25.1116C67.9735 26.2954 67.501 27.1681 66.092 27.2179V27.3296C66.4287 27.3777 66.6178 27.5031 66.6178 27.778C66.6178 28.1646 66.2552 28.3759 65.3566 28.3759V27.9756V27.9773Z" fill="white"/>
<path fill-rule="evenodd" clip-rule="evenodd" d="M68.8602 24.9364V20.8492C68.8602 19.5281 69.508 18.5677 71.0046 18.5677C72.5012 18.5677 73.161 19.5281 73.161 20.8492V24.9364C73.161 26.2455 72.5116 27.2179 71.0046 27.2179C69.4977 27.2179 68.8602 26.2455 68.8602 24.9364ZM69.709 18.3323C69.7331 17.7465 69.9564 17.274 70.5801 17.274C70.9427 17.274 71.2417 17.4854 71.4273 17.4854C71.527 17.4854 71.6008 17.4235 71.6008 17.2981H72.3002C72.2744 17.8839 72.0493 18.3564 71.4255 18.3564C71.0647 18.3564 70.7658 18.1434 70.5785 18.1434C70.4805 18.1434 70.4032 18.2052 70.4032 18.3306H69.7056L69.709 18.3323ZM71.74 25.1614V20.6242C71.74 20.1139 71.5149 19.7531 71.0046 19.7531C70.4943 19.7531 70.2812 20.1139 70.2812 20.6242V25.1614C70.2812 25.6717 70.5063 26.0342 71.0046 26.0342C71.5029 26.0342 71.74 25.6717 71.74 25.1614Z" fill="white"/>
<path fill-rule="evenodd" clip-rule="evenodd" d="M74.0838 18.6691H77.474V19.827H75.5065V22.2442H76.9121V23.3919H75.5065V25.9586H77.474V27.1165H74.0838V18.6691Z" fill="white"/>
<path fill-rule="evenodd" clip-rule="evenodd" d="M78.2713 25.2972V24.1633H79.5927V25.323C79.5927 25.7971 79.8057 26.072 80.292 26.072C80.7387 26.072 80.9398 25.7714 80.9398 25.323V24.9983C80.9398 24.5121 80.7388 24.2149 80.3041 23.8025L79.4689 22.9676C78.6596 22.1704 78.2851 21.6842 78.2851 20.7118V20.4249C78.2851 19.3769 78.8967 18.5677 80.2817 18.5677C81.6666 18.5677 82.2611 19.267 82.2611 20.4868V21.1723H80.9639V20.4369C80.9639 19.9507 80.7387 19.7137 80.292 19.7137C79.8933 19.7137 79.6184 19.9387 79.6184 20.4112V20.5864C79.6184 21.0606 79.8796 21.3355 80.292 21.734L81.1993 22.6308C81.9725 23.416 82.3488 23.8884 82.3488 24.8248V25.2353C82.3488 26.395 81.7251 27.2162 80.28 27.2162C78.8349 27.2162 78.2713 26.4053 78.2713 25.2955V25.2972Z" fill="white"/>
<path fill-rule="evenodd" clip-rule="evenodd" d="M33.0851 30.2347H36.4753V31.3943H34.5062V33.8116H35.9152V34.9575H34.5062V37.5242H36.4753V38.6821H33.0851V30.2347Z" fill="white"/>
<path fill-rule="evenodd" clip-rule="evenodd" d="M37.3362 30.2347H40.6646V31.3943H38.7572V33.8116H40.1783V34.9575H38.7572V38.6821H37.3362V30.2347Z" fill="white"/>
<path d="M42.8211 30.2347H41.4V38.6839H42.8211V30.2347Z" fill="white"/>
<path fill-rule="evenodd" clip-rule="evenodd" d="M43.7541 36.5037V32.4166C43.7541 31.0954 44.3778 30.1351 45.8728 30.1351C47.445 30.1351 47.8814 31.0078 47.8814 32.2534V33.2498H46.5841V32.14C46.5841 31.616 46.4106 31.3171 45.8985 31.3171C45.3865 31.3171 45.1751 31.6796 45.1751 32.1881V36.7254C45.1751 37.2356 45.3882 37.5964 45.8985 37.5964C46.4089 37.5964 46.5841 37.2734 46.5841 36.7735V35.2169H47.8814V36.6738C47.8814 37.8833 47.3832 38.7801 45.8728 38.7801C44.3624 38.7801 43.7541 37.8094 43.7541 36.5003V36.5037Z" fill="white"/>
<path fill-rule="evenodd" clip-rule="evenodd" d="M48.543 38.6821L50.1376 30.233H51.7562L53.3663 38.6821H51.9074L51.6445 37.1377H50.1376L49.8867 38.6821H48.5413H48.543ZM50.3249 36.0038H51.459L50.8971 32.6141H50.885L50.3249 36.0038Z" fill="white"/>
<path fill-rule="evenodd" clip-rule="evenodd" d="M55.4488 37.5242H57.6035V38.6821H53.9642V37.5242L56.1963 31.3943H54.1876V30.2347H57.6912V31.3943L55.4488 37.5242Z" fill="white"/>
<path fill-rule="evenodd" clip-rule="evenodd" d="M58.5383 30.2347H61.9303V31.3943H59.9593V33.8116H61.3684V34.9575H59.9593V37.5242H61.9303V38.6821H58.5383V30.2347Z" fill="white"/>
<path fill-rule="evenodd" clip-rule="evenodd" d="M62.7276 36.8628V35.7289H64.0472V36.8886C64.0472 37.3627 64.2602 37.6376 64.7448 37.6376C65.1933 37.6376 65.3944 37.3387 65.3944 36.8886V36.5656C65.3944 36.0794 65.1933 35.7804 64.7569 35.3698L63.9235 34.5349C63.1142 33.7377 62.7396 33.2515 62.7396 32.2791V31.9922C62.7396 30.946 63.3513 30.1351 64.7345 30.1351C66.1177 30.1351 66.7157 30.8326 66.7157 32.0541V32.7396H65.4201V32.0043C65.4201 31.5181 65.195 31.281 64.7466 31.281C64.3496 31.281 64.0764 31.506 64.0764 31.9802V32.1537C64.0764 32.6279 64.3359 32.9028 64.7466 33.3014L65.6572 34.1982C66.4305 34.9833 66.8051 35.4575 66.8051 36.3921V36.8027C66.8051 37.9623 66.1813 38.7835 64.7345 38.7835C63.2877 38.7835 62.7292 37.9726 62.7292 36.8645L62.7276 36.8628Z" fill="white"/>
</svg>
