<svg width="104" height="105" viewBox="0 0 104 105" fill="none" xmlns="http://www.w3.org/2000/svg">
<path d="M103.584 0.836121H0.183533V104.224H103.584V0.836121Z" fill="#52B648"/>
<path fill-rule="evenodd" clip-rule="evenodd" d="M7.75433 13.2711V16.9304H7.78529L10.2441 14.3792H10.2768V30.3344H13.7821V9.48975H10.983L7.75433 13.2711Z" fill="white"/>
<path fill-rule="evenodd" clip-rule="evenodd" d="M22.1159 16.1006C20.7309 16.1006 19.7189 16.592 19.1639 17.5455H19.1312V12.3485H25.159V9.49146H15.9369V21.2358H19.1329V20.7719C19.1329 19.5435 19.6862 18.8683 20.6708 18.8683C21.7482 18.8683 22.1794 19.6054 22.1794 20.7444V25.7868C22.1794 26.8932 21.7791 27.6611 20.7017 27.6611C19.5024 27.6611 19.0762 26.864 19.0762 25.6322V23.0191H15.8767V25.3865C15.8767 28.5528 17.138 30.58 20.7034 30.58C24.2689 30.58 25.6848 28.704 25.6848 25.8143V20.7135C25.6848 17.4218 23.994 16.1006 22.1193 16.1006H22.1159Z" fill="white"/>
<path fill-rule="evenodd" clip-rule="evenodd" d="M43.0018 70.7385C43.129 70.7385 43.2303 70.8416 43.2303 70.967V78.4953C43.2303 78.6225 43.1273 78.7238 43.0018 78.7238H39.957C39.8281 78.7238 39.725 78.6242 39.725 78.4953V70.967C39.725 70.8399 39.8281 70.7385 39.957 70.7385H43.0018Z" fill="white"/>
<path fill-rule="evenodd" clip-rule="evenodd" d="M76.464 81.9554H26.2536C26.1264 81.9554 26.025 82.0636 26.025 82.1907V85.2591C26.025 85.3862 26.1281 85.4859 26.2536 85.4859H76.464C76.5877 85.4859 76.6925 85.3862 76.6925 85.2591V82.1907C76.6925 82.0636 76.5877 81.9554 76.464 81.9554Z" fill="white"/>
<path fill-rule="evenodd" clip-rule="evenodd" d="M76.464 88.0543H26.2536C26.1264 88.0543 26.025 88.1557 26.025 88.2811V91.3581C26.025 91.48 26.1281 91.5848 26.2536 91.5848H76.464C76.5877 91.5848 76.6925 91.4817 76.6925 91.3581V88.2811C76.6925 88.1557 76.5877 88.0543 76.464 88.0543Z" fill="white"/>
<path fill-rule="evenodd" clip-rule="evenodd" d="M66.9085 62.4044C66.2813 61.9148 64.606 60.7689 62.5646 60.7689C61.1058 60.7689 59.7501 61.3427 58.5335 62.4817C58.4476 62.5642 58.3978 62.6759 58.3978 62.7979V63.071C58.3978 63.2067 58.4425 63.3304 58.5438 63.4129C58.6504 63.4954 58.7655 63.5263 58.8944 63.4954C58.9253 63.4919 58.9597 63.4816 58.9906 63.4713C59.0834 63.4387 59.1693 63.3837 59.2415 63.3133C59.5061 63.1363 60.2261 62.8941 61.2519 62.8941C62.2777 62.8941 64.4067 63.1792 66.4274 65.0622L66.4721 65.1034C66.5872 65.2185 66.7418 65.2855 66.9085 65.2855C67.0666 65.2855 67.2315 65.2185 67.3329 65.1069L67.3759 65.0656C69.4052 63.1793 71.4912 62.8941 72.5549 62.8941C73.6185 62.8941 74.3058 63.1363 74.5704 63.3133C74.6426 63.3837 74.7302 63.4404 74.847 63.4833C74.8917 63.4971 75.0189 63.5228 75.1426 63.4919C75.3265 63.4404 75.4588 63.272 75.4588 63.0779V62.8357C75.4588 62.7205 75.4089 62.6054 75.323 62.5247C74.0979 61.3564 72.725 60.7654 71.2421 60.7654C69.2196 60.7654 67.5529 61.8942 66.9068 62.4027L66.9085 62.4044Z" fill="white"/>
<path fill-rule="evenodd" clip-rule="evenodd" d="M63.7932 42.3965C63.685 42.4446 63.6094 42.5425 63.5767 42.6611L63.5234 42.8294C63.4874 42.96 63.5114 43.1009 63.5904 43.2074C63.666 43.3088 63.7795 43.3706 63.9015 43.3758C63.9255 43.3775 63.9462 43.3844 63.9651 43.3775C64.051 43.3758 64.13 43.3569 64.2073 43.3156C64.252 43.3088 64.3431 43.2813 64.5098 43.2813C64.7348 43.2813 66.759 43.35 68.0959 45.6246L68.1147 45.6556C68.1869 45.7879 68.2986 45.8789 68.4344 45.9133C68.4722 45.9253 68.546 45.9373 68.5942 45.9373C68.6869 45.9373 68.7797 45.9133 68.8467 45.8755L68.8811 45.8583C69.6148 45.4924 70.3709 45.3051 71.1218 45.3051C72.3899 45.3051 73.2181 45.8222 73.4123 46.037C73.4501 46.1108 73.5119 46.1761 73.5789 46.2242C73.6219 46.25 73.6975 46.2878 73.7439 46.3033C73.7662 46.3084 73.792 46.3101 73.8178 46.3136C73.8298 46.317 73.847 46.317 73.8607 46.317C73.9295 46.317 73.9965 46.2981 74.0618 46.2655C74.1649 46.2156 74.2405 46.1194 74.2749 46.0095L74.3178 45.8617C74.3298 45.8239 74.335 45.7827 74.335 45.738C74.335 45.6607 74.3161 45.5851 74.2783 45.5233C73.3023 43.831 71.8847 43.4771 70.8709 43.4771C70.1166 43.4771 69.455 43.673 69.065 43.8156C68.6045 43.1971 67.4412 41.9172 65.6782 41.9172C65.0579 41.9172 64.4238 42.0769 63.7932 42.3948V42.3965Z" fill="white"/>
<path fill-rule="evenodd" clip-rule="evenodd" d="M53.1828 50.1189L53.1965 50.3457C53.2033 50.4866 53.2773 50.6086 53.3975 50.6842C53.4972 50.746 53.6244 50.7683 53.736 50.7357C53.7601 50.7305 53.7893 50.722 53.8099 50.7134C53.8958 50.6773 53.9697 50.6223 54.0247 50.5519C54.2395 50.399 54.9268 50.1189 55.9406 50.1189C56.9544 50.1189 58.3995 50.3783 59.9116 51.6188L59.9477 51.6548C60.0542 51.7493 60.1934 51.8009 60.3343 51.8009H60.3721C60.5267 51.7888 60.6745 51.7167 60.7656 51.6119L60.7999 51.5741C62.4736 49.8045 64.2744 49.54 65.2005 49.54C65.8604 49.54 66.3278 49.6757 66.5099 49.7788C66.5786 49.8389 66.6628 49.8853 66.771 49.9145C66.802 49.9214 66.8759 49.9351 66.9549 49.9265C66.9876 49.9231 67.0288 49.911 67.0597 49.9007C67.2384 49.8389 67.3587 49.6637 67.3467 49.4695L67.3346 49.2702C67.3261 49.1551 67.2728 49.0486 67.1835 48.9713C66.1834 48.1312 65.106 47.7086 63.972 47.7086C62.2038 47.7086 60.7965 48.7514 60.2106 49.2634C59.6779 48.8991 58.384 48.1501 56.8633 48.1501C55.5265 48.1501 54.3289 48.705 53.303 49.7959C53.2188 49.8818 53.1793 49.9987 53.1845 50.1155L53.1828 50.1189Z" fill="white"/>
<path fill-rule="evenodd" clip-rule="evenodd" d="M27.7725 54.1494C27.7725 51.1429 30.2108 48.7067 33.2178 48.7067C33.3347 48.7067 33.4498 48.717 33.5666 48.7239C33.8536 44.9202 37.0221 41.9189 40.9021 41.9189C44.782 41.9189 48.2667 45.2175 48.2667 49.284C48.2667 50.4368 47.9952 51.5208 47.521 52.4932C51.2084 53.3093 53.968 56.5907 53.968 60.5198C53.968 65.0656 50.284 68.7508 45.7356 68.7508C45.404 68.7508 34.7505 68.6855 34.7505 68.6855C31.5322 68.6855 28.9238 66.0775 28.9238 62.8597C28.9238 61.3135 29.5286 59.9133 30.5115 58.8705C28.8757 57.9307 27.7691 56.1715 27.7691 54.1494H27.7725Z" fill="white"/>
<path fill-rule="evenodd" clip-rule="evenodd" d="M37.7919 9.49146L36.1836 17.9406H34.6388L33.0323 9.49146H34.4773L35.4482 15.3859H35.4602L36.4585 9.49146H37.7919Z" fill="white"/>
<path d="M39.9243 9.49146H38.5033V17.9406H39.9243V9.49146Z" fill="white"/>
<path fill-rule="evenodd" clip-rule="evenodd" d="M45.1222 11.7609V15.6729C45.1222 16.97 44.5844 17.9406 43.0654 17.9406H40.8711V9.49146H43.0654C44.5844 9.49146 45.1222 10.4518 45.1222 11.7592V11.7609ZM42.8901 16.7827C43.4743 16.7827 43.7012 16.4339 43.7012 15.922V11.4981C43.7012 10.9999 43.4743 10.6494 42.8901 10.6494H42.2939V16.7827H42.8901Z" fill="white"/>
<path fill-rule="evenodd" clip-rule="evenodd" d="M45.8319 17.9406L47.4264 9.49146H49.0485L50.6551 17.9406H49.1963L48.9351 16.3961H47.4264L47.1773 17.9406H45.8301H45.8319ZM47.6137 15.2622H48.7478L48.1859 11.8726H48.1739L47.612 15.2622H47.6137Z" fill="white"/>
<path fill-rule="evenodd" clip-rule="evenodd" d="M33.0683 21.9058H36.8451V23.0637H35.6733V30.3532H34.2402V23.0637H33.0683V21.9058Z" fill="white"/>
<path fill-rule="evenodd" clip-rule="evenodd" d="M37.4809 21.9058H40.8728V23.0637H38.9019V25.4827H40.3109V26.6286H38.9019V29.1953H40.8728V30.3532H37.4809V21.9058Z" fill="white"/>
<path fill-rule="evenodd" clip-rule="evenodd" d="M43.0276 26.4791V30.3549H41.6065V21.9058H43.6754C45.1084 21.9058 45.6342 22.6153 45.6342 23.8007V24.8848C45.6342 25.7936 45.3095 26.3296 44.5002 26.5169L45.8559 30.3549H44.361L43.0276 26.4791ZM43.0276 23.0637V25.694H43.5001C43.9847 25.694 44.1995 25.4449 44.1995 24.9965V23.7509C44.1995 23.2905 43.9847 23.0637 43.5001 23.0637H43.0276Z" fill="white"/>
<path fill-rule="evenodd" clip-rule="evenodd" d="M47.7907 26.4791V30.3549H46.3679V21.9058H48.4385C49.8716 21.9058 50.3939 22.6153 50.3939 23.8007V24.8848C50.3939 25.7936 50.0709 26.3296 49.2598 26.5169L50.619 30.3549H49.1241L47.7907 26.4791ZM47.7907 23.0637V25.694H48.2632C48.7478 25.694 48.9609 25.4449 48.9609 24.9965V23.7509C48.9609 23.2905 48.7478 23.0637 48.2632 23.0637H47.7907Z" fill="white"/>
<path fill-rule="evenodd" clip-rule="evenodd" d="M51.1431 21.9058H54.5316V23.0637H52.5641V25.4827H53.9731V26.6286H52.5641V29.1953H54.5316V30.3532H51.1431V21.9058Z" fill="white"/>
<path fill-rule="evenodd" clip-rule="evenodd" d="M55.1931 28.5356V27.4017H56.5128V28.5614C56.5128 29.0355 56.7259 29.3104 57.2121 29.3104C57.6589 29.3104 57.86 29.0098 57.86 28.5614V28.2384C57.86 27.7522 57.6589 27.4532 57.2242 27.0426L56.3891 26.2077C55.5798 25.4105 55.2052 24.926 55.2052 23.9519V23.665C55.2052 22.6188 55.8169 21.8079 57.2018 21.8079C58.5868 21.8079 59.1813 22.5054 59.1813 23.7269V24.4124H57.8874V23.677C57.8874 23.1909 57.6606 22.9555 57.2139 22.9555C56.8152 22.9555 56.5403 23.1806 56.5403 23.653V23.8282C56.5403 24.3007 56.7998 24.5739 57.2139 24.9742L58.1229 25.871C58.8944 26.6561 59.2689 27.1285 59.2689 28.0649V28.4772C59.2689 29.6351 58.6452 30.458 57.2018 30.458C55.7585 30.458 55.1931 29.6489 55.1931 28.539V28.5356Z" fill="white"/>
<path fill-rule="evenodd" clip-rule="evenodd" d="M59.8188 21.9058H63.5939V23.0637H62.4221V30.3532H60.989V23.0637H59.8188V21.9058Z" fill="white"/>
<path fill-rule="evenodd" clip-rule="evenodd" d="M65.6524 26.4791V30.3549H64.2314V21.9058H66.3002C67.7333 21.9058 68.2557 22.6153 68.2557 23.8007V24.8848C68.2557 25.7936 67.9326 26.3296 67.1216 26.5169L68.4808 30.3549H66.9858L65.6524 26.4791ZM65.6524 23.0637V25.694H66.1249C66.6129 25.694 66.8226 25.4449 66.8226 24.9965V23.7509C66.8226 23.2905 66.6129 23.0637 66.1249 23.0637H65.6524Z" fill="white"/>
<path fill-rule="evenodd" clip-rule="evenodd" d="M68.9945 21.9058H72.383V23.0637H70.4139V25.4827H71.8211V26.6286H70.4139V29.1953H72.383V30.3532H68.9945V21.9058Z" fill="white"/>
</svg>
