<svg width="105" height="105" viewBox="0 0 105 105" fill="none" xmlns="http://www.w3.org/2000/svg">
<path d="M104.11 0.827515H0.695984V104.224H104.11V0.827515Z" fill="#743115"/>
<path d="M36.2631 9.47083H34.8421V17.9217H36.2631V9.47083Z" fill="white"/>
<path fill-rule="evenodd" clip-rule="evenodd" d="M39.5261 13.4085H41.5452V17.9217H40.5211V16.9991C40.3355 17.6348 39.9368 18.0213 39.1636 18.0213C37.9419 18.0213 37.38 17.0489 37.38 15.7398V11.6527C37.38 10.3315 38.0158 9.37286 39.5107 9.37286C41.0812 9.37286 41.5435 10.2456 41.5435 11.4912V12.2385H40.2479V11.3795C40.2479 10.8572 40.0485 10.5583 39.5365 10.5583C39.0244 10.5583 38.8011 10.9191 38.8011 11.4293V15.9666C38.8011 16.4768 39.0123 16.8376 39.4986 16.8376C39.9849 16.8376 40.1963 16.5765 40.1963 16.0284V14.532H39.5245V13.4102L39.5261 13.4085Z" fill="white"/>
<path fill-rule="evenodd" clip-rule="evenodd" d="M46.6056 9.47083V15.8635C46.6056 17.1727 46.0454 18.0196 44.6003 18.0196C43.1552 18.0196 42.4817 17.1727 42.4817 15.8635V9.47083H43.9009V16.001C43.9009 16.4992 44.102 16.8359 44.6003 16.8359C45.0986 16.8359 45.2979 16.5009 45.2979 16.001V9.47083H46.6056Z" fill="white"/>
<path fill-rule="evenodd" clip-rule="evenodd" d="M47.4887 17.9217L49.0834 9.47083H50.7038L52.3121 17.9217H50.8532L50.592 16.3755H49.0834L48.8342 17.9217H47.4887ZM49.2706 15.2416H50.4031L49.8428 11.852H49.8291L49.269 15.2416H49.2706Z" fill="white"/>
<path fill-rule="evenodd" clip-rule="evenodd" d="M53.0217 9.47083H54.4444V16.7621H56.1387V17.9217H53.0217V9.47083Z" fill="white"/>
<path fill-rule="evenodd" clip-rule="evenodd" d="M61.163 11.7403V15.654C61.163 16.9493 60.6252 17.9217 59.1062 17.9217H56.912V9.47083H59.1062C60.6252 9.47083 61.163 10.4312 61.163 11.7386V11.7403ZM58.9292 16.7621C59.5169 16.7621 59.7403 16.4133 59.7403 15.9031V11.4792C59.7403 10.981 59.5151 10.6322 58.9292 10.6322H58.333V16.7638H58.9292V16.7621Z" fill="white"/>
<path fill-rule="evenodd" clip-rule="evenodd" d="M61.871 17.9217L63.469 9.47083H65.0877L66.6976 17.9217H65.2389L64.9759 16.3755H63.469L63.2181 17.9217H61.871ZM63.6545 15.2416H64.7886L64.2268 11.852H64.213L63.6545 15.2416Z" fill="white"/>
<path fill-rule="evenodd" clip-rule="evenodd" d="M71.6584 11.7403V15.654C71.6584 16.9493 71.1206 17.9217 69.6016 17.9217H67.4073V9.47083H69.6016C71.1206 9.47083 71.6584 10.4312 71.6584 11.7386V11.7403ZM69.4246 16.7621C70.0122 16.7621 70.2357 16.4133 70.2357 15.9031V11.4792C70.2357 10.981 70.0105 10.6322 69.4246 10.6322H68.8284V16.7638H69.4246V16.7621Z" fill="white"/>
<path fill-rule="evenodd" clip-rule="evenodd" d="M72.5931 9.47083H75.985V10.6305H74.0124V13.0477H75.4232V14.1936H74.0124V16.7621H75.985V17.9217H72.5931V9.47083Z" fill="white"/>
<path fill-rule="evenodd" clip-rule="evenodd" d="M39.2546 21.9556H43.0314V23.1153H41.8596V30.4048H40.4265V23.1153H39.2546V21.9556Z" fill="white"/>
<path fill-rule="evenodd" clip-rule="evenodd" d="M34.8747 21.9556H38.2649V23.1153H36.2958V25.5325H37.7047V26.6784H36.2958V29.2451H38.2649V30.4048H34.8747V21.9556Z" fill="white"/>
<path fill-rule="evenodd" clip-rule="evenodd" d="M45.1948 25.0961V30.4048H43.9989V21.9556H45.3959L46.9268 26.8021V21.9556H48.1125V30.4048H46.865L45.1948 25.0961Z" fill="white"/>
<path d="M50.4476 21.9556H49.0266V30.4065H50.4476V21.9556Z" fill="white"/>
<path fill-rule="evenodd" clip-rule="evenodd" d="M51.4288 28.2229V24.1358C51.4288 22.8146 52.0526 21.856 53.5475 21.856C55.118 21.856 55.5527 22.7287 55.5527 23.9743V24.9707H54.2571V23.8609C54.2571 23.3386 54.0836 23.0397 53.5716 23.0397C53.0595 23.0397 52.8498 23.4022 52.8498 23.9124V28.448C52.8498 28.9599 53.0612 29.3207 53.5716 29.3207C54.0819 29.3207 54.2571 28.996 54.2571 28.4978V26.9396H55.5527V28.3981C55.5527 29.6059 55.0544 30.5044 53.5475 30.5044C52.0405 30.5044 51.4288 29.5337 51.4288 28.2229Z" fill="white"/>
<path fill-rule="evenodd" clip-rule="evenodd" d="M56.5562 28.2246V24.1375C56.5562 22.8163 57.204 21.856 58.6989 21.856C60.1939 21.856 60.8554 22.8163 60.8554 24.1375V28.2246C60.8554 29.532 60.2076 30.5044 58.6989 30.5044C57.1903 30.5044 56.5562 29.532 56.5562 28.2246ZM59.4343 28.448V23.9107C59.4343 23.3987 59.2093 23.0397 58.6989 23.0397C58.1886 23.0397 57.9772 23.4005 57.9772 23.9107V28.448C57.9772 28.9582 58.2024 29.3207 58.6989 29.3207C59.1955 29.3207 59.4343 28.9582 59.4343 28.448Z" fill="white"/>
<path fill-rule="evenodd" clip-rule="evenodd" d="M37.856 21.3749L35.6256 21.6618V20.8647L37.856 20.3905V21.3749Z" fill="white"/>
<path d="M63.8658 25.6081H61.8709V26.754H63.8658V25.6081Z" fill="white"/>
<path fill-rule="evenodd" clip-rule="evenodd" d="M66.0412 26.5856V30.4615H64.6202V22.0123H66.689C68.1238 22.0123 68.6479 22.7218 68.6479 23.9055V24.9913C68.6479 25.9018 68.3231 26.4361 67.5138 26.6234L68.873 30.4615H67.378L66.0429 26.5856H66.0412ZM66.0412 23.1719V25.8022H66.5172C67.0017 25.8022 67.2148 25.5531 67.2148 25.103V23.8574C67.2148 23.397 67.0017 23.1719 66.5172 23.1719H66.0412Z" fill="white"/>
<path fill-rule="evenodd" clip-rule="evenodd" d="M69.9538 30.4632L71.5518 22.014H73.1705L74.7805 30.4632H73.3217L73.0587 28.917H71.5518L71.3027 30.4632H69.9538ZM71.7374 27.7814H72.8715L72.3096 24.3935H72.2976L71.7357 27.7814H71.7374Z" fill="white"/>
<path fill-rule="evenodd" clip-rule="evenodd" d="M75.3115 28.1816V24.0945C75.3115 22.7734 75.9351 21.8147 77.4301 21.8147C79.0006 21.8147 79.4354 22.6857 79.4354 23.933V24.9295H78.138V23.8196C78.138 23.2956 77.9645 22.9984 77.4525 22.9984C76.9404 22.9984 76.7307 23.3609 76.7307 23.8694V28.4067C76.7307 28.9187 76.9404 29.2795 77.4525 29.2795C77.9645 29.2795 78.138 28.9565 78.138 28.4565V26.8983H79.4354V28.3569C79.4354 29.5646 78.9387 30.4632 77.4301 30.4632C75.9214 30.4632 75.3115 29.4908 75.3115 28.1816Z" fill="white"/>
<path d="M81.9166 21.8817H80.4715V30.4632H81.9166V21.8817Z" fill="white"/>
<path fill-rule="evenodd" clip-rule="evenodd" d="M82.6846 30.4632L84.2827 22.014H85.9013L87.5114 30.4632H86.0525L85.7897 28.917H84.2827L84.0335 30.4632H82.6846ZM84.4683 27.7814H85.6023L85.0404 24.3935H85.0284L84.4665 27.7814H84.4683Z" fill="white"/>
<path fill-rule="evenodd" clip-rule="evenodd" d="M88.5441 21.8817H89.9857V29.2846H91.7075V30.4632H88.5441V21.8817Z" fill="white"/>
<path fill-rule="evenodd" clip-rule="evenodd" d="M27.9792 24.7663V22.4916C27.9792 20.4936 27.2712 19.047 25.644 18.31C27.0272 17.6348 27.6733 16.4064 27.6733 14.6833V13.8208C27.6733 10.5618 25.9825 8.80939 22.7521 8.80939C19.5217 8.80939 17.8944 10.56 17.8944 13.8208V14.6833C17.8944 16.3755 18.5079 17.6348 19.8602 18.31C18.2313 19.047 17.556 20.4936 17.556 22.4916V24.7663C17.556 27.9343 19.0629 30.1471 22.7521 30.1471C26.4413 30.1471 27.9792 27.9343 27.9792 24.7663ZM21.1833 13.6078C21.1833 12.3451 21.6163 11.6063 22.7521 11.6063C23.8879 11.6063 24.3518 12.3433 24.3518 13.6078V15.02C24.3518 16.281 23.9188 17.0215 22.7521 17.0215C21.5853 17.0215 21.1833 16.281 21.1833 15.02V13.6078ZM24.4738 25.1356C24.4738 26.3984 24.0133 27.29 22.7521 27.29C21.4908 27.29 21.0613 26.3984 21.0613 25.1356V21.7529C21.0613 20.4936 21.5218 19.6019 22.7521 19.6019C23.9824 19.6019 24.4738 20.4936 24.4738 21.7529V25.1356Z" fill="white"/>
<path fill-rule="evenodd" clip-rule="evenodd" d="M15.018 9.05676V29.9014H11.511V13.9445H11.4801L9.02119 16.4957H8.99023V12.8381L12.2189 9.05676H15.018Z" fill="white"/>
<path d="M53.5647 40.2644C54.3998 37.9073 52.5285 36.3611 51.9014 34.4283C51.7244 34.6895 51.7742 35.0004 51.6436 35.1413C49.5885 37.361 51.4202 40.1613 50.5233 42.57C50.2209 43.3826 50.3412 44.3533 50.2673 45.2518C51.5887 43.7228 55.0218 43.5441 53.5647 40.2644Z" fill="white"/>
<path d="M36.4556 52.1204C35.6187 53.8539 34.8799 55.3881 34.1119 56.979C35.2597 57.3037 36.1961 57.5682 37.2014 57.8517C36.7048 59.0526 36.2546 60.1401 35.7906 61.2637C36.9849 61.6142 37.5982 61.3083 38.0725 60.2088C39.0055 58.0476 40.6499 56.5684 43.028 55.7248C42.4713 57.2899 41.8545 58.6334 41.5314 60.0456C41.2067 61.463 41.205 62.9439 42.193 64.3114C42.8906 62.4233 41.8115 60.0886 43.5968 58.4307C43.6982 58.6094 43.8219 58.7262 43.8288 58.8499C43.98 61.6365 44.2395 64.3681 46.817 66.1772C46.951 66.2717 46.8857 66.6514 46.9149 66.897C47.4269 71.1989 45.987 74.6968 42.5865 77.3803C41.961 77.8734 41.2702 78.2823 40.6585 78.7908C37.5192 81.4091 37.4643 84.3881 40.7342 86.8483C42.5814 88.2382 44.621 89.5147 46.7671 90.3376C52.1849 92.4095 57.7109 94.1962 63.1958 96.0963C63.7164 96.2767 64.2439 96.4382 65.0206 96.6925C64.7474 95.8936 64.5979 95.428 64.4295 94.9676C63.1391 91.4749 61.9139 87.9564 60.5289 84.5015C59.5444 82.0464 59.8691 79.8027 60.9551 77.4851C62.005 75.2448 62.9363 72.941 63.7834 70.6148C64.9003 67.5482 66.0843 66.7184 69.337 66.8455C70.6704 66.897 72.0381 66.9073 73.344 66.6806C75.3321 66.3335 75.7307 65.6566 75.5366 63.6758C75.497 63.2823 75.3407 62.7944 75.5057 62.5058C76.2875 61.1486 77.1931 59.8446 75.6586 58.4169C76.4748 56.881 75.4799 56.0478 74.375 55.3262C75.6363 53.1152 75.5263 52.6857 73.1877 51.636C71.093 50.6945 70.1394 49.0864 69.9573 46.8616C69.7356 44.1574 68.507 41.9378 66.4915 40.1407C64.6873 38.5327 64.6099 38.5327 62.6717 39.9449C62.5291 40.0497 62.316 40.0583 62.1356 40.1133L62.151 40.1304L62.1613 40.1425C62.1132 40.1751 62.0651 40.206 62.0187 40.2387C60.4018 41.9567 58.7282 43.6231 57.192 45.4099C52.3567 51.0346 49.0352 57.4703 47.1228 64.6361C47.0592 64.8715 46.9407 65.0931 46.8032 65.4333C44.8942 61.8409 44.5127 58.3671 46.4699 54.749C48.5473 50.911 51.4512 47.7962 54.8328 45.147C57.1113 43.362 59.6114 41.8605 62.0187 40.2404C62.0479 40.2095 62.0772 40.1785 62.1064 40.1476C61.6338 40.1768 61.1167 40.1064 60.706 40.2816C54.2469 43.0596 49.5215 47.7567 45.9372 53.7062C45.3443 54.6906 44.7429 55.6698 43.9646 56.9515C44.0745 56.0427 44.1364 55.5187 44.2051 54.9569C43.2996 54.7765 42.5005 54.6167 41.5383 54.4226C42.9593 52.9794 44.2532 51.6875 45.5161 50.3646C45.7825 50.0846 46.0746 49.7152 46.121 49.3579C46.3083 47.8769 46.3547 46.3788 46.5626 44.9031C46.6331 44.4083 47.0283 43.9582 47.3032 43.4307C46.8788 43.3362 46.3616 43.2211 45.9681 43.1335C45.6502 45.2312 45.3495 47.2121 45.0488 49.1947C44.944 49.1758 44.8375 49.1586 44.7327 49.1397C45.0488 46.9664 45.3667 44.7948 45.6863 42.6027C46.298 42.5545 46.9716 42.5013 47.6469 42.4497C47.6417 42.314 47.6365 42.1783 47.6314 42.0426C46.6846 41.991 45.7395 41.9395 44.7068 41.8845C44.8838 44.4478 44.9114 47.2825 43.4766 49.3802C43.1656 49.8355 42.6998 49.7891 42.205 50.1172C41.4678 49.6516 41.8184 49.7599 41.6122 49.2771C41.5452 49.1225 41.3991 48.2068 41.2222 47.8117C41.0142 48.3975 40.8957 48.7274 40.7788 49.0589C40.595 48.3631 40.851 47.5282 40.5452 47.0471C39.7771 45.8359 39.6327 44.7914 40.4575 43.5647C40.6465 43.283 40.5434 42.5202 40.2909 42.2797C39.5932 41.6182 39.5399 41.0101 40.143 40.3452C40.7668 39.6597 41.1586 38.7612 42.535 39.2731C44.456 39.9878 46.5179 40.3263 48.7088 40.8709C48.8256 39.9981 48.9442 39.3779 48.9837 38.7526C49.0335 37.94 49.0284 37.1978 47.927 36.9556C44.8048 36.2701 41.6998 35.5038 38.5124 34.7513C38.7512 35.8732 39.0313 37.1892 39.3234 38.5585C37.7219 38.8196 36.2219 39.0636 34.5913 39.3281C35.1377 40.4929 35.6308 41.5409 36.1205 42.5838C34.8593 43.3002 33.7373 43.9393 32.6015 44.5852C33.9469 45.6143 35.1084 46.5025 36.3232 47.4337C35.0397 49.0435 33.9228 50.4454 32.5859 52.1221H36.4642L36.4556 52.1204ZM68.2991 50.3251C68.9091 50.1138 69.3679 49.7685 69.6943 49.4558L70.2357 50.3354C69.8611 50.5948 69.3078 50.8989 68.5964 51.0364C66.6358 51.4126 64.945 50.2289 64.9845 50.1155C65.0206 50.009 66.6014 50.9127 68.2974 50.3251H68.2991ZM54.0544 62.8975H57.8398V70.5083H54.0544V62.8975ZM50.2862 59.8841C51.2931 61.8358 52.465 60.5507 53.3757 60.5627C53.1987 61.4905 52.8997 62.3924 52.8774 63.3012C52.8104 65.9796 52.8533 68.6597 52.8533 71.491H58.6972C59.2265 69.7369 59.0564 61.9887 58.455 60.805C59.443 60.6229 60.6733 61.8461 61.4328 59.7398V73.8069C57.9258 73.8069 54.5029 73.8292 51.0817 73.7656C50.8102 73.7605 50.3223 73.166 50.3188 72.8396C50.2673 68.6683 50.2844 64.4953 50.2844 59.8841H50.2862ZM41.7136 38.0963C43.7583 38.5653 45.8014 39.0343 47.8462 39.5034L47.7156 40.0291C45.6794 39.5291 43.6415 39.0292 41.6053 38.5292C41.6414 38.3849 41.6775 38.2423 41.7136 38.098V38.0963Z" fill="white"/>
</svg>
