<svg width="105" height="105" viewBox="0 0 105 105" fill="none" xmlns="http://www.w3.org/2000/svg">
<path d="M104.26 0.836121H0.85968V104.224H104.26V0.836121Z" fill="#0A3E62"/>
<path fill-rule="evenodd" clip-rule="evenodd" d="M16.3313 9.50006V30.3447H12.8259V14.3878H12.7951L10.3362 16.939H10.3052V13.2831L13.5339 9.50006H16.3313Z" fill="white"/>
<path fill-rule="evenodd" clip-rule="evenodd" d="M17.9293 9.50006H26.7252V12.7282L22.1443 30.3447H18.6681L23.3402 12.3588H17.9293V9.50006Z" fill="white"/>
<path fill-rule="evenodd" clip-rule="evenodd" d="M78.8396 63.5383C78.8396 56.278 73.0627 50.3475 65.8647 50.0846C64.0158 44.8584 59.0224 41.1028 53.1682 41.1028C47.3139 41.1028 42.324 44.8567 40.4716 50.0846C33.2771 50.3475 27.5019 56.2797 27.5019 63.5383C27.5019 67.8488 29.5364 71.6869 32.6981 74.1539C32.3544 75.3411 32.1654 76.5952 32.1654 77.8923C32.1654 85.3141 38.2069 91.3564 45.6334 91.3564C48.4514 91.3564 51.0684 90.4836 53.2352 88.9993C55.3745 90.4304 57.945 91.267 60.7081 91.267C68.1328 91.267 74.1744 85.2265 74.1744 77.8047C74.1744 76.5351 73.9957 75.305 73.6658 74.1402C76.8103 71.6731 78.8413 67.8402 78.8413 63.5401L78.8396 63.5383ZM63.9264 54.5686C63.9264 59.958 59.9365 64.4197 54.7559 65.1911C54.6699 64.6499 54.615 64.1001 54.615 63.5383C54.615 58.1489 58.6049 53.6838 63.7856 52.9142C63.8698 53.4536 63.9264 54.0051 63.9264 54.5686ZM53.218 85.5048C51.2042 83.5497 49.9481 80.8215 49.9481 77.8013C49.9481 74.781 51.1629 72.1318 53.12 70.1853C55.1304 72.1404 56.39 74.8703 56.39 77.8906C56.39 80.9109 55.1768 83.5566 53.2197 85.5048H53.218ZM42.5525 52.9124C47.7314 53.6838 51.7248 58.1472 51.7248 63.5383C51.7248 64.1001 51.6647 64.6516 51.5822 65.1911C46.4015 64.4197 42.4116 59.958 42.4116 54.5686C42.4116 54.0034 42.4683 53.4536 42.5525 52.9124ZM50.5719 68.3488C48.802 71.8655 45.1677 74.2931 40.9665 74.2931C39.1846 74.2931 37.5059 73.8498 36.0247 73.0802C37.7946 69.56 41.4305 67.1359 45.6317 67.1359C47.4136 67.1359 49.0924 67.5791 50.5701 68.3488H50.5719ZM55.7302 68.2766C57.22 67.4949 58.9108 67.0465 60.7064 67.0465C64.9334 67.0465 68.5899 69.505 70.3477 73.063C68.858 73.8447 67.1671 74.2931 65.3732 74.2931C61.1411 74.2931 57.4846 71.8346 55.7302 68.2766ZM53.1682 43.8139C57.5773 43.8139 61.3696 46.4785 63.0278 50.2805C58.653 51.0518 55.0016 53.9398 53.1682 57.8483C51.3399 53.9398 47.6851 51.0518 43.3103 50.2805C44.9702 46.4802 48.7625 43.8139 53.1682 43.8139ZM30.2117 63.5383C30.2117 57.996 34.4249 53.4244 39.8135 52.8472C39.7414 53.409 39.7019 53.9845 39.7019 54.5686C39.7019 58.5028 41.4013 62.0505 44.1007 64.5142C39.6349 65.0227 35.8237 67.72 33.7755 71.5116C31.595 69.5428 30.2117 66.7012 30.2117 63.5383ZM34.8769 77.8906C34.8769 77.1261 34.9577 76.3805 35.1106 75.6623C36.8822 76.5213 38.8685 77.0024 40.9665 77.0024C43.324 77.0024 45.5389 76.3925 47.4686 75.3239C47.3208 76.1279 47.2366 76.9543 47.2366 77.8013C47.2366 81.4383 48.6903 84.7403 51.0426 87.1661C49.4498 88.0973 47.6044 88.6436 45.6317 88.6436C39.7002 88.6436 34.8752 83.8194 34.8752 77.8906H34.8769ZM71.4629 77.8013C71.4629 83.7301 66.6397 88.5526 60.7064 88.5526C58.775 88.5526 56.9691 88.0354 55.402 87.1421C57.689 84.7283 59.1014 81.4692 59.1014 77.8889C59.1014 77.0075 59.0121 76.1468 58.8489 75.3136C60.7837 76.389 63.0071 77.0007 65.3732 77.0007C67.4764 77.0007 69.468 76.5162 71.2447 75.6503C71.3874 76.3444 71.4629 77.0642 71.4629 77.7995V77.8013ZM62.3216 64.4351C64.9729 61.9732 66.6396 58.4616 66.6396 54.5686C66.6396 53.9845 66.5967 53.409 66.5245 52.8472C71.9148 53.4244 76.1264 57.9978 76.1264 63.5383C76.1264 66.6875 74.7604 69.5153 72.5953 71.4824C70.5677 67.6856 66.7754 64.9694 62.3216 64.4351Z" fill="white"/>
<path fill-rule="evenodd" clip-rule="evenodd" d="M31.2805 9.47595H33.3889C34.8219 9.47595 35.3443 10.1855 35.3443 11.3692V13.1525C35.3443 14.3362 34.8219 15.0595 33.3889 15.0595H32.7032V17.9251H31.2805V9.47595ZM32.705 10.6339V13.9617H33.2256C33.7119 13.9617 33.9249 13.7246 33.9249 13.2642V11.3194C33.9249 10.8589 33.7119 10.6339 33.2256 10.6339H32.705Z" fill="white"/>
<path fill-rule="evenodd" clip-rule="evenodd" d="M35.5436 17.9251L37.1416 9.47595H38.7603L40.3703 17.9251H38.9114L38.6486 16.3789H37.1416L36.8924 17.9251H35.5436ZM37.3272 15.245H38.4613L37.8994 11.8571H37.8873L37.3255 15.245H37.3272Z" fill="white"/>
<path fill-rule="evenodd" clip-rule="evenodd" d="M42.0629 14.0493V17.9251H40.6453V9.47595H42.7141C44.1472 9.47595 44.6695 10.1855 44.6695 11.3692V12.455C44.6695 13.3655 44.3447 13.8998 43.5354 14.0871L44.8946 17.9251H43.3997L42.0645 14.0493H42.0629ZM42.0629 10.6339V13.2642H42.5388C43.0234 13.2642 43.2365 13.0151 43.2365 12.5649V11.3194C43.2365 10.8589 43.0234 10.6339 42.5388 10.6339H42.0629Z" fill="white"/>
<path fill-rule="evenodd" clip-rule="evenodd" d="M45.1317 15.745V11.6579C45.1317 10.3367 45.7555 9.37805 47.2504 9.37805C48.8209 9.37805 49.2557 10.2491 49.2557 11.4964V12.4928H47.9584V11.383C47.9584 10.859 47.7848 10.5618 47.2727 10.5618C46.7607 10.5618 46.551 10.9243 46.551 11.4328V15.9701C46.551 16.482 46.7607 16.8428 47.2727 16.8428C47.7848 16.8428 47.9584 16.5198 47.9584 16.0199V14.4616H49.2557V15.9202C49.2557 17.128 48.7591 18.0265 47.2504 18.0265C45.7418 18.0265 45.1317 17.0541 45.1317 15.745Z" fill="white"/>
<path fill-rule="evenodd" clip-rule="evenodd" d="M49.7179 9.47595H53.1081V10.6339H51.1407V13.0529H52.5462V14.1988H51.1407V16.7672H53.1081V17.9251H49.7179V9.47595Z" fill="white"/>
<path fill-rule="evenodd" clip-rule="evenodd" d="M54.9776 14.0493V17.9251H53.5565V9.47595H55.6254C57.0601 9.47595 57.5843 10.1855 57.5843 11.3692V12.455C57.5843 13.3655 57.2595 13.8998 56.4502 14.0871L57.8093 17.9251H56.3144L54.9793 14.0493H54.9776ZM54.9776 10.6339V13.2642H55.4535C55.9381 13.2642 56.1512 13.0151 56.1512 12.5649V11.3194C56.1512 10.8589 55.9381 10.6339 55.4535 10.6339H54.9776Z" fill="white"/>
<path d="M59.4538 9.47595H58.0327V17.9251H59.4538V9.47595Z" fill="white"/>
<path fill-rule="evenodd" clip-rule="evenodd" d="M59.7407 17.9251L61.3352 9.47595H62.9573L64.5674 17.9251H63.1086L62.8456 16.3789H61.337L61.0878 17.9251H59.7407ZM61.5208 15.245H62.6549L62.093 11.8571H62.081L61.5191 15.245H61.5208Z" fill="white"/>
<path fill-rule="evenodd" clip-rule="evenodd" d="M64.765 16.1058V14.9719H66.0864V16.1316C66.0864 16.604 66.2994 16.8789 66.784 16.8789C67.2324 16.8789 67.4335 16.58 67.4335 16.1316V15.8068C67.4335 15.3224 67.2325 15.0234 66.796 14.6111L65.9626 13.7762C65.1533 12.979 64.7787 12.4928 64.7787 11.5221V11.2352C64.7787 10.1872 65.3904 9.37805 66.772 9.37805C68.1535 9.37805 68.7549 10.0756 68.7549 11.2971V11.9808H67.4576V11.2472C67.4576 10.7611 67.2324 10.524 66.784 10.524C66.387 10.524 66.1104 10.7473 66.1104 11.2215V11.395C66.1104 11.8692 66.3733 12.1441 66.784 12.5409L67.6929 13.4394C68.4662 14.2246 68.8408 14.6987 68.8408 15.6333V16.0439C68.8408 17.2036 68.2188 18.0265 66.7703 18.0265C65.3218 18.0265 64.765 17.2156 64.765 16.1075V16.1058Z" fill="white"/>
<path fill-rule="evenodd" clip-rule="evenodd" d="M70.2739 9.47595H73.6641V10.6339H71.6949V13.0529H73.1039V14.1988H71.6949V16.7672H73.6641V17.9251H70.2739V9.47595Z" fill="white"/>
<path fill-rule="evenodd" clip-rule="evenodd" d="M79.0114 12.443H78.9737L78.0131 17.9251H77.355L76.2948 12.443H76.2673V17.9251H75.0972V9.47595H76.7553L77.6797 14.2366H77.6901L78.5131 9.47595H80.3088V17.9251H79.0114V12.443Z" fill="white"/>
<path fill-rule="evenodd" clip-rule="evenodd" d="M80.8071 9.47595H84.1989V10.6339H82.2281V13.0529H83.6371V14.1988H82.2281V16.7672H84.1989V17.9251H80.8071V9.47595Z" fill="white"/>
<path d="M86.0651 9.47595H84.6475V17.9251H86.0651V9.47595Z" fill="white"/>
<path fill-rule="evenodd" clip-rule="evenodd" d="M86.5651 15.745V11.6579C86.5651 10.3367 87.2146 9.37805 88.7095 9.37805C90.2044 9.37805 90.866 10.3384 90.866 11.6579V15.745C90.866 17.0541 90.2182 18.0265 88.7095 18.0265C87.2008 18.0265 86.5651 17.0541 86.5651 15.745ZM89.445 15.9683V11.4311C89.445 10.9208 89.2198 10.56 88.7095 10.56C88.1992 10.56 87.9861 10.9225 87.9861 11.4311V15.9683C87.9861 16.4803 88.2129 16.8411 88.7095 16.8411C89.2061 16.8411 89.445 16.4803 89.445 15.9683Z" fill="white"/>
<path fill-rule="evenodd" clip-rule="evenodd" d="M91.2904 16.1058V14.9719H92.6118V16.1316C92.6118 16.604 92.8214 16.8789 93.3094 16.8789C93.7579 16.8789 93.9572 16.58 93.9572 16.1316V15.8068C93.9572 15.3224 93.7597 15.0234 93.3215 14.6111L92.4881 13.7762C91.6771 12.979 91.3042 12.4928 91.3042 11.5221V11.2352C91.3042 10.1872 91.9159 9.37805 93.2974 9.37805C94.6789 9.37805 95.2803 10.0756 95.2803 11.2971V11.9808H93.9847V11.2472C93.9847 10.7611 93.7596 10.524 93.3112 10.524C92.9125 10.524 92.6376 10.7473 92.6376 11.2215V11.395C92.6376 11.8692 92.9005 12.1441 93.3112 12.5409L94.2218 13.4394C94.9951 14.2246 95.3714 14.6987 95.3714 15.6333V16.0439C95.3714 17.2036 94.7477 18.0265 93.3008 18.0265C91.854 18.0265 91.2956 17.2156 91.2956 16.1075L91.2904 16.1058Z" fill="white"/>
<path fill-rule="evenodd" clip-rule="evenodd" d="M35.6089 24.055V28.0271C35.6089 29.3431 35.0641 30.3309 33.5194 30.3309H31.2908V21.7495H33.5194C35.0641 21.7495 35.6089 22.7236 35.6089 24.0533V24.055ZM33.339 29.1558C33.9353 29.1558 34.1621 28.8019 34.1621 28.283V23.7904C34.1621 23.2836 33.9353 22.9297 33.339 22.9297H32.7324V29.1575H33.339V29.1558Z" fill="white"/>
<path fill-rule="evenodd" clip-rule="evenodd" d="M36.291 21.7512H39.7328V22.928H37.7345V25.3847H39.164V26.5478H37.7345V29.1558H39.7328V30.3326H36.291V21.7512Z" fill="white"/>
<path d="M42.9873 21.7512H41.5421V30.3326H42.9873V21.7512Z" fill="white"/>
<path fill-rule="evenodd" clip-rule="evenodd" d="M47.6593 24.7628H47.6198L46.6455 30.3326H45.9719L44.898 24.7628H44.8722V30.3326H43.6831V21.7512H45.3653L46.3053 26.5874H46.3156L47.1523 21.7512H48.9738V30.3326H47.6593V24.7628Z" fill="white"/>
<path fill-rule="evenodd" clip-rule="evenodd" d="M49.6577 21.7512H51.797C53.2541 21.7512 53.7834 22.4727 53.7834 23.6753V25.4844C53.7834 26.687 53.2524 27.4223 51.797 27.4223H51.0994V30.3326H49.656V21.7512H49.6577ZM51.0994 22.928V26.3073H51.6321C52.1269 26.3073 52.3417 26.0668 52.3417 25.5978V23.6238C52.3417 23.1565 52.1269 22.928 51.6321 22.928H51.0994Z" fill="white"/>
<path fill-rule="evenodd" clip-rule="evenodd" d="M54.3779 21.7512H55.8212V29.1558H57.543V30.3326H54.3779V21.7512Z" fill="white"/>
<path fill-rule="evenodd" clip-rule="evenodd" d="M58.0636 21.7512H61.507V22.928H59.5052V25.3847H60.9366V26.5478H59.5052V29.1558H61.507V30.3326H58.0636V21.7512Z" fill="white"/>
<path fill-rule="evenodd" clip-rule="evenodd" d="M66.0984 24.7628H66.064L65.0863 30.3326H64.4162L63.3406 24.7628H63.3165V30.3326H62.1257V21.7512H63.8097L64.7444 26.5874H64.7564L65.5949 21.7512H67.4163V30.3326H66.0984V24.7628Z" fill="white"/>
<path fill-rule="evenodd" clip-rule="evenodd" d="M68.1002 21.7512H71.5437V22.928H69.5453V25.3847H70.9732V26.5478H69.5453V29.1558H71.5437V30.3326H68.1002V21.7512Z" fill="white"/>
<path fill-rule="evenodd" clip-rule="evenodd" d="M73.3789 24.9415V30.3326H72.1623V21.7512H73.5816L75.1384 26.675V21.7512H76.3412V30.3326H75.0765L73.3789 24.9415Z" fill="white"/>
<path fill-rule="evenodd" clip-rule="evenodd" d="M76.8601 21.7512H80.6954V22.928H79.5062V30.3326H78.0491V22.928H76.8601V21.7512Z" fill="white"/>
<path fill-rule="evenodd" clip-rule="evenodd" d="M80.9978 30.3326L82.6198 21.7512H84.266L85.8966 30.3326H84.4189L84.1509 28.7624H82.6198L82.3673 30.3326H80.9995H80.9978ZM82.8089 27.6113H83.9602L83.3914 24.1684H83.3793L82.8089 27.6113Z" fill="white"/>
<path fill-rule="evenodd" clip-rule="evenodd" d="M87.8847 31.2054C88.2885 31.1917 88.3521 31.1041 88.3521 31.0027C88.3521 30.9151 88.2748 30.8635 88.1493 30.8635H88.0841V30.3962C86.8572 30.2451 86.3503 29.3208 86.3503 28.1182V23.9674C86.3503 22.624 86.9826 21.6498 88.505 21.6498C90.0274 21.6498 90.5412 22.5363 90.5412 23.8008V24.8127H89.225V23.6857C89.225 23.1565 89.0462 22.8524 88.5273 22.8524C88.0084 22.8524 87.7919 23.2184 87.7919 23.7372V28.3449C87.7919 28.8638 88.0084 29.2314 88.5273 29.2314C89.0462 29.2314 89.225 28.9016 89.225 28.3948V26.8125H90.5412V28.2934C90.5412 29.496 90.0583 30.3825 88.6304 30.4323V30.5457C88.9724 30.5972 89.1614 30.7244 89.1614 31.001C89.1614 31.3944 88.7954 31.6092 87.883 31.6092V31.2037L87.8847 31.2054Z" fill="white"/>
<path fill-rule="evenodd" clip-rule="evenodd" d="M90.9604 30.3326L92.5791 21.7512H94.2252L95.8594 30.3326H94.3782L94.1101 28.7624H92.5791L92.3265 30.3326H90.9604ZM92.0859 21.4093C92.1117 20.8166 92.3386 20.3338 92.9743 20.3338C93.3403 20.3338 93.6428 20.5486 93.8335 20.5486C93.9349 20.5486 94.0104 20.485 94.0104 20.3596H94.7201C94.6943 20.954 94.4675 21.435 93.8335 21.435C93.4658 21.435 93.1633 21.2203 92.9743 21.2203C92.8712 21.2203 92.7973 21.2821 92.7973 21.4093H92.0859ZM92.7715 27.6113H93.9228L93.3541 24.1684H93.3403L92.7715 27.6113Z" fill="white"/>
<path fill-rule="evenodd" clip-rule="evenodd" d="M96.3147 28.1182V23.9674C96.3147 22.624 96.9745 21.6498 98.49 21.6498C100.006 21.6498 100.679 22.624 100.679 23.9674V28.1182C100.679 29.4462 100.023 30.434 98.49 30.434C96.9573 30.434 96.3147 29.4462 96.3147 28.1182ZM99.2409 28.3449V23.7372C99.2409 23.2184 99.0124 22.8524 98.4918 22.8524C97.9711 22.8524 97.7581 23.2184 97.7581 23.7372V28.3449C97.7581 28.8638 97.9866 29.2314 98.4918 29.2314C98.9969 29.2314 99.2409 28.8638 99.2409 28.3449Z" fill="white"/>
</svg>
