<svg width="104" height="105" viewBox="0 0 104 105" fill="none" xmlns="http://www.w3.org/2000/svg">
<path d="M103.748 0.836121H0.347198V104.224H103.748V0.836121Z" fill="#0092D2"/>
<path fill-rule="evenodd" clip-rule="evenodd" d="M13.8204 9.53442V30.3705H10.315V14.4204H10.2841L7.82695 16.9717H7.79259V13.3158L11.0213 9.53442H13.8204Z" fill="white"/>
<path fill-rule="evenodd" clip-rule="evenodd" d="M24.491 30.3756V26.9945H25.9052V24.2577H24.491V9.53094H21.0475L14.9888 24.8419V26.9962H21.1695V30.3773H24.491V30.3756ZM18.0646 24.2577L21.2005 15.6797H21.2314V24.2577H18.0646Z" fill="white"/>
<path fill-rule="evenodd" clip-rule="evenodd" d="M79.7378 76.2705C78.4371 74.513 70.0294 63.7977 58.2453 63.7977C48.0128 63.7977 37.0656 73.0784 37.0656 73.0784C37.0656 73.0784 32.9502 64.6619 24.5374 63.8544C24.4893 63.8544 24.4378 63.8424 24.3828 63.8424H24.3295C24.1526 63.8527 23.9876 64.0245 24.0065 64.1757C24.0305 64.3217 24.1405 64.4832 24.1405 64.4832C25.223 66.2837 27.9895 71.4034 27.9895 76.5196C27.9895 81.6358 25.2076 86.7882 24.1336 88.5783L24.0598 88.6934C24.0288 88.7467 24.0065 88.7999 24.0065 88.8721C24.0065 89.049 24.1457 89.1865 24.3175 89.202L24.4086 89.1951C24.4378 89.1951 24.4687 89.1951 24.4962 89.1865C32.9348 88.4014 37.0638 79.9591 37.0638 79.9591C37.0638 79.9591 48.0111 89.2398 58.2436 89.2398C70.0277 89.2398 78.4354 78.5245 79.7361 76.7704C79.7722 76.7223 79.8014 76.6811 79.8272 76.6502C79.8426 76.6107 79.8529 76.5711 79.8529 76.5213C79.8529 76.4766 79.8409 76.4285 79.8272 76.3942C79.8014 76.3581 79.7722 76.3169 79.7361 76.2739L79.7378 76.2705ZM64.7989 77.8717C62.8985 77.8717 61.3606 76.3306 61.3606 74.4305C61.3606 72.5304 62.8985 70.9945 64.7989 70.9945C66.6994 70.9945 68.2424 72.5321 68.2424 74.4305C68.2424 76.3289 66.7045 77.8717 64.7989 77.8717Z" fill="white"/>
<path fill-rule="evenodd" clip-rule="evenodd" d="M24.2728 43.6575C24.2487 43.6523 24.2299 43.6403 24.2075 43.6403C24.0219 43.6403 23.8707 43.7932 23.8707 43.9822V46.3273C23.8707 46.4252 23.9085 46.5111 23.9687 46.5712C29.6562 51.5122 35.0448 46.8822 36.2906 45.6572C36.3146 45.6194 36.3438 45.5851 36.3799 45.561C36.4366 45.5267 36.4968 45.5009 36.5655 45.5009C36.6532 45.5009 36.7356 45.5335 36.7941 45.5902C36.7992 45.5971 36.8061 45.6023 36.8112 45.6057C43.2377 51.7373 49.9768 46.7688 51.379 45.6057L51.5147 45.4786C51.556 45.4597 51.5955 45.4528 51.6436 45.4528C51.6917 45.4528 51.7381 45.4597 51.7776 45.4786L51.9168 45.6057C53.3172 46.7688 60.0564 51.7373 66.4811 45.6057C66.4811 45.6023 66.4914 45.5971 66.4931 45.5902C66.5533 45.5335 66.6341 45.5009 66.7217 45.5009C66.7904 45.5009 66.8557 45.5267 66.9073 45.561C66.9451 45.5834 66.9725 45.6194 67.0017 45.6572C68.2458 46.8805 73.6258 51.5105 79.3203 46.5712C79.3804 46.5111 79.4182 46.4252 79.4182 46.3273V43.9822C79.4182 43.7932 79.2721 43.6403 79.0866 43.6403C79.0608 43.6403 79.0385 43.6506 79.0127 43.6575C78.9611 43.6867 78.9062 43.7142 78.8426 43.7468C77.0916 44.6213 71.6669 46.707 66.7406 42.0477C66.6959 42.003 66.6478 41.9584 66.598 41.9103C66.5516 41.8914 66.5103 41.8793 66.4536 41.8793C66.421 41.8793 66.3814 41.8896 66.3539 41.8948C66.2783 41.924 66.2199 41.9721 66.1821 42.0288C64.713 43.1472 57.9738 47.7068 51.9752 42.1113L51.8876 42.0254C51.8257 41.9704 51.7398 41.9257 51.6436 41.9257C51.556 41.9257 51.4666 41.9721 51.4065 42.0254L51.3154 42.1113C45.3168 47.7085 38.5708 43.1472 37.1033 42.0288C37.0655 41.9721 37.0105 41.924 36.9367 41.8948C36.904 41.8896 36.8697 41.8793 36.8319 41.8793C36.7838 41.8793 36.7339 41.8914 36.6892 41.9103C36.6463 41.9584 36.593 42.003 36.5466 42.0477C31.622 46.7052 26.1973 44.6213 24.4463 43.7468C24.3845 43.7159 24.3278 43.6884 24.2728 43.6575Z" fill="white"/>
<path fill-rule="evenodd" clip-rule="evenodd" d="M36.2923 54.1924C36.3181 54.1528 36.3456 54.1254 36.3817 54.0979C36.4384 54.0635 36.4985 54.0343 36.5707 54.0343C36.6566 54.0343 36.7408 54.0704 36.7992 54.1288C36.8009 54.1339 36.8095 54.1391 36.8129 54.1425C43.236 60.2638 49.9786 55.3022 51.3807 54.1425L51.5165 54.012C51.5577 53.9948 51.5972 53.9896 51.6453 53.9896C51.6934 53.9896 51.7381 53.9965 51.7794 54.012L51.9185 54.1425C53.3189 55.3022 60.0581 60.2638 66.4828 54.1425C66.4845 54.1391 66.4897 54.1339 66.4949 54.1288C66.5567 54.0721 66.6341 54.0343 66.7234 54.0343C66.7921 54.0343 66.8574 54.0635 66.9073 54.0979C66.9485 54.1254 66.9743 54.1528 67.0052 54.1924C68.2475 55.4173 73.6292 60.0491 79.3254 55.1029C79.3821 55.0411 79.4233 54.962 79.4233 54.8641V52.5121C79.4233 52.3266 79.2721 52.1754 79.0883 52.1754C79.0625 52.1754 79.0402 52.1857 79.0144 52.1892C78.9629 52.2149 78.9079 52.2441 78.8443 52.2751C77.0933 53.153 71.6652 55.2318 66.7423 50.5777C66.6976 50.533 66.6495 50.49 66.5997 50.4419C66.5567 50.4162 66.512 50.4093 66.4553 50.4093C66.4227 50.4093 66.3832 50.4162 66.3557 50.4351C66.2801 50.454 66.2216 50.5004 66.1838 50.5605C64.7147 51.6789 57.9755 56.2402 51.9752 50.6429L51.8893 50.5553C51.8274 50.4952 51.7381 50.4608 51.6453 50.4608C51.5577 50.4608 51.4683 50.4952 51.4082 50.5553L51.3171 50.6429C45.3185 56.2402 38.5725 51.6789 37.1051 50.5605C37.0672 50.5004 37.0123 50.454 36.9401 50.4351C36.904 50.4162 36.868 50.4093 36.8319 50.4093C36.7838 50.4093 36.7356 50.4162 36.691 50.4419C36.6463 50.49 36.5947 50.533 36.5449 50.5777C31.6185 55.2318 26.1956 53.153 24.4446 52.2751C24.3828 52.2441 24.3261 52.2149 24.2728 52.1892C24.247 52.1857 24.2281 52.1754 24.2075 52.1754C24.0185 52.1754 23.869 52.3266 23.869 52.5121V54.8641C23.869 54.962 23.9068 55.0411 23.9669 55.1029C29.6545 60.0491 35.0431 55.4173 36.2889 54.1924H36.2923Z" fill="white"/>
<path fill-rule="evenodd" clip-rule="evenodd" d="M37.8903 9.49146L36.2837 17.9423H34.7372L33.1289 9.49146H34.5757L35.5483 15.3859H35.5586L36.5569 9.49146H37.8903Z" fill="white"/>
<path d="M39.9111 9.49146H38.49V17.9406H39.9111V9.49146Z" fill="white"/>
<path fill-rule="evenodd" clip-rule="evenodd" d="M44.9938 11.7609V15.6729C44.9938 16.97 44.4594 17.9423 42.937 17.9423H40.7444V9.49316H42.937C44.4577 9.49316 44.9938 10.4535 44.9938 11.7609ZM42.7634 16.7827C43.3494 16.7827 43.5728 16.4339 43.5728 15.922V11.4981C43.5728 10.9999 43.3477 10.6511 42.7634 10.6511H42.1638V16.7827H42.7634Z" fill="white"/>
<path fill-rule="evenodd" clip-rule="evenodd" d="M45.5935 17.9423L47.1881 9.49316H48.8067L50.4167 17.9423H48.9579L48.6984 16.3961H47.1898L46.9406 17.9423H45.5935ZM47.3753 15.2622H48.5094L47.9475 11.8726H47.9355L47.3736 15.2622H47.3753Z" fill="white"/>
<path fill-rule="evenodd" clip-rule="evenodd" d="M53.5337 12.6337V17.9423H52.3378V9.49146H53.7348L55.2658 14.3397V9.49146H56.4497V17.9423H55.2039L53.5337 12.6337Z" fill="white"/>
<path fill-rule="evenodd" clip-rule="evenodd" d="M57.0494 17.9423L58.644 9.49316H60.266L61.8727 17.9423H60.4138L60.1544 16.3961H58.6457L58.3983 17.9423H57.0511H57.0494ZM58.8313 15.2622H59.9653L59.4034 11.8726H59.3914L58.8296 15.2622H58.8313Z" fill="white"/>
<path fill-rule="evenodd" clip-rule="evenodd" d="M33.1048 30.3412L34.6994 21.892H36.3181L37.9281 30.3412H36.4693L36.2098 28.7967H34.7012L34.4537 30.3412H33.1066H33.1048ZM36.6703 21.2942L34.4365 21.5811V20.7839L36.6703 20.3098V21.2942ZM34.885 27.6628H36.0191L35.4572 24.2732H35.4452L34.8833 27.6628H34.885Z" fill="white"/>
<path fill-rule="evenodd" clip-rule="evenodd" d="M40.0966 25.8315H42.1174V30.3412H41.0932V29.4204C40.9076 30.0561 40.509 30.4409 39.7375 30.4409C38.5141 30.4409 37.9539 29.4685 37.9539 28.1611V24.0739C37.9539 22.7528 38.5914 21.7924 40.0863 21.7924C41.6551 21.7924 42.1191 22.6652 42.1191 23.9107V24.6598H40.8218V23.7991C40.8218 23.2768 40.6207 22.9761 40.1104 22.9761C39.6 22.9761 39.3749 23.3386 39.3749 23.8489V28.3844C39.3749 28.8947 39.588 29.2572 40.0743 29.2572C40.5331 29.2572 40.7719 28.996 40.7719 28.448V26.9516H40.0984V25.8297L40.0966 25.8315Z" fill="white"/>
<path fill-rule="evenodd" clip-rule="evenodd" d="M46.4921 21.8937V28.2864C46.4921 29.5956 45.9303 30.4408 44.4835 30.4408C43.0366 30.4408 42.3648 29.5939 42.3648 28.2864V21.8937H43.7858V28.4239C43.7858 28.9221 43.9851 29.2588 44.4835 29.2588C44.9818 29.2588 45.1828 28.9221 45.1828 28.4239V21.8937H46.4921Z" fill="white"/>
<path fill-rule="evenodd" clip-rule="evenodd" d="M46.5162 30.3412L48.1108 21.892H49.7328L51.3395 30.3412H49.8806L49.6212 28.7967H48.1108L47.8633 30.3412H46.5162ZM48.2998 27.6628H49.4321L48.8737 24.2732H48.86L48.3015 27.6628H48.2998Z" fill="white"/>
</svg>
