<svg width="104" height="105" viewBox="0 0 104 105" fill="none" xmlns="http://www.w3.org/2000/svg">
<path d="M103.404 0.83783H0V104.224H103.404V0.83783Z" fill="#DD1865"/>
<path fill-rule="evenodd" clip-rule="evenodd" d="M9.97645 14.3844V30.3567H13.4852V9.48975H10.6827L7.45227 13.2762V16.939H7.48148L9.94381 14.3844H9.97645Z" fill="white"/>
<path fill-rule="evenodd" clip-rule="evenodd" d="M19.4254 25.5257V14.3225C19.4254 13.0615 19.8876 12.1664 21.087 12.1664C22.2864 12.1664 22.7795 13.0598 22.7795 14.3225V25.5257C22.7795 26.7867 22.319 27.6783 21.087 27.6783C19.855 27.6783 19.4254 26.7884 19.4254 25.5257ZM26.29 24.9725V14.8774C26.29 11.6149 24.6593 9.24579 21.0887 9.24579C17.5181 9.24579 15.9166 11.6149 15.9166 14.8774V24.9725C15.9166 28.2023 17.549 30.6041 21.0887 30.6041C24.6284 30.6041 26.29 28.204 26.29 24.9725Z" fill="white"/>
<path fill-rule="evenodd" clip-rule="evenodd" d="M35.8059 18.0592H37.3249L35.9451 14.161C36.7682 13.972 37.0964 13.4274 37.0964 12.5031V11.4019C37.0964 10.1993 36.5654 9.47772 35.1083 9.47772H33.0068V18.0592H34.4502V14.1232L35.8042 18.0592H35.8059ZM34.9331 10.6563C35.4262 10.6563 35.6427 10.8848 35.6427 11.3521V12.6182C35.6427 13.0735 35.4279 13.3278 34.9331 13.3278H34.4519V10.658H34.9331V10.6563ZM38.0088 18.0592H41.4523V16.8823H39.4522V14.2744H40.8818V13.1096H39.4522V10.6546H41.4523V9.47772H38.0088V18.0592ZM43.7926 16.8823V10.6563H44.4009C44.9954 10.6563 45.2239 11.0102 45.2239 11.517V16.0096C45.2239 16.5284 44.9954 16.8823 44.4009 16.8823H43.7926ZM44.5779 9.47944H42.3492V18.0609H44.5779C46.1226 18.0609 46.6673 17.073 46.6673 15.757V11.7833C46.6673 10.4535 46.1226 9.47944 44.5779 9.47944ZM50.4768 9.47944V16.111C50.4768 16.6178 50.274 16.9597 49.7671 16.9597C49.2602 16.9597 49.0575 16.6178 49.0575 16.111V9.47944H47.6141V15.9718C47.6141 17.2998 48.2464 18.1605 49.7654 18.1605C51.2844 18.1605 51.8033 17.2998 51.8033 15.9718V9.47944H50.4734H50.4768ZM54.288 19.3374C55.1987 19.3374 55.5664 19.1226 55.5664 18.7292C55.5664 18.4509 55.3774 18.3238 55.0354 18.2739V18.1605C56.4651 18.1107 56.9462 17.2242 56.9462 16.0216V14.5407H55.63V16.123C55.63 16.6298 55.453 16.9579 54.9341 16.9579C54.4151 16.9579 54.2003 16.5903 54.2003 16.0714V11.4655C54.2003 10.9466 54.4151 10.579 54.9341 10.579C55.453 10.579 55.63 10.8831 55.63 11.4139V12.5409H56.9462V11.529C56.9462 10.2629 56.5029 9.37807 54.9083 9.37807C53.3137 9.37807 52.757 10.3522 52.757 11.6939V15.8447C52.757 17.0473 53.2639 17.9716 54.4907 18.1228V18.5918H54.5543C54.6815 18.5918 54.7571 18.6416 54.7571 18.7309C54.7571 18.8323 54.6935 18.9199 54.288 18.9336V19.3391V19.3374ZM58.9961 18.0592L59.2487 16.4906H60.7797L61.046 18.0592H62.5272L60.8948 9.47772H59.2487L57.6284 18.0592H58.9961ZM59.4652 9.13756C59.4652 9.01043 59.5408 8.94685 59.6422 8.94685C59.8312 8.94685 60.1353 9.1616 60.5031 9.1616C61.1354 9.1616 61.3639 8.68056 61.3897 8.08613H60.6801C60.6801 8.21326 60.6044 8.27512 60.5031 8.27512C60.3123 8.27512 60.0099 8.06036 59.6422 8.06036C59.0099 8.06036 58.7813 8.54141 58.7556 9.13584H59.4652V9.13756ZM60.0082 11.8967H60.0202L60.589 15.3396H59.4377L60.0065 11.8967H60.0082ZM65.426 16.9597C64.9191 16.9597 64.6923 16.592 64.6923 16.0732V11.4672C64.6923 10.9483 64.9208 10.5807 65.426 10.5807C65.9312 10.5807 66.1735 10.9483 66.1735 11.4672V16.0732C66.1735 16.592 65.9449 16.9597 65.426 16.9597ZM65.426 18.1605C66.957 18.1605 67.6151 17.1727 67.6151 15.8447V11.6939C67.6151 10.3522 66.957 9.37807 65.426 9.37807C63.895 9.37807 63.2489 10.3522 63.2489 11.6939V15.8447C63.2489 17.1727 63.907 18.1605 65.426 18.1605ZM71.4641 16.8823V10.6563H72.0724C72.6669 10.6563 72.8954 11.0102 72.8954 11.517V16.0096C72.8954 16.5284 72.6669 16.8823 72.0724 16.8823H71.4641ZM72.2494 9.47944H70.0207V18.0609H72.2494C73.7941 18.0609 74.3388 17.073 74.3388 15.757V11.7833C74.3388 10.4535 73.7941 9.47944 72.2494 9.47944ZM76.4266 18.0592L76.6791 16.4906H78.2101L78.4765 18.0592H79.9577L78.3253 9.47772H76.6791L75.0588 18.0592H76.4266ZM77.4403 11.8967H77.4524L78.0211 15.3396H76.8699L77.4386 11.8967H77.4403ZM82.6416 18.1605C84.1108 18.1605 84.7431 17.3256 84.7431 16.1488V15.7313C84.7431 14.7829 84.3634 14.3019 83.5781 13.503L82.6537 12.5925C82.2361 12.187 81.9698 11.9087 81.9698 11.4277V11.2507C81.9698 10.7697 82.2481 10.5412 82.6537 10.5412C83.109 10.5412 83.3376 10.7817 83.3376 11.2748V12.0221H84.6538V11.3263C84.6538 10.0859 84.0833 9.37636 82.6416 9.37636C81.2 9.37636 80.6158 10.1993 80.6158 11.2627V11.5531C80.6158 12.5409 80.9955 13.034 81.8186 13.8432L82.6674 14.6919C83.1107 15.1094 83.3135 15.4134 83.3135 15.9065V16.2364C83.3135 16.6916 83.1107 16.9957 82.6554 16.9957C82.1622 16.9957 81.9457 16.7174 81.9457 16.2364V15.0595H80.6037V16.2106C80.6037 17.3376 81.1725 18.1588 82.6416 18.1588V18.1605Z" fill="white"/>
<path fill-rule="evenodd" clip-rule="evenodd" d="M34.4519 29.1713V22.9452H35.0602C35.6547 22.9452 35.8833 23.2991 35.8833 23.8059V28.2985C35.8833 28.8173 35.6547 29.1713 35.0602 29.1713H34.4519ZM35.2355 21.7683H33.0068V30.3498H35.2355C36.7802 30.3498 37.3249 29.362 37.3249 28.046V24.0722C37.3249 22.7425 36.7802 21.7683 35.2355 21.7683ZM38.2494 30.3481H41.6928V29.1713H39.6927V26.5633H41.1224V25.3985H39.6927V22.9435H41.6928V21.7666H38.2494V30.3481ZM44.528 30.4495C45.9972 30.4495 46.6295 29.6145 46.6295 28.4377V28.0202C46.6295 27.0701 46.2498 26.5908 45.4645 25.7919L44.5401 24.8814C44.1225 24.4759 43.8562 24.1976 43.8562 23.7166V23.5396C43.8562 23.0586 44.1345 22.8318 44.5401 22.8318C44.9954 22.8318 45.2239 23.0723 45.2239 23.5654V24.3127H46.5402V23.6169C46.5402 22.3765 45.9714 21.667 44.528 21.667C43.0847 21.667 42.5022 22.4899 42.5022 23.5534V23.8437C42.5022 24.8316 42.8819 25.3246 43.705 26.1338L44.5538 26.9825C44.9971 27.4 45.1999 27.7041 45.1999 28.1971V28.527C45.1999 28.9823 44.9971 29.2864 44.5418 29.2864C44.0486 29.2864 43.8321 29.008 43.8321 28.527V27.3502H42.4901V28.5012C42.4901 29.6282 43.0589 30.4495 44.528 30.4495ZM47.4904 30.3481H48.9338V21.7666H47.4904V30.3481ZM52.0473 26.9069H52.7312V28.4256C52.7312 28.9823 52.4906 29.2486 52.0215 29.2486C51.5284 29.2486 51.3119 28.8809 51.3119 28.3621V23.7561C51.3119 23.2372 51.5404 22.8696 52.0593 22.8696C52.5783 22.8696 52.781 23.1737 52.781 23.7046V24.5773H54.0972V23.8179C54.0972 22.5518 53.6282 21.667 52.0336 21.667C50.439 21.667 49.8685 22.6411 49.8685 23.9829V28.1336C49.8685 29.4616 50.439 30.4495 51.6779 30.4495C52.4631 30.4495 52.8669 30.0577 53.0577 29.4118V30.3481H54.0955V25.7662H52.0456V26.9052L52.0473 26.9069ZM57.8827 21.7683V28.3999C57.8827 28.9067 57.6799 29.2486 57.173 29.2486C56.6661 29.2486 56.4633 28.9067 56.4633 28.3999V21.7683H55.02V28.2607C55.02 29.5887 55.6523 30.4495 57.1713 30.4495C58.6903 30.4495 59.2092 29.5887 59.2092 28.2607V21.7683H57.8792H57.8827ZM61.2746 30.3481L61.5272 28.7795H63.0582L63.3245 30.3481H64.8057L63.1733 21.7666H61.5272L59.9068 30.3481H61.2746ZM62.2867 24.1856H62.2987L62.8675 27.6285H61.7162L62.285 24.1856H62.2867ZM65.5033 30.3481H68.6684V29.1713H66.9467V21.7666H65.5033V30.3481ZM70.8696 29.1713V22.9452H71.4779C72.0724 22.9452 72.3009 23.2991 72.3009 23.8059V28.2985C72.3009 28.8173 72.0724 29.1713 71.4779 29.1713H70.8696ZM71.6548 21.7683H69.4262V30.3498H71.6548C73.1996 30.3498 73.7443 29.362 73.7443 28.046V24.0722C73.7443 22.7425 73.1996 21.7683 71.6548 21.7683ZM75.8063 30.3481L76.0588 28.7795H77.5898L77.8562 30.3481H79.3374L77.705 21.7666H76.0588L74.4385 30.3481H75.8063ZM76.82 24.1856H76.8321L77.4008 27.6285H76.2496L76.82 24.1856ZM81.4784 29.1713V22.9452H82.0866C82.6812 22.9452 82.9097 23.2991 82.9097 23.8059V28.2985C82.9097 28.8173 82.6812 29.1713 82.0866 29.1713H81.4784ZM82.2636 21.7683H80.035V30.3498H82.2636C83.8084 30.3498 84.3531 29.362 84.3531 28.046V24.0722C84.3531 22.7425 83.8084 21.7683 82.2636 21.7683ZM85.2758 30.3481H88.7193V29.1713H86.7192V26.5633H88.1488V25.3985H86.7192V22.9435H88.7193V21.7666H85.2758V30.3481ZM91.5545 30.4495C93.0236 30.4495 93.6559 29.6145 93.6559 28.4377V28.0202C93.6559 27.0701 93.2762 26.5908 92.4909 25.7919L91.5665 24.8814C91.149 24.4759 90.8826 24.1976 90.8826 23.7166V23.5396C90.8826 23.0586 91.161 22.8318 91.5665 22.8318C92.0218 22.8318 92.2504 23.0723 92.2504 23.5654V24.3127H93.5666V23.6169C93.5666 22.3765 92.9978 21.667 91.5545 21.667C90.1111 21.667 89.5286 22.4899 89.5286 23.5534V23.8437C89.5286 24.8316 89.9083 25.3246 90.7314 26.1338L91.5802 26.9825C92.0236 27.4 92.2263 27.7041 92.2263 28.1971V28.527C92.2263 28.9823 92.0236 29.2864 91.5682 29.2864C91.0751 29.2864 90.8586 29.008 90.8586 28.527V27.3502H89.5166V28.5012C89.5166 29.6282 90.087 30.4495 91.5545 30.4495Z" fill="white"/>
<path fill-rule="evenodd" clip-rule="evenodd" d="M62.1543 57.6438C62.1543 57.5098 62.0564 57.3998 61.9327 57.3998H41.7203C41.6 57.3998 41.5004 57.5098 41.5004 57.6438V62.7549C41.5004 62.8906 41.5983 62.9988 41.7203 62.9988H61.9327C62.0564 62.9988 62.1543 62.8889 62.1543 62.7549V57.6438Z" fill="white"/>
<path fill-rule="evenodd" clip-rule="evenodd" d="M62.1543 69.7318C62.1543 69.5978 62.0564 69.4879 61.9327 69.4879H41.7203C41.6 69.4879 41.5004 69.5978 41.5004 69.7318V74.8429C41.5004 74.9769 41.5983 75.0868 41.7203 75.0868H61.9327C62.0564 75.0868 62.1543 74.9769 62.1543 74.8429V69.7318Z" fill="white"/>
<path fill-rule="evenodd" clip-rule="evenodd" d="M78.3906 66.0724L68.7268 56.8243L68.8437 75.6623L78.3906 66.0724Z" fill="white"/>
<path fill-rule="evenodd" clip-rule="evenodd" d="M25.0133 66.0724L34.6753 56.8243L34.5602 75.6623L25.0133 66.0724Z" fill="white"/>
<path fill-rule="evenodd" clip-rule="evenodd" d="M51.6555 39.7903L42.4077 49.4507L61.2471 49.3355L51.6555 39.7903Z" fill="white"/>
<path fill-rule="evenodd" clip-rule="evenodd" d="M51.6555 92.8493L42.4077 83.1873L61.2471 83.3041L51.6555 92.8493Z" fill="white"/>
</svg>
