<svg width="104" height="105" viewBox="0 0 104 105" fill="none" xmlns="http://www.w3.org/2000/svg">
<path d="M103.911 0.834412H0.510864V104.224H103.911V0.834412Z" fill="#327A3C"/>
<path fill-rule="evenodd" clip-rule="evenodd" d="M13.563 9.50696V30.3447H10.0577V14.393H10.0268L7.56962 16.9442H7.53698V13.2866L10.764 9.50696H13.563Z" fill="white"/>
<path fill-rule="evenodd" clip-rule="evenodd" d="M25.1203 14.0253V15.8378C25.1203 17.5902 24.1667 18.7567 22.7233 19.2188C24.4743 19.6174 25.3042 20.8475 25.3042 22.7528V25.8246C25.3042 28.7143 23.768 30.5886 20.2335 30.5886C16.699 30.5886 15.4068 28.5614 15.4068 25.3951V22.66H18.6046V25.6408C18.6046 26.8709 19.0341 27.6697 20.2352 27.6697C21.3092 27.6697 21.8006 26.9001 21.8006 25.7937V22.3525C21.8006 21.2461 21.3092 20.662 20.0806 20.662H18.6046V17.987H19.9276C21.0652 17.987 21.8006 17.4029 21.8006 16.2965V14.0528C21.8006 12.9155 21.4037 12.1784 20.2971 12.1784C19.1905 12.1784 18.7901 12.9155 18.7901 14.2074V16.3257H15.5907V14.484C15.5907 11.4105 16.8519 9.25781 20.4792 9.25781C23.7079 9.25781 25.1221 11.072 25.1221 14.0219L25.1203 14.0253Z" fill="white"/>
<path fill-rule="evenodd" clip-rule="evenodd" d="M90.9364 65.5604C88.2129 61.7396 75.8892 46.4871 52.9826 46.4871C30.0759 46.4871 17.7523 61.7396 15.0253 65.5604C14.9102 65.7236 14.8088 65.8645 14.7263 65.9865C14.8088 66.1102 14.9085 66.2493 15.0253 66.416C17.7523 70.2351 30.0725 85.4893 52.9826 85.4893C75.8927 85.4893 88.2129 70.2351 90.9364 66.416C91.0566 66.2511 91.1546 66.1102 91.2319 65.9865C91.1529 65.8662 91.0549 65.7253 90.9364 65.5604ZM40.2053 56.1303C40.4115 55.8262 41.0988 54.962 41.1813 54.8521C41.3583 54.6253 41.7071 54.5789 41.9545 54.5342C42.1968 54.4896 42.5199 54.6253 42.5594 54.8074C42.6006 54.9912 42.4649 55.699 42.3463 55.821C42.0095 56.1698 41.1349 56.6628 40.6538 56.5855C40.2809 56.5288 40.1348 56.2385 40.2053 56.1303ZM39.3857 57.7589C39.4235 57.716 39.4561 57.6799 39.4699 57.6627C39.7586 57.3346 40.3324 57.2641 40.7276 57.2023C41.1246 57.1336 41.6538 57.3329 41.7191 57.5974C41.7878 57.8603 40.7225 58.3431 40.5283 58.5234C39.9768 59.0303 39.1159 60.0645 38.609 60.1779C38.4441 60.214 38.31 60.1899 38.1966 60.1332C38.5282 59.3051 38.9269 58.5097 39.384 57.7606L39.3857 57.7589ZM47.96 75.3428C47.649 76.5626 47.2881 77.0024 46.9788 77.3872C46.6713 77.7772 45.5286 78.2737 44.8034 78.2187C44.0783 78.1655 43.977 76.2293 43.977 75.2311C43.977 74.8875 43.489 75.908 43.2347 73.8344C43.0714 72.5063 42.2209 73.9735 42.159 73.087C42.0989 72.2057 41.6727 72.3809 41.226 71.8294C40.7809 71.2779 40.2259 71.8827 39.6021 72.1627C38.9853 72.4376 39.2396 72.5836 38.3598 72.3053C38.3375 72.2984 38.3255 72.2916 38.3031 72.283C37.4955 70.3743 37.0488 68.2766 37.0488 66.0741C37.0488 65.5346 37.078 65.0055 37.1278 64.4815C37.157 64.4282 37.188 64.3767 37.2275 64.332C38.0712 63.3339 38.0506 63.1002 38.0506 63.1002L38.9836 62.779C38.9836 62.779 40.4768 63.0074 41.5988 63.4301C42.5233 63.7754 43.9804 64.5622 44.8275 64.2152C45.4392 63.9644 45.9204 63.6277 45.8619 63.1191C45.7932 62.48 45.288 62.3271 44.678 62.7583C44.4529 62.9181 43.9735 61.7928 43.5972 61.8512C43.2209 61.9079 44.0612 63.1724 43.745 63.2256C43.4237 63.2789 42.781 61.9079 42.6728 61.6863C42.5645 61.4664 42.0679 60.9149 41.6212 61.3358C40.6795 62.2292 39.1503 62.1759 38.8444 62.4062C37.9096 63.1037 37.6639 62.1759 37.6845 61.6107C37.7223 61.4801 37.7601 61.3513 37.8014 61.2207C38.1055 60.8857 39.2001 60.7723 39.5764 61.0231C39.9888 61.2997 40.2861 60.9527 40.4476 60.7861C40.6125 60.6228 40.5541 60.3583 40.451 60.1384C40.3462 59.9168 40.6572 59.7535 40.8703 59.6986C41.0868 59.6419 41.7964 59.1419 42.0817 58.9753C42.3686 58.8104 43.8429 58.6317 44.5045 58.9615C45.166 59.2948 45.7726 59.0234 46.0973 58.6403C46.5063 58.1575 47.0235 57.7881 47.2537 57.6747C47.4857 57.5665 46.6833 56.8209 46.0269 57.6352C45.3671 58.4461 45.032 58.52 44.7227 58.52C44.4134 58.52 42.5714 58.0613 42.3412 57.4789C42.1161 56.8982 42.9185 56.4618 43.5989 56.132C44.2776 55.809 46.1386 55.8124 46.6145 55.7059C47.5837 55.4929 48.8174 55.0084 49.4411 55.4327C50.0614 55.8485 46.8414 56.5804 47.8998 57.1525C48.2761 57.3586 49.979 56.1715 50.5632 55.8691C51.9344 55.163 49.2315 54.9276 49.5821 53.4897C49.979 51.8627 46.2657 52.4932 44.4151 52.6307C46.8981 51.0398 49.8449 50.1155 53.01 50.1155C60.5379 50.1155 66.8441 55.3314 68.5263 62.3426C68.5366 62.6913 68.4851 62.9387 68.4473 63.0813C68.3029 63.6569 67.2118 64.1499 66.5778 63.2256C66.4163 62.992 65.7307 62.346 65.7564 63.4507C65.7788 64.5554 66.8303 64.6688 65.8097 65.3336C64.7924 65.9968 64.6051 65.837 64.1326 66.0054C63.6618 66.1703 63.2064 67.3111 63.3198 67.921C63.4315 68.5291 64.887 70.1922 63.8079 70.1252C63.5553 70.1063 61.648 68.804 61.3335 67.9674C61.0002 67.086 60.6376 66.2236 60.3816 65.5587C60.1221 64.8955 59.4485 64.7272 58.8781 65.1154C58.3093 65.5054 59.0362 65.892 58.6289 66.7235C58.2217 67.5533 57.9296 68.2955 57.3299 67.61C55.7714 65.8267 53.5084 66.7046 53.1544 64.7186C52.962 63.6414 52.0358 63.7445 51.2608 63.1363C50.4807 62.5298 50.0477 62.2 49.9154 62.6398C49.8003 63.0246 52.3554 65.0484 52.5358 65.569C52.8073 66.3387 51.7695 67.019 51.0117 67.2011C50.2574 67.3832 49.924 66.7768 49.18 66.0019C48.436 65.2288 48.1112 64.6756 48.0597 65.2838C47.9858 66.1634 48.7659 67.4502 49.5237 67.9347C50.1697 68.3419 50.8931 68.5274 50.6835 69.1923C50.4739 69.8572 50.6818 69.4809 49.9583 70.1956C49.2332 70.9155 49.0958 71.1474 49.1473 72.1404C49.1989 73.1351 48.9394 73.1935 48.7848 74.0216C48.6301 74.8514 48.271 74.1333 47.9583 75.3496L47.96 75.3428ZM65.0794 68.981C65.6155 68.938 66.4214 69.6802 66.1069 69.9671C65.7925 70.2489 64.9883 70.1458 64.5863 69.8297C64.1859 69.5187 64.8388 69.0016 65.0811 68.981H65.0794ZM64.4007 68.4913C64.2306 68.4278 64.0776 68.2628 63.9471 67.8729C63.8182 67.4794 64.1464 67.2561 64.4694 67.4141C64.7959 67.5791 65.222 68.0687 65.222 68.3298C65.222 68.591 64.5777 68.5601 64.4007 68.4913ZM57.3574 68.4638C57.0429 68.7439 56.2353 68.6425 55.8332 68.3247C55.4312 68.012 56.0875 67.4966 56.3281 67.476C56.8659 67.4279 57.6718 68.1769 57.3591 68.4621L57.3574 68.4638ZM50.8399 71.6301C50.6199 71.9892 50.0202 74.6727 49.6164 74.3601C49.2109 74.0457 49.7797 71.247 49.8965 71.0357C50.5254 69.8795 51.8897 69.9379 50.8381 71.6301H50.8399ZM53.0118 82.0293C51.4516 82.0293 49.9481 81.8025 48.5253 81.3867C48.3208 81.2201 48.204 80.9418 48.3328 80.6068C48.8277 79.32 50.2969 78.8149 51.4567 78.7049C54.0445 78.4524 57.4467 80.3834 57.9863 80.0725C58.5293 79.7598 59.6238 78.339 61.2287 78.3991C62.3232 78.4403 62.3146 78.6242 62.6824 78.7651C59.9984 80.8112 56.6477 82.0293 53.01 82.0293H53.0118ZM64.2649 77.3855C64.1051 77.3408 63.9419 77.2893 63.7632 77.1999C62.892 76.7567 62.9968 77.4645 62.569 77.3082C62.1377 77.1484 63.0518 76.1554 61.7648 76.9938C60.483 77.8322 60.83 76.8649 60.2699 75.4458C59.7045 74.025 60.9125 72.4015 61.9229 72.0356C63.3078 71.5322 64.1704 71.4308 64.8199 71.2711C66.7358 70.7917 67.1413 69.6561 67.4902 70.3485C67.5555 70.4774 67.6191 70.6011 67.6775 70.7179C67.7892 70.9258 67.918 71.3432 67.9249 71.7573C67.1104 73.8911 65.8543 75.8049 64.2649 77.3855ZM68.6363 69.3297C68.2084 69.2146 66.4162 66.7373 67.8321 65.1069C68.0692 64.8389 67.3562 64.0503 67.552 64.0331C68.327 63.9747 68.7394 64.454 68.9438 65.1481C68.9593 65.4522 68.9714 65.7614 68.9714 66.0724C68.9714 67.1891 68.8545 68.2766 68.6363 69.328V69.3297Z" fill="white"/>
<path fill-rule="evenodd" clip-rule="evenodd" d="M33.2616 18.0867L34.8889 9.46399H36.5436L38.1846 18.0867H36.6965L36.4285 16.5096H34.8889L34.6346 18.0867H33.2616ZM35.0796 15.3516H36.2377L35.6638 11.8933H35.6518L35.0779 15.3516H35.0796Z" fill="white"/>
<path fill-rule="evenodd" clip-rule="evenodd" d="M40.463 18.9646C40.8685 18.9525 40.9338 18.8632 40.9338 18.7618C40.9338 18.6725 40.8565 18.6227 40.7294 18.6227H40.6658V18.1519C39.4304 17.999 38.9217 17.0696 38.9217 15.8618V11.6905C38.9217 10.3419 39.5575 9.36261 41.0833 9.36261C42.6865 9.36261 43.1333 10.2543 43.1333 11.5256V12.5426H41.8102V11.4105C41.8102 10.8762 41.6315 10.5704 41.1108 10.5704C40.5902 10.5704 40.3737 10.938 40.3737 11.4603V16.0903C40.3737 16.6126 40.5902 16.9803 41.1108 16.9803C41.6315 16.9803 41.8102 16.6504 41.8102 16.1419V14.551H43.1333V16.0405C43.1333 17.2483 42.6504 18.1399 41.2122 18.1897V18.3031C41.5559 18.3547 41.7466 18.4818 41.7466 18.7618C41.7466 19.157 41.3772 19.3717 40.463 19.3717V18.9646Z" fill="white"/>
<path fill-rule="evenodd" clip-rule="evenodd" d="M43.8343 18.0867L45.4633 9.46397H47.1163L48.7573 18.0867H47.2692L47.0012 16.5095H45.4616L45.2073 18.0867H43.8326H43.8343ZM44.965 9.12037C44.9908 8.5225 45.2193 8.03802 45.8551 8.03802C46.2245 8.03802 46.5304 8.2545 46.7194 8.2545C46.8225 8.2545 46.8981 8.19093 46.8981 8.0638H47.6094C47.5837 8.66167 47.3569 9.14442 46.7194 9.14442C46.3499 9.14442 46.0458 8.92795 45.8551 8.92795C45.7537 8.92795 45.6764 8.99152 45.6764 9.11865H44.9633L44.965 9.12037ZM45.654 15.3516H46.8105L46.2382 11.8932H46.2245L45.6523 15.3516H45.654Z" fill="white"/>
<path fill-rule="evenodd" clip-rule="evenodd" d="M49.4944 15.8618V11.6905C49.4944 10.3419 50.156 9.36261 51.6835 9.36261C53.2111 9.36261 53.8847 10.3419 53.8847 11.6905V15.8618C53.8847 17.1984 53.2231 18.1897 51.6835 18.1897C50.1439 18.1897 49.4944 17.1984 49.4944 15.8618ZM52.4344 16.0903V11.4603C52.4344 10.938 52.2059 10.5704 51.6835 10.5704C51.1612 10.5704 50.9447 10.938 50.9447 11.4603V16.0903C50.9447 16.6126 51.1732 16.9803 51.6835 16.9803C52.1939 16.9803 52.4344 16.6126 52.4344 16.0903Z" fill="white"/>
<path fill-rule="evenodd" clip-rule="evenodd" d="M56.3143 15.8618V11.6905C56.3143 10.3419 56.9501 9.36261 58.4777 9.36261C60.0809 9.36261 60.5259 10.2543 60.5259 11.5256V12.5426H59.2028V11.4105C59.2028 10.8762 59.0241 10.5704 58.5034 10.5704C57.9828 10.5704 57.7663 10.938 57.7663 11.4603V16.0903C57.7663 16.6126 57.9828 16.9803 58.5034 16.9803C59.0241 16.9803 59.2028 16.6504 59.2028 16.1419V14.551H60.5259V16.0405C60.5259 17.2758 60.0173 18.1897 58.4777 18.1897C56.9381 18.1897 56.3143 17.1984 56.3143 15.8618Z" fill="white"/>
<path fill-rule="evenodd" clip-rule="evenodd" d="M61.4538 15.8618V11.6905C61.4538 10.3419 62.1153 9.36261 63.6412 9.36261C65.167 9.36261 65.8423 10.3419 65.8423 11.6905V15.8618C65.8423 17.1984 65.1808 18.1897 63.6412 18.1897C62.1016 18.1897 61.4538 17.1984 61.4538 15.8618ZM64.3921 16.0903V11.4603C64.3921 10.938 64.1636 10.5704 63.6412 10.5704C63.1188 10.5704 62.904 10.938 62.904 11.4603V16.0903C62.904 16.6126 63.1326 16.9803 63.6412 16.9803C64.1498 16.9803 64.3921 16.6126 64.3921 16.0903Z" fill="white"/>
<path fill-rule="evenodd" clip-rule="evenodd" d="M68.0315 12.6681V18.0867H66.8114V9.46399H68.2359L69.7996 14.4119V9.46399H71.0092V18.0867H69.736L68.0315 12.6681Z" fill="white"/>
<path fill-rule="evenodd" clip-rule="evenodd" d="M71.81 9.46399H75.6641V10.6477H74.4699V18.0867H73.0059V10.6477H71.81V9.46399Z" fill="white"/>
<path fill-rule="evenodd" clip-rule="evenodd" d="M77.9288 14.1301V18.0867H76.4786V9.46399H78.5904C80.0527 9.46399 80.5888 10.189 80.5888 11.3968V12.5032C80.5888 13.4309 80.2588 13.9772 79.4306 14.1679L80.819 18.0867H79.2915L77.9306 14.1301H77.9288ZM77.9288 10.6477V13.3312H78.4117C78.9083 13.3312 79.1248 13.077 79.1248 12.62V11.3469C79.1248 10.8762 78.9083 10.6494 78.4117 10.6494H77.9288V10.6477Z" fill="white"/>
<path fill-rule="evenodd" clip-rule="evenodd" d="M81.2881 18.0867L82.9171 9.46399H84.5701L86.211 18.0867H84.723L84.4549 16.5096H82.9153L82.661 18.0867H81.2864H81.2881ZM83.1078 15.3516H84.2642L83.692 11.8933H83.6783L83.1061 15.3516H83.1078Z" fill="white"/>
<path fill-rule="evenodd" clip-rule="evenodd" d="M88.1974 18.0867L89.8246 9.46399H91.4794L93.1204 18.0867H91.6323L91.3643 16.5096H89.8246L89.5703 18.0867H88.1974ZM90.0154 15.3516H91.1735L90.5996 11.8933H90.5876L90.0137 15.3516H90.0154Z" fill="white"/>
<path fill-rule="evenodd" clip-rule="evenodd" d="M37.4594 24.7285H37.4216L36.4422 30.3258H35.7687L34.6861 24.7285H34.662V30.3258H33.4644V21.6996H35.1569L36.0986 26.5599H36.1106L36.9508 21.6996H38.7826V30.3258H37.4594V24.7285Z" fill="white"/>
<path fill-rule="evenodd" clip-rule="evenodd" d="M43.6316 21.6996V28.2246C43.6316 29.5613 43.0577 30.4254 41.5834 30.4254C40.1091 30.4254 39.4218 29.5595 39.4218 28.2246V21.6996H40.872V28.3655C40.872 28.8741 41.0747 29.2159 41.5834 29.2159C42.092 29.2159 42.2965 28.8741 42.2965 28.3655V21.6996H43.6333H43.6316Z" fill="white"/>
<path fill-rule="evenodd" clip-rule="evenodd" d="M48.6043 24.0155V28.0082C48.6043 29.3311 48.0579 30.3241 46.5046 30.3241H44.2674V21.6979H46.5046C48.0562 21.6979 48.6043 22.6772 48.6043 24.0138V24.0155ZM46.3276 29.1404C46.9256 29.1404 47.1558 28.7847 47.1558 28.2624V23.7475C47.1558 23.239 46.9256 22.8816 46.3276 22.8816H45.7176V29.1404H46.3276Z" fill="white"/>
<path fill-rule="evenodd" clip-rule="evenodd" d="M49.0116 30.3258L50.6422 21.6996H52.2952L53.9362 30.3258H52.4482L52.1819 28.7469H50.6422L50.3862 30.3258H49.0116ZM50.8313 27.5907H51.9894L51.4155 24.1306H51.4035L50.8295 27.5907H50.8313Z" fill="white"/>
<path fill-rule="evenodd" clip-rule="evenodd" d="M55.5635 24.9072V30.3258H54.3434V21.6996H55.7679L57.3316 26.6475V21.6996H58.5413V30.3258H57.2697L55.5635 24.9072Z" fill="white"/>
<path fill-rule="evenodd" clip-rule="evenodd" d="M60.7166 31.202C61.1239 31.1882 61.1875 31.1006 61.1875 30.9975C61.1875 30.9099 61.1119 30.8584 60.9847 30.8584H60.9211V30.3876C59.6874 30.2347 59.1771 29.307 59.1771 28.0975V23.9262C59.1771 22.5758 59.8128 21.5966 61.3386 21.5966C62.9418 21.5966 63.3869 22.4865 63.3869 23.7595V24.7766H62.0638V23.6444C62.0638 23.1101 61.8851 22.8043 61.3662 22.8043C60.8472 22.8043 60.629 23.1737 60.629 23.696V28.326C60.629 28.8466 60.8455 29.2159 61.3662 29.2159C61.8868 29.2159 62.0638 28.8861 62.0638 28.3758V26.785H63.3869V28.2745C63.3869 29.4822 62.904 30.3722 61.4675 30.4237V30.5388C61.8095 30.5903 62.0019 30.7175 62.0019 30.9958C62.0019 31.3909 61.6325 31.6074 60.7166 31.6074V31.2002V31.202Z" fill="white"/>
<path fill-rule="evenodd" clip-rule="evenodd" d="M63.7563 30.3258L65.387 21.6996H67.04L68.681 30.3258H67.1929L66.9266 28.7469H65.387L65.1327 30.3258H63.758H63.7563ZM65.576 27.5907H66.7341L66.1619 24.1306H66.1499L65.576 27.5907Z" fill="white"/>
<path fill-rule="evenodd" clip-rule="evenodd" d="M72.4217 25.7198H74.482V30.324H73.4389V29.3826C73.2482 30.032 72.841 30.4254 72.0523 30.4254C70.8048 30.4254 70.2326 29.4324 70.2326 28.0975V23.9262C70.2326 22.5758 70.8804 21.5966 72.408 21.5966C74.0111 21.5966 74.482 22.4865 74.482 23.7595V24.5223H73.1571V23.6444C73.1571 23.1101 72.9544 22.8043 72.432 22.8043C71.9096 22.8043 71.6811 23.1737 71.6811 23.696V28.326C71.6811 28.8466 71.8976 29.2159 72.3925 29.2159C72.8873 29.2159 73.1056 28.9496 73.1056 28.3896V26.8623H72.4183V25.7181L72.4217 25.7198Z" fill="white"/>
<path fill-rule="evenodd" clip-rule="evenodd" d="M75.1177 21.6996H76.568V29.1403H78.2983V30.3258H75.1177V21.6996Z" fill="white"/>
<path fill-rule="evenodd" clip-rule="evenodd" d="M78.7708 28.0992V23.9279C78.7708 22.5775 79.4307 21.5983 80.9582 21.5983C82.4858 21.5983 83.1594 22.5775 83.1594 23.9279V28.0992C83.1594 29.4341 82.4978 30.4271 80.9582 30.4271C79.4186 30.4271 78.7708 29.4341 78.7708 28.0992ZM81.7091 28.3277V23.6977C81.7091 23.1754 81.4806 22.806 80.9582 22.806C80.4359 22.806 80.2193 23.1754 80.2193 23.6977V28.3277C80.2193 28.8483 80.4496 29.2176 80.9582 29.2176C81.4668 29.2176 81.7091 28.8483 81.7091 28.3277Z" fill="white"/>
<path fill-rule="evenodd" clip-rule="evenodd" d="M83.7951 21.6996H85.8949C87.3451 21.6996 87.8297 22.3748 87.8297 23.5963V24.4742C87.8297 25.1992 87.5616 25.6562 86.9637 25.8469C87.6888 26.0118 88.0462 26.4963 88.0462 27.2849V28.4291C88.0462 29.6506 87.498 30.3258 86.0478 30.3258H83.7951V21.6996ZM85.2454 25.3384H85.754C86.2248 25.3384 86.4413 25.0979 86.4413 24.6392V23.5843C86.4413 23.1136 86.2248 22.8833 85.7419 22.8833H85.2471V25.3384H85.2454ZM85.2454 26.4448V29.1403H85.8811C86.364 29.1403 86.5942 28.8998 86.5942 28.4411V27.144C86.5942 26.6853 86.3777 26.4448 85.8691 26.4448H85.2454Z" fill="white"/>
<path fill-rule="evenodd" clip-rule="evenodd" d="M88.3503 30.3258L89.9776 21.6996H91.6323L93.2733 30.3258H91.7852L91.5172 28.7469H89.9776L89.7233 30.3258H88.3503ZM90.1683 27.5907H91.3264L90.7542 24.1306H90.7422L90.1683 27.5907Z" fill="white"/>
<path fill-rule="evenodd" clip-rule="evenodd" d="M93.6805 21.6996H95.1308V29.1403H96.8594V30.3258H93.6805V21.6996Z" fill="white"/>
<path fill-rule="evenodd" clip-rule="evenodd" d="M37.8048 35.5777V39.5721C37.8048 40.895 37.2584 41.8863 35.7051 41.8863H33.4661V33.2618H35.7051C37.2584 33.2618 37.8048 34.2411 37.8048 35.576V35.5777ZM35.5264 40.7043C36.1243 40.7043 36.3546 40.3486 36.3546 39.8264V35.3097C36.3546 34.8012 36.126 34.4456 35.5264 34.4456H34.9164V40.7043H35.5264Z" fill="white"/>
<path fill-rule="evenodd" clip-rule="evenodd" d="M38.4389 39.6614V35.4884C38.4389 34.1397 39.1004 33.1605 40.628 33.1605C42.1556 33.1605 42.8291 34.1397 42.8291 35.4884V39.6614C42.8291 40.9963 42.1676 41.9876 40.628 41.9876C39.0884 41.9876 38.4389 40.9963 38.4389 39.6614ZM41.3789 39.8916V35.2599C41.3789 34.7376 41.1504 34.3699 40.628 34.3699C40.1056 34.3699 39.8909 34.7393 39.8909 35.2599V39.8916C39.8909 40.4122 40.1194 40.7816 40.628 40.7816C41.1366 40.7816 41.3789 40.4122 41.3789 39.8916Z" fill="white"/>
<path fill-rule="evenodd" clip-rule="evenodd" d="M44.6093 39.6614V35.4884C44.6093 34.1397 45.2451 33.1605 46.7709 33.1605C48.3741 33.1605 48.8209 34.0504 48.8209 35.3217V36.3388H47.4978V35.2066C47.4978 34.6723 47.3191 34.3682 46.7967 34.3682C46.2743 34.3682 46.0595 34.7376 46.0595 35.2582V39.8899C46.0595 40.4105 46.276 40.7798 46.7967 40.7798C47.3173 40.7798 47.4978 40.45 47.4978 39.9397V38.3489H48.8209V39.8384C48.8209 41.0719 48.3122 41.9876 46.7709 41.9876C45.2296 41.9876 44.6093 40.9963 44.6093 39.6614Z" fill="white"/>
<path fill-rule="evenodd" clip-rule="evenodd" d="M49.4188 33.2635H50.8691V40.7043H52.5994V41.888H49.4188V33.2635Z" fill="white"/>
<path d="M54.5204 33.2635H53.0702V41.888H54.5204V33.2635Z" fill="white"/>
<path fill-rule="evenodd" clip-rule="evenodd" d="M59.1633 36.2907H59.1255L58.1461 41.888H57.4725L56.39 36.2907H56.3659V41.888H55.17V33.2635H56.8608L57.8024 38.1238H57.8161L58.6547 33.2635H60.4864V41.888H59.1633V36.2907Z" fill="white"/>
<path fill-rule="evenodd" clip-rule="evenodd" d="M60.8936 41.888L62.5226 33.2635H64.1773L65.8183 41.888H64.3285L64.0604 40.3108H62.5209L62.2665 41.888H60.8919H60.8936ZM62.7133 39.1529H63.8697L63.2975 35.6911H63.2838L62.7116 39.1529H62.7133Z" fill="white"/>
</svg>
