<svg width="105" height="105" viewBox="0 0 105 105" fill="none" xmlns="http://www.w3.org/2000/svg">
<path d="M104.075 0.836121H0.674454V104.224H104.075V0.836121Z" fill="#BB882C"/>
<path fill-rule="evenodd" clip-rule="evenodd" d="M10.9963 14.4204H11.0289V30.3773H14.5325V9.53442H11.7334L8.50473 13.314V16.9734H8.53567L10.9963 14.4204Z" fill="white"/>
<path fill-rule="evenodd" clip-rule="evenodd" d="M16.6237 13.838V16.3583H19.8215V13.7435C19.8215 12.4842 20.4366 12.1148 21.1738 12.1148C21.8508 12.1148 22.435 12.3914 22.435 13.6834V15.4031C22.435 17.1263 22.2821 17.8015 21.1411 19.0006L19.1737 21.0932C17.2681 23.1221 16.5584 24.4759 16.5584 26.5358V30.379H25.662V27.5185H19.9108V26.5358C19.9108 24.9054 20.495 24.2921 21.3886 23.3369L23.6326 20.9695C25.4472 19.0333 25.8475 17.8014 25.8475 15.7106V13.6834C25.8475 10.6992 24.4024 9.28528 21.2648 9.28528C18.1272 9.28528 16.622 10.914 16.622 13.8363L16.6237 13.838Z" fill="white"/>
<path fill-rule="evenodd" clip-rule="evenodd" d="M80.6939 56.2179C76.4772 52.8884 71.4203 52.5293 69.4425 52.5293C68.3995 52.5293 67.4338 52.6221 66.7276 52.7904L66.4492 52.854C63.779 53.4845 59.3097 54.5411 54.105 60.9974L53.9521 61.1881C53.8661 61.3101 53.8215 61.4423 53.8215 61.5763C53.8215 61.6949 53.8507 61.8083 53.9142 61.9199L54.0328 62.1141C54.892 63.5486 55.6068 64.7976 56.1738 65.8576C56.3766 66.251 56.9195 66.3799 57.2873 66.014C57.3233 65.9659 57.3594 65.916 57.3835 65.8765C61.8786 59.6608 65.4011 58.8327 67.7328 58.2846L68.0215 58.2159C68.3428 58.1403 68.8634 58.0957 69.4477 58.0957C70.5319 58.0957 74.2984 58.276 77.2384 60.5971C79.852 62.6587 81.1785 65.9555 81.1785 70.3932C81.1785 77.827 77.5804 80.727 74.5613 81.8523C73.4101 82.2818 72.1695 82.5 70.8739 82.5C67.7655 82.5 65.3719 81.2561 65.3392 81.239L65.1244 81.1342C62.5281 80.0072 58.6499 77.6586 54.9865 70.2987C47.474 55.2111 41.161 53.7817 36.9821 52.8334L36.7622 52.7836C36.4426 52.7114 35.5387 52.543 34.0679 52.543C31.6485 52.543 26.9936 53.0189 23.0037 56.2024C20.2785 58.374 17.0309 62.5934 17.0309 70.3605C17.0309 75.0919 18.0052 78.217 20.5053 81.5035C20.9762 82.1444 25.3286 87.7674 33.6881 87.7674C34.927 87.7674 36.2123 87.642 37.5045 87.3929C39.032 87.1008 41.3878 86.3466 44.0168 84.4173L46.2145 86.3999C46.4603 86.6249 46.8864 86.6009 47.1063 86.3586C47.2129 86.2435 47.2696 86.0906 47.2644 85.9394L48.9655 75.4699V75.3462C48.9655 75.1692 48.8848 74.9974 48.7611 74.8909C48.6494 74.7844 48.505 74.7277 48.3212 74.7277H48.316L38.1214 77.547L37.9272 77.5796C37.8 77.6071 37.6849 77.6741 37.6024 77.7669C37.4873 77.8923 37.4271 78.0572 37.4375 78.229C37.4461 78.3974 37.5217 78.5537 37.6471 78.6637L39.7589 80.5741C38.6489 81.2561 37.5388 81.7063 36.458 81.9142C35.5387 82.0894 34.628 82.1787 33.7534 82.1787C27.9765 82.1787 25.1344 78.3888 25.0159 78.229L24.9592 78.15C23.2013 75.8427 22.6085 73.8756 22.6085 70.3623C22.6085 65.9109 23.9127 62.614 26.4816 60.561C29.3408 58.2812 33.0197 58.1025 34.0799 58.1025C34.659 58.1025 35.1848 58.1472 35.525 58.2228L35.7501 58.2743C39.087 59.0302 43.6543 60.0628 49.9879 72.7829C53.3335 79.4986 57.5278 83.8899 62.7996 86.2075C63.413 86.5184 66.6847 88.0784 70.8756 88.0784C72.8327 88.0784 74.728 87.7416 76.5099 87.0802C79.5908 85.9309 86.7544 82.0035 86.7544 70.3932C86.7544 62.6329 83.4587 58.4032 80.6939 56.2196V56.2179Z" fill="white"/>
<path fill-rule="evenodd" clip-rule="evenodd" d="M33.6847 15.7519V11.663C33.6847 10.3419 34.3084 9.38153 35.8033 9.38153C37.3739 9.38153 37.8103 10.2543 37.8103 11.5015V12.498H36.513V11.3882C36.513 10.8659 36.3395 10.5652 35.8257 10.5652C35.3119 10.5652 35.104 10.9277 35.104 11.438V15.9753C35.104 16.4855 35.3171 16.848 35.8257 16.848C36.3343 16.848 36.513 16.5233 36.513 16.0251V14.4668H37.8103V15.9254C37.8103 17.1349 37.3103 18.0317 35.8033 18.0317C34.2964 18.0317 33.6847 17.0593 33.6847 15.7502V15.7519Z" fill="white"/>
<path fill-rule="evenodd" clip-rule="evenodd" d="M38.5698 15.7519V11.663C38.5698 10.3419 39.2176 9.38153 40.7143 9.38153C42.2109 9.38153 42.8707 10.3419 42.8707 11.663V15.7519C42.8707 17.061 42.2229 18.0334 40.7143 18.0334C39.2056 18.0334 38.5698 17.061 38.5698 15.7519ZM41.4497 15.977V11.4397C41.4497 10.9295 41.2246 10.567 40.7143 10.567C40.2039 10.567 39.9909 10.9295 39.9909 11.4397V15.977C39.9909 16.4872 40.216 16.8497 40.7143 16.8497C41.2126 16.8497 41.4497 16.4872 41.4497 15.977Z" fill="white"/>
<path fill-rule="evenodd" clip-rule="evenodd" d="M44.8657 12.6234V17.9337H43.668V9.48285H45.065L46.5977 14.3311V9.48285H47.7816V17.9337H46.5376L44.8657 12.6234Z" fill="white"/>
<path fill-rule="evenodd" clip-rule="evenodd" d="M48.505 16.1144V14.9788H49.8264V16.1402C49.8264 16.6143 50.0395 16.8875 50.5258 16.8875C50.9742 16.8875 51.1736 16.5886 51.1736 16.1402V15.8155C51.1736 15.3293 50.9742 15.0303 50.5378 14.6197L49.7027 13.7848C48.8916 12.9876 48.5188 12.5014 48.5188 11.529V11.2421C48.5188 10.1941 49.1288 9.38324 50.5137 9.38324C51.8987 9.38324 52.4966 10.0825 52.4966 11.3023V11.9895H51.1993V11.2541C51.1993 10.7679 50.9742 10.5309 50.5258 10.5309C50.1271 10.5309 49.8522 10.7559 49.8522 11.2301V11.4036C49.8522 11.8778 50.1151 12.1527 50.5258 12.5495L51.4347 13.448C52.208 14.2332 52.5826 14.7074 52.5826 15.642V16.0543C52.5826 17.2139 51.9588 18.0351 50.5137 18.0351C49.0686 18.0351 48.505 17.2242 48.505 16.1161V16.1144Z" fill="white"/>
<path fill-rule="evenodd" clip-rule="evenodd" d="M57.4436 9.48285V15.8773C57.4436 17.1864 56.8817 18.0351 55.4349 18.0351C53.9881 18.0351 53.3163 17.1881 53.3163 15.8773V9.48285H54.7356V16.0164C54.7356 16.5147 54.9366 16.8514 55.4349 16.8514C55.9332 16.8514 56.1326 16.5147 56.1326 16.0164V9.48285H57.4419H57.4436Z" fill="white"/>
<path fill-rule="evenodd" clip-rule="evenodd" d="M62.1432 12.4481H62.1054L61.1449 17.9337H60.4833L59.4248 12.4481H59.3991V17.9337H58.2289V9.48285H59.8853L60.8081 14.2435H60.8201L61.6449 9.48285H63.4388V17.9337H62.1432V12.4481Z" fill="white"/>
<path fill-rule="evenodd" clip-rule="evenodd" d="M64.2378 15.7519V11.663C64.2378 10.3419 64.8856 9.38153 66.3805 9.38153C67.8754 9.38153 68.5387 10.3419 68.5387 11.663V15.7519C68.5387 17.061 67.8909 18.0334 66.3805 18.0334C64.8701 18.0334 64.2378 17.061 64.2378 15.7519ZM67.1159 15.977V11.4397C67.1159 10.9295 66.8926 10.567 66.3805 10.567C65.8685 10.567 65.6588 10.9295 65.6588 11.4397V15.977C65.6588 16.4872 65.8839 16.8497 66.3805 16.8497C66.8771 16.8497 67.1159 16.4872 67.1159 15.977Z" fill="white"/>
<path fill-rule="evenodd" clip-rule="evenodd" d="M70.6196 9.48285H74.0098V10.6425H72.0406V13.0597H73.4496V14.2074H72.0406V16.7741H74.0098V17.9337H70.6196V9.48285Z" fill="white"/>
<path fill-rule="evenodd" clip-rule="evenodd" d="M33.6847 21.8954H35.7913C37.2261 21.8954 37.7485 22.605 37.7485 23.7904V25.5737C37.7485 26.7574 37.2261 27.4807 35.7913 27.4807H35.1057V30.3463H33.6847V21.8954ZM35.1057 23.0568V26.3846H35.6298C36.1161 26.3846 36.3275 26.1475 36.3275 25.6871V23.7423C36.3275 23.2802 36.1161 23.0568 35.6298 23.0568H35.1057Z" fill="white"/>
<path fill-rule="evenodd" clip-rule="evenodd" d="M40.0287 26.4705V30.3463H38.6076V21.8954H40.6765C42.1113 21.8954 42.6336 22.605 42.6336 23.7904V24.8762C42.6336 25.7867 42.3088 26.3228 41.4995 26.5083L42.8587 30.3481H41.3638L40.0304 26.4722L40.0287 26.4705ZM40.0287 23.0568V25.6871H40.5029C40.9892 25.6871 41.2005 25.438 41.2005 24.9879V23.7423C41.2005 23.2802 40.9892 23.0568 40.5029 23.0568H40.0287Z" fill="white"/>
<path fill-rule="evenodd" clip-rule="evenodd" d="M43.5185 28.1662V24.0773C43.5185 22.7561 44.1663 21.7975 45.663 21.7975C47.1596 21.7975 47.8194 22.7579 47.8194 24.0773V28.1662C47.8194 29.4753 47.1716 30.4477 45.663 30.4477C44.1543 30.4477 43.5185 29.4753 43.5185 28.1662ZM46.4001 28.3895V23.8522C46.4001 23.342 46.175 22.9795 45.6647 22.9795C45.1543 22.9795 44.9413 23.342 44.9413 23.8522V28.3895C44.9413 28.8998 45.1664 29.2622 45.6647 29.2622C46.163 29.2622 46.4001 28.8998 46.4001 28.3895Z" fill="white"/>
<path fill-rule="evenodd" clip-rule="evenodd" d="M53.0053 24.1649V28.0786C53.0053 29.3757 52.4691 30.3463 50.9484 30.3463H48.7542V21.8954H50.9484C52.4691 21.8954 53.0053 22.8558 53.0053 24.1649ZM50.7749 29.1884C51.3608 29.1884 51.586 28.8396 51.586 28.3294V23.9055C51.586 23.4073 51.3608 23.0585 50.7749 23.0585H50.1769V29.1901H50.7749V29.1884Z" fill="white"/>
<path fill-rule="evenodd" clip-rule="evenodd" d="M58.0674 21.8954V28.2899C58.0674 29.599 57.5055 30.4477 56.0587 30.4477C54.6119 30.4477 53.94 29.6007 53.94 28.2899V21.8954H55.3628V28.429C55.3628 28.9273 55.5621 29.264 56.0604 29.264C56.5587 29.264 56.7598 28.9273 56.7598 28.429V21.8954H58.0691H58.0674Z" fill="white"/>
<path fill-rule="evenodd" clip-rule="evenodd" d="M60.4971 31.207C60.8957 31.195 60.9576 31.1091 60.9576 31.0095C60.9576 30.9218 60.8837 30.872 60.7582 30.872H60.6964V30.4099C59.4867 30.2604 58.9884 29.3516 58.9884 28.1662V24.0773C58.9884 22.7561 59.6121 21.7975 61.107 21.7975C62.6793 21.7975 63.1157 22.6685 63.1157 23.9158V24.9122H61.8184V23.8024C61.8184 23.2784 61.6449 22.9778 61.1328 22.9778C60.6208 22.9778 60.4094 23.3403 60.4094 23.8505V28.3878C60.4094 28.898 60.6208 29.2605 61.1328 29.2605C61.6449 29.2605 61.8184 28.9375 61.8184 28.4376V26.8794H63.1157V28.338C63.1157 29.5217 62.6415 30.3944 61.2325 30.4442V30.5559C61.5693 30.6057 61.7566 30.7311 61.7566 31.006C61.7566 31.3926 61.394 31.6039 60.4971 31.6039V31.2036V31.207Z" fill="white"/>
<path fill-rule="evenodd" clip-rule="evenodd" d="M63.7876 30.3463L65.3822 21.8955H67.0043L68.6126 30.3463H67.1538L66.8926 28.8019H65.3839L65.1348 30.3463H63.7876ZM64.8976 21.5604C64.9234 20.9746 65.1468 20.5004 65.7705 20.5004C66.1331 20.5004 66.4304 20.7135 66.6176 20.7135C66.7173 20.7135 66.7912 20.6499 66.7912 20.5245H67.4888C67.463 21.1103 67.2397 21.5845 66.6159 21.5845C66.2534 21.5845 65.9561 21.3732 65.7688 21.3732C65.6674 21.3732 65.5952 21.435 65.5952 21.5604H64.8959H64.8976ZM65.5712 27.6663H66.7053L66.1434 24.2766H66.1314L65.5695 27.6663H65.5712Z" fill="white"/>
<path fill-rule="evenodd" clip-rule="evenodd" d="M69.3222 28.1662V24.0773C69.3222 22.7561 69.97 21.7975 71.4667 21.7975C72.9633 21.7975 73.6231 22.7579 73.6231 24.0773V28.1662C73.6231 29.4753 72.9753 30.4477 71.4667 30.4477C69.958 30.4477 69.3222 29.4753 69.3222 28.1662ZM72.2021 28.3895V23.8522C72.2021 23.342 71.977 22.9795 71.4667 22.9795C70.9563 22.9795 70.745 23.342 70.745 23.8522V28.3895C70.745 28.8998 70.9684 29.2622 71.4667 29.2622C71.965 29.2622 72.2021 28.8998 72.2021 28.3895Z" fill="white"/>
<path fill-rule="evenodd" clip-rule="evenodd" d="M35.1057 38.8849V42.7607H33.6847V34.3098H35.7535C37.1883 34.3098 37.7107 35.0194 37.7107 36.2048V37.2888C37.7107 38.1977 37.3876 38.7337 36.5766 38.921L37.9358 42.7607H36.4391L35.1057 38.8849ZM35.1057 35.4695V38.0997H35.58C36.0663 38.0997 36.2776 37.8506 36.2776 37.4005V36.1532C36.2776 35.6911 36.0663 35.4678 35.58 35.4678H35.1057V35.4695Z" fill="white"/>
<path fill-rule="evenodd" clip-rule="evenodd" d="M38.5217 34.3098H41.9102V35.4695H39.9428V37.8867H41.3517V39.0343H39.9428V41.6011H41.9102V42.7607H38.5217V34.3098Z" fill="white"/>
<path fill-rule="evenodd" clip-rule="evenodd" d="M42.6216 40.9414V39.8075H43.943V40.9671C43.943 41.4413 44.1543 41.7162 44.6406 41.7162C45.0891 41.7162 45.2884 41.4155 45.2884 40.9671V40.6441C45.2884 40.1562 45.089 39.859 44.6526 39.4467L43.8175 38.6117C43.0082 37.8146 42.6319 37.3284 42.6319 36.356V36.0691C42.6319 35.0228 43.2436 34.2119 44.6268 34.2119C46.0101 34.2119 46.6097 34.9112 46.6097 36.1309V36.8164H45.3124V36.0828C45.3124 35.5949 45.0873 35.3578 44.6389 35.3578C44.2402 35.3578 43.967 35.5829 43.967 36.0571V36.2306C43.967 36.7065 44.2282 36.9796 44.6389 37.3782L45.5496 38.2767C46.3211 39.0619 46.6957 39.5343 46.6957 40.4706V40.8812C46.6957 42.0409 46.0719 42.8638 44.6268 42.8638C43.1818 42.8638 42.6199 42.0529 42.6199 40.9431L42.6216 40.9414Z" fill="white"/>
<path fill-rule="evenodd" clip-rule="evenodd" d="M47.4706 34.3098H49.5773C51.0103 34.3098 51.5344 35.0194 51.5344 36.2048V37.9864C51.5344 39.1701 51.0103 39.8951 49.5773 39.8951H48.8917V42.7607H47.4689V34.3098H47.4706ZM48.8917 35.4695V38.7973H49.414C49.9003 38.7973 50.1116 38.5602 50.1116 38.0997V36.155C50.1116 35.6928 49.8986 35.4695 49.414 35.4695H48.8917Z" fill="white"/>
<path fill-rule="evenodd" clip-rule="evenodd" d="M52.3076 40.5806V36.4917C52.3076 35.1706 52.9554 34.2102 54.4521 34.2102C55.9487 34.2102 56.6085 35.1706 56.6085 36.4917V40.5806C56.6085 41.8897 55.9607 42.8621 54.4521 42.8621C52.9434 42.8621 52.3076 41.8897 52.3076 40.5806ZM55.1875 40.8039V36.2649C55.1875 35.7547 54.9624 35.3939 54.4521 35.3939C53.9417 35.3939 53.7287 35.7564 53.7287 36.2649V40.8039C53.7287 41.3142 53.9538 41.6767 54.4521 41.6767C54.9504 41.6767 55.1875 41.3142 55.1875 40.8039Z" fill="white"/>
<path fill-rule="evenodd" clip-rule="evenodd" d="M58.6516 37.4503V42.7607H57.4557V34.3098H58.8509L60.3854 39.158V34.3098H61.5693V42.7607H60.3235L58.6516 37.4503Z" fill="white"/>
<path fill-rule="evenodd" clip-rule="evenodd" d="M62.3425 40.9414V39.8075H63.6639V40.9671C63.6639 41.4413 63.8752 41.7162 64.3615 41.7162C64.81 41.7162 65.0093 41.4155 65.0093 40.9671V40.6441C65.0093 40.1562 64.81 39.859 64.3735 39.4467L63.5384 38.6117C62.7291 37.8146 62.3545 37.3284 62.3545 36.356V36.0691C62.3545 35.0228 62.9662 34.2119 64.3495 34.2119C65.7327 34.2119 66.3307 34.9112 66.3307 36.1309V36.8164H65.0334V36.0828C65.0334 35.5949 64.8083 35.3578 64.3598 35.3578C63.9629 35.3578 63.6879 35.5829 63.6879 36.0571V36.2306C63.6879 36.7065 63.9491 36.9796 64.3598 37.3782L65.2705 38.2767C66.0437 39.0619 66.4166 39.5343 66.4166 40.4706V40.8812C66.4166 42.0409 65.7929 42.8638 64.3478 42.8638C62.9027 42.8638 62.3408 42.0529 62.3408 40.9431L62.3425 40.9414Z" fill="white"/>
<path fill-rule="evenodd" clip-rule="evenodd" d="M66.9665 42.7607L68.5627 34.3098H70.1831L71.7914 42.7607H70.3326L70.0714 41.2162H68.5627L68.3136 42.7607H66.9665ZM70.5319 33.712L68.2999 33.9989V33.2L70.5319 32.7258V33.712ZM68.7483 40.0806H69.8841L69.3222 36.691H69.3085L68.7466 40.0806H68.7483Z" fill="white"/>
<path fill-rule="evenodd" clip-rule="evenodd" d="M76.9635 34.3098L75.3552 42.7607H73.8104L72.2021 34.3098H73.6489L74.6198 40.206H74.6335L75.6301 34.3098H76.9635Z" fill="white"/>
<path fill-rule="evenodd" clip-rule="evenodd" d="M77.5873 34.3098H80.9792V35.4695H79.0083V37.8867H80.4173V39.0343H79.0083V41.6011H80.9792V42.7607H77.5873V34.3098Z" fill="white"/>
<path d="M83.1838 34.3098H81.7627V42.7607H83.1838V34.3098Z" fill="white"/>
<path fill-rule="evenodd" clip-rule="evenodd" d="M83.957 40.9414V39.8075H85.2784V40.9671C85.2784 41.4413 85.4914 41.7162 85.976 41.7162C86.4245 41.7162 86.6238 41.4155 86.6238 40.9671V40.6441C86.6238 40.1562 86.4245 39.859 85.988 39.4467L85.1529 38.6117C84.3419 37.8146 83.969 37.3284 83.969 36.356V36.0691C83.969 35.0228 84.579 34.2119 85.964 34.2119C87.3489 34.2119 87.9452 34.9112 87.9452 36.1309V36.8164H86.6478V36.0828C86.6478 35.5949 86.4228 35.3578 85.9743 35.3578C85.5756 35.3578 85.3007 35.5829 85.3007 36.0571V36.2306C85.3007 36.7065 85.5619 36.9796 85.9743 37.3782L86.8833 38.2767C87.6565 39.0619 88.0311 39.5343 88.0311 40.4706V40.8812C88.0311 42.0409 87.4073 42.8638 85.9622 42.8638C84.5172 42.8638 83.9536 42.0529 83.9536 40.9431L83.957 40.9414Z" fill="white"/>
</svg>
