<svg width="105" height="105" viewBox="0 0 105 105" fill="none" xmlns="http://www.w3.org/2000/svg">
<path d="M104.239 0.836121H0.839813V104.223H104.239V0.836121Z" fill="#F8991D"/>
<path fill-rule="evenodd" clip-rule="evenodd" d="M8.24915 13.2848V16.9408H8.27835L10.739 14.3895H10.7699V30.3464H14.2752V9.50177H11.4761L8.24915 13.2848Z" fill="white"/>
<path fill-rule="evenodd" clip-rule="evenodd" d="M16.2426 13.2848V16.9408H16.2753L18.7359 14.3895H18.7651V30.3464H22.2704V9.50177H19.4748L16.2426 13.2848Z" fill="white"/>
<path fill-rule="evenodd" clip-rule="evenodd" d="M18.6294 79.545H34.1834C34.393 79.545 34.5649 79.375 34.5649 79.1636C34.5649 79.0674 34.5236 78.9781 34.4635 78.9111L34.4429 78.8905L26.7037 68.8796L26.6298 68.7972C26.5593 68.7216 26.4597 68.6735 26.348 68.6735C26.2517 68.6735 26.1658 68.713 26.0971 68.7714L26.0507 68.8246L25.9785 68.9054L18.43 78.8114L18.3132 78.9541C18.272 79.0142 18.2479 79.0881 18.2479 79.1671C18.2479 79.3784 18.4197 79.5485 18.6311 79.5485L18.6294 79.545Z" fill="white"/>
<path fill-rule="evenodd" clip-rule="evenodd" d="M34.1353 80.9573H18.5503C18.3407 80.9573 18.1689 81.1291 18.1689 81.3387V93.5331C18.1689 93.7427 18.3407 93.9162 18.5503 93.9162H23.5678V86.2453C23.5678 86.0323 23.7379 85.8622 23.9492 85.8622H28.6041C28.8154 85.8622 28.9856 86.0306 28.9856 86.2453V93.9162H34.1336C34.3432 93.9162 34.515 93.7427 34.515 93.5331V81.3387C34.515 81.1291 34.3432 80.9573 34.1336 80.9573H34.1353Z" fill="white"/>
<path fill-rule="evenodd" clip-rule="evenodd" d="M87.9971 77.7652H72.5719C72.3623 77.7652 72.1939 77.9284 72.1939 78.1311V93.7049C72.1939 93.9076 72.3623 94.0708 72.5719 94.0708H87.9971C88.2068 94.0708 88.3752 93.9059 88.3752 93.7049V78.1311C88.3752 77.9267 88.205 77.7652 87.9971 77.7652ZM79.5568 87.9307C79.5568 88.1351 79.3902 88.3 79.1823 88.3H74.5738C74.3641 88.3 74.194 88.1351 74.194 87.9307V85.132C74.194 84.9276 74.3641 84.7644 74.5738 84.7644H79.1823C79.3902 84.7644 79.5568 84.9276 79.5568 85.132V87.9307ZM79.5568 82.756C79.5568 82.9605 79.3902 83.1237 79.1823 83.1237H74.5738C74.3641 83.1237 74.194 82.9605 74.194 82.756V79.9557C74.194 79.7529 74.3641 79.588 74.5738 79.588H79.1823C79.3902 79.588 79.5568 79.7529 79.5568 79.9557V82.756ZM86.6001 87.9307C86.6001 88.1351 86.4335 88.3 86.2221 88.3H81.6154C81.4057 88.3 81.2373 88.1351 81.2373 87.9307V85.132C81.2373 84.9276 81.4057 84.7644 81.6154 84.7644H86.2221C86.4318 84.7644 86.6001 84.9276 86.6001 85.132V87.9307ZM86.6001 82.756C86.6001 82.9605 86.4335 83.1237 86.2221 83.1237H81.6154C81.4057 83.1237 81.2373 82.9605 81.2373 82.756V79.9557C81.2373 79.7529 81.4057 79.588 81.6154 79.588H86.2221C86.4318 79.588 86.6001 79.7529 86.6001 79.9557V82.756Z" fill="white"/>
<path fill-rule="evenodd" clip-rule="evenodd" d="M52.1414 41.6165H37.0478C36.8451 41.6165 36.6767 41.7797 36.6767 41.9876V93.5674C36.6767 93.7702 36.8433 93.9351 37.0478 93.9351H52.1414C52.3441 93.9351 52.5142 93.7702 52.5142 93.5674V41.9876C52.5142 41.7797 52.3441 41.6165 52.1414 41.6165ZM43.1615 88.0595C43.1615 88.1677 43.0722 88.2571 42.9639 88.2571H39.5084C39.3984 88.2571 39.3091 88.1694 39.3091 88.0595V84.2077C39.3091 84.0995 39.3984 84.0119 39.5084 84.0119H42.9639C43.0722 84.0119 43.1615 84.0995 43.1615 84.2077V88.0595ZM43.1615 79.2152C43.1615 79.3269 43.0722 79.4127 42.9639 79.4127H39.5084C39.3984 79.4127 39.3091 79.3286 39.3091 79.2152V75.3651C39.3091 75.2534 39.3984 75.1658 39.5084 75.1658H42.9639C43.0722 75.1658 43.1615 75.2534 43.1615 75.3651V79.2152ZM43.1615 70.3708C43.1615 70.4808 43.0722 70.5701 42.9639 70.5701H39.5084C39.3984 70.5701 39.3091 70.4808 39.3091 70.3708V66.5191C39.3091 66.4091 39.3984 66.3215 39.5084 66.3215H42.9639C43.0722 66.3215 43.1615 66.4091 43.1615 66.5191V70.3708ZM43.1615 61.5265C43.1615 61.6348 43.0722 61.7241 42.9639 61.7241H39.5084C39.3984 61.7241 39.3091 61.6348 39.3091 61.5265V57.6748C39.3091 57.5648 39.3984 57.4772 39.5084 57.4772H42.9639C43.0722 57.4772 43.1615 57.5648 43.1615 57.6748V61.5265ZM43.1615 52.6839C43.1615 52.7922 43.0722 52.8815 42.9639 52.8815H39.5084C39.3984 52.8815 39.3091 52.7905 39.3091 52.6839V48.8322C39.3091 48.7205 39.3984 48.6329 39.5084 48.6329H42.9639C43.0722 48.6329 43.1615 48.7205 43.1615 48.8322V52.6839ZM49.9402 88.0595C49.9402 88.1677 49.8509 88.2571 49.7409 88.2571H46.2871C46.1754 88.2571 46.0878 88.1694 46.0878 88.0595V84.2077C46.0878 84.0995 46.1754 84.0119 46.2871 84.0119H49.7409C49.8509 84.0119 49.9402 84.0995 49.9402 84.2077V88.0595ZM49.9402 79.2152C49.9402 79.3269 49.8509 79.4127 49.7409 79.4127H46.2871C46.1754 79.4127 46.0878 79.3286 46.0878 79.2152V75.3651C46.0878 75.2534 46.1754 75.1658 46.2871 75.1658H49.7409C49.8509 75.1658 49.9402 75.2534 49.9402 75.3651V79.2152ZM49.9402 70.3708C49.9402 70.4808 49.8509 70.5701 49.7409 70.5701H46.2871C46.1754 70.5701 46.0878 70.4808 46.0878 70.3708V66.5191C46.0878 66.4091 46.1754 66.3215 46.2871 66.3215H49.7409C49.8509 66.3215 49.9402 66.4091 49.9402 66.5191V70.3708ZM49.9402 61.5265C49.9402 61.6348 49.8509 61.7241 49.7409 61.7241H46.2871C46.1754 61.7241 46.0878 61.6348 46.0878 61.5265V57.6748C46.0878 57.5648 46.1754 57.4772 46.2871 57.4772H49.7409C49.8509 57.4772 49.9402 57.5648 49.9402 57.6748V61.5265ZM49.9402 52.6839C49.9402 52.7922 49.8509 52.8815 49.7409 52.8815H46.2871C46.1754 52.8815 46.0878 52.7905 46.0878 52.6839V48.8322C46.0878 48.7205 46.1754 48.6329 46.2871 48.6329H49.7409C49.8509 48.6329 49.9402 48.7205 49.9402 48.8322V52.6839Z" fill="white"/>
<path fill-rule="evenodd" clip-rule="evenodd" d="M88.358 76.1966C88.358 76.3702 88.2188 76.5076 88.047 76.5076H72.5221C72.352 76.5076 72.2111 76.3702 72.2111 76.1966V73.0939C72.2111 72.9221 72.3503 72.783 72.5221 72.783H88.047C88.2188 72.783 88.358 72.9221 88.358 73.0939V76.1966Z" fill="white"/>
<path fill-rule="evenodd" clip-rule="evenodd" d="M70.3742 51.3577C70.3244 51.191 70.1766 51.0673 69.9945 51.0673C69.9137 51.0673 69.8433 51.0982 69.7797 51.1395C69.7711 51.1463 69.7608 51.1498 69.7505 51.1567L69.6233 51.3181L54.7875 70.1355L54.7188 70.2283C54.6432 70.3039 54.5934 70.407 54.5899 70.5221V93.6448C54.5899 93.8492 54.7566 94.0124 54.9611 94.0124H70.0409C70.2454 94.0124 70.4103 93.8492 70.4103 93.6448V51.514C70.4103 51.4573 70.3949 51.4058 70.3742 51.3594V51.3577ZM64.1282 61.5764L64.2348 61.4441C65.2486 60.1401 66.96 58.0339 67.7934 57.0134L67.9016 56.8828C67.9806 56.7883 68.0992 56.7264 68.2332 56.7264C68.4394 56.7264 68.6044 56.8759 68.6456 57.0718V61.8324C68.6456 62.0626 68.4635 62.2464 68.2367 62.2567C68.2298 62.2567 68.2229 62.2619 68.2178 62.2619C68.2126 62.2619 68.2057 62.2567 68.1989 62.2567H64.4908C64.4908 62.2567 64.4788 62.2619 64.4736 62.2619C64.4667 62.2619 64.4616 62.2567 64.4547 62.2567C64.2262 62.2464 64.0457 62.0626 64.0457 61.8324C64.0457 61.7362 64.075 61.6503 64.1299 61.5781L64.1282 61.5764ZM61.781 87.929C61.781 88.1334 61.6178 88.2983 61.4116 88.2983H56.9131C56.7086 88.2983 56.5436 88.1351 56.5436 87.929V85.1131C56.5436 84.9087 56.7086 84.7438 56.9131 84.7438H61.4116C61.6178 84.7438 61.781 84.9087 61.781 85.1131V87.929ZM61.781 82.7268C61.781 82.9313 61.6178 83.0962 61.4116 83.0962H56.9131C56.7086 83.0962 56.5436 82.9295 56.5436 82.7268V79.911C56.5436 79.7065 56.7086 79.5416 56.9131 79.5416H61.4116C61.6178 79.5416 61.781 79.7048 61.781 79.911V82.7268ZM61.781 77.5247C61.781 77.7257 61.6178 77.8906 61.4116 77.8906H56.9131C56.7086 77.8906 56.5436 77.7257 56.5436 77.5247V74.7071C56.5436 74.501 56.7086 74.3378 56.9131 74.3378H61.4116C61.6178 74.3378 61.781 74.501 61.781 74.7071V77.5247ZM61.793 66.124V72.3243C61.793 72.5304 61.6264 72.6936 61.4236 72.6936H56.9251C56.7189 72.6936 56.554 72.5304 56.554 72.3243V71.546C56.554 71.4979 56.5643 71.4498 56.5832 71.4068C56.59 71.3914 56.5918 71.3862 56.6055 71.3622C56.6141 71.3467 56.6261 71.3295 56.6381 71.3141C56.6485 71.2969 56.6674 71.2728 56.6794 71.2522C57.255 70.4293 59.8497 67.2338 60.9391 65.8989L61.0473 65.7666C61.1264 65.6721 61.2466 65.6103 61.3807 65.6103C61.5851 65.6103 61.7501 65.7615 61.7913 65.9556V66.1222L61.793 66.124ZM68.6577 87.929C68.6577 88.1334 68.491 88.2983 68.2882 88.2983H63.7897C63.5835 88.2983 63.4186 88.1351 63.4186 87.929V85.1131C63.4186 84.9087 63.5852 84.7438 63.7897 84.7438H68.2882C68.491 84.7438 68.6577 84.9087 68.6577 85.1131V87.929ZM68.6577 82.7268C68.6577 82.9313 68.491 83.0962 68.2882 83.0962H63.7897C63.5835 83.0962 63.4186 82.9295 63.4186 82.7268V79.911C63.4186 79.7065 63.5852 79.5416 63.7897 79.5416H68.2882C68.491 79.5416 68.6577 79.7048 68.6577 79.911V82.7268ZM68.6577 77.5247C68.6577 77.7257 68.491 77.8906 68.2882 77.8906H63.7897C63.5835 77.8906 63.4186 77.7257 63.4186 77.5247V74.7071C63.4186 74.501 63.5852 74.3378 63.7897 74.3378H68.2882C68.491 74.3378 68.6577 74.501 68.6577 74.7071V77.5247ZM68.6577 72.3208C68.6577 72.5236 68.491 72.6885 68.2882 72.6885H63.7897C63.5835 72.6885 63.4186 72.5236 63.4186 72.3208V69.505C63.4186 69.3006 63.5852 69.1356 63.7897 69.1356H68.2882C68.491 69.1356 68.6577 69.3006 68.6577 69.505V72.3208ZM68.6577 67.117C68.6577 67.3214 68.491 67.4863 68.2882 67.4863H63.7897C63.5835 67.4863 63.4186 67.3214 63.4186 67.117V64.3029C63.4186 64.0967 63.5852 63.9318 63.7897 63.9318H68.2882C68.491 63.9318 68.6577 64.0967 68.6577 64.3029V67.117Z" fill="white"/>
<path fill-rule="evenodd" clip-rule="evenodd" d="M29.1402 14.4513V10.3641C29.1402 9.04299 29.764 8.08435 31.2606 8.08435C32.8311 8.08435 33.2659 8.95709 33.2659 10.2027V11.1991H31.9703V10.0893C31.9703 9.56699 31.7967 9.26805 31.2847 9.26805C30.7726 9.26805 30.563 9.63056 30.563 10.1408V14.6764C30.563 15.1883 30.7743 15.5491 31.2847 15.5491C31.795 15.5491 31.9703 15.2244 31.9703 14.7262V13.1679H33.2659V14.6265C33.2659 15.8343 32.7676 16.7328 31.2606 16.7328C29.7537 16.7328 29.1402 15.7621 29.1402 14.4513Z" fill="white"/>
<path d="M35.3227 8.18402H33.9016V16.6332H35.3227V8.18402Z" fill="white"/>
<path fill-rule="evenodd" clip-rule="evenodd" d="M40.2593 10.4518V14.3637C40.2593 15.6608 39.7232 16.6332 38.2025 16.6332H36.0083V8.18402H38.2025C39.7215 8.18402 40.2593 9.14267 40.2593 10.4518ZM38.0273 15.4753C38.6132 15.4753 38.8383 15.1248 38.8383 14.6145V10.1907C38.8383 9.69071 38.6132 9.34368 38.0273 9.34368H37.4293V15.4753H38.0273Z" fill="white"/>
<path fill-rule="evenodd" clip-rule="evenodd" d="M40.7078 16.6349L42.3024 8.18573H43.9228L45.5311 16.6349H44.074L43.8128 15.087H42.3041L42.0567 16.6349H40.7095H40.7078ZM42.4914 13.9531H43.6255L43.0636 10.5635H43.0516L42.4897 13.9531H42.4914Z" fill="white"/>
<path fill-rule="evenodd" clip-rule="evenodd" d="M50.2324 10.4518V14.3637C50.2324 15.6608 49.6962 16.6332 48.1756 16.6332H45.983V8.18402H48.1756C49.6962 8.18402 50.2324 9.14267 50.2324 10.4518ZM48.0003 15.4753C48.5862 15.4753 48.8113 15.1248 48.8113 14.6145V10.1907C48.8113 9.69071 48.5862 9.34368 48.0003 9.34368H47.4023V15.4753H48.0003Z" fill="white"/>
<path fill-rule="evenodd" clip-rule="evenodd" d="M50.9042 8.18402H54.2944V9.34368H52.3252V11.7609H53.7343V12.9068H52.3252V15.4753H54.2944V16.6349H50.9042V8.18402Z" fill="white"/>
<path fill-rule="evenodd" clip-rule="evenodd" d="M54.8305 14.8138V13.6816H56.1519V14.8396C56.1519 15.312 56.3632 15.5869 56.8495 15.5869C57.298 15.5869 57.4973 15.288 57.4973 14.8396V14.5149C57.4973 14.0304 57.298 13.7297 56.8615 13.3191L56.0247 12.4842C55.2154 11.687 54.8408 11.2008 54.8408 10.2284V9.94152C54.8408 8.89353 55.4525 8.08435 56.8358 8.08435C58.219 8.08435 58.8187 8.78186 58.8187 10.0034V10.6889H57.5214V9.95355C57.5214 9.46735 57.2963 9.23026 56.8478 9.23026C56.4492 9.23026 56.1759 9.45532 56.1759 9.92949V10.103C56.1759 10.5772 56.4371 10.8521 56.8478 11.2489L57.7568 12.1474C58.53 12.9326 58.9046 13.4067 58.9046 14.3413V14.7519C58.9046 15.9116 58.2809 16.7328 56.8358 16.7328C55.3907 16.7328 54.8288 15.9219 54.8288 14.8138H54.8305Z" fill="white"/>
<path fill-rule="evenodd" clip-rule="evenodd" d="M60.6779 8.18402H64.0681V9.34368H62.0989V11.7609H63.5062V12.9068H62.0989V15.4753H64.0681V16.6349H60.6779V8.18402Z" fill="white"/>
<path fill-rule="evenodd" clip-rule="evenodd" d="M29.3155 24.9345V20.8473C29.3155 19.5262 29.9392 18.5658 31.4341 18.5658C33.0047 18.5658 33.4411 19.4385 33.4411 20.6841V21.6823H32.1438V20.5724C32.1438 20.0484 31.9702 19.7495 31.4582 19.7495C30.9461 19.7495 30.7365 20.1103 30.7365 20.6205V25.1578C30.7365 25.6681 30.9479 26.0306 31.4582 26.0306C31.9685 26.0306 32.1438 25.7059 32.1438 25.2076V23.6494H33.4411V25.108C33.4411 26.3175 32.9428 27.2143 31.4341 27.2143C29.9255 27.2143 29.3155 26.2419 29.3155 24.9345Z" fill="white"/>
<path fill-rule="evenodd" clip-rule="evenodd" d="M34.3381 24.9346V20.8475C34.3381 19.5264 34.9859 18.566 36.4808 18.566C37.9757 18.566 38.6373 19.5264 38.6373 20.8475V24.9346C38.6373 26.2421 37.9895 27.2144 36.4808 27.2144C34.9721 27.2144 34.3381 26.2421 34.3381 24.9346ZM37.2179 25.158V20.6207C37.2179 20.1088 36.9928 19.7497 36.4825 19.7497C35.9722 19.7497 35.7608 20.1105 35.7608 20.6207V25.158C35.7608 25.6682 35.9859 26.0307 36.4825 26.0307C36.9791 26.0307 37.2179 25.6682 37.2179 25.158Z" fill="white"/>
<path fill-rule="evenodd" clip-rule="evenodd" d="M43.488 21.6309H43.4502L42.4914 27.1148H41.8299L40.7697 21.6309H40.7456V27.1148H39.5737V18.6656H41.2302L42.1546 23.4279H42.1666L42.988 18.6656H44.7836V27.1148H43.488V21.6309Z" fill="white"/>
<path fill-rule="evenodd" clip-rule="evenodd" d="M49.844 18.6656V25.06C49.844 26.3692 49.2838 27.2144 47.8388 27.2144C46.3937 27.2144 45.7201 26.3674 45.7201 25.06V18.6656H47.1411V25.1975C47.1411 25.6957 47.3404 26.0324 47.8405 26.0324C48.3405 26.0324 48.5381 25.6957 48.5381 25.1975V18.6656H49.8475H49.844Z" fill="white"/>
<path fill-rule="evenodd" clip-rule="evenodd" d="M51.9764 21.8061V27.1148H50.7805V18.6656H52.1757L53.7102 23.5138V18.6656H54.8924V27.1148H53.6466L51.9764 21.8061Z" fill="white"/>
<path d="M57.2499 18.6656H55.8289V27.1148H57.2499V18.6656Z" fill="white"/>
<path fill-rule="evenodd" clip-rule="evenodd" d="M62.434 20.9334V24.847C62.434 26.1441 61.8979 27.1148 60.3772 27.1148H58.1829V18.6656H60.3772C61.8979 18.6656 62.434 19.626 62.434 20.9334ZM60.2036 25.9551C60.7878 25.9551 61.0129 25.6063 61.0129 25.0961V20.6722C61.0129 20.174 60.7878 19.8252 60.2036 19.8252H59.6056V25.9568H60.2036V25.9551Z" fill="white"/>
<path fill-rule="evenodd" clip-rule="evenodd" d="M63.1454 27.1148L64.74 18.6656H66.3603L67.9669 27.1148H66.5081L66.2469 25.5703H64.7382L64.4891 27.1148H63.1436H63.1454ZM64.9272 24.4364H66.0613L65.5012 21.0467H65.4874L64.9255 24.4364H64.9272Z" fill="white"/>
<path fill-rule="evenodd" clip-rule="evenodd" d="M72.9294 20.9334V24.847C72.9294 26.1441 72.3932 27.1148 70.8726 27.1148H68.6783V18.6656H70.8726C72.3932 18.6656 72.9294 19.626 72.9294 20.9334ZM70.699 25.9551C71.2832 25.9551 71.5083 25.6063 71.5083 25.0961V20.6722C71.5083 20.174 71.2832 19.8252 70.699 19.8252H70.101V25.9568H70.699V25.9551Z" fill="white"/>
<path fill-rule="evenodd" clip-rule="evenodd" d="M73.8641 18.6656H77.256V19.8235H75.2852V22.2425H76.6942V23.3884H75.2852V25.9551H77.256V27.1148H73.8641V18.6656Z" fill="white"/>
<path fill-rule="evenodd" clip-rule="evenodd" d="M78.0654 25.2954V24.1615H79.3867V25.3212C79.3867 25.7954 79.5981 26.0703 80.0844 26.0703C80.5328 26.0703 80.7322 25.7713 80.7322 25.3212V24.9965C80.7322 24.5103 80.5346 24.2096 80.0964 23.799L79.2613 22.9641C78.4503 22.1669 78.0774 21.6807 78.0774 20.7083V20.4214C78.0774 19.3752 78.6874 18.5643 80.0706 18.5643C81.4538 18.5643 82.0535 19.2618 82.0535 20.4833V21.1688H80.7562V20.4317C80.7562 19.9473 80.5328 19.7102 80.0844 19.7102C79.6857 19.7102 79.4108 19.9335 79.4108 20.4077V20.5829C79.4108 21.0571 79.672 21.3303 80.0844 21.7306L80.9951 22.6274C81.7683 23.4125 82.1412 23.8849 82.1412 24.8213V25.2319C82.1412 26.3915 81.5174 27.2127 80.0723 27.2127C78.6272 27.2127 78.0654 26.4035 78.0654 25.2937V25.2954Z" fill="white"/>
<path fill-rule="evenodd" clip-rule="evenodd" d="M29.2399 36.861V35.7272H30.5612V36.8868C30.5612 37.361 30.7726 37.6359 31.2589 37.6359C31.7073 37.6359 31.9067 37.3369 31.9067 36.8868V36.5621C31.9067 36.0759 31.7073 35.777 31.2709 35.3664L30.4358 34.5314C29.6248 33.7343 29.2519 33.2481 29.2519 32.2757V31.9888C29.2519 30.9425 29.8636 30.1316 31.2451 30.1316C32.6266 30.1316 33.228 30.8291 33.228 32.0506V32.7361H31.9325V32.0008C31.9325 31.5146 31.7073 31.2775 31.2589 31.2775C30.8602 31.2775 30.5853 31.5026 30.5853 31.975V32.1503C30.5853 32.6244 30.8482 32.8993 31.2589 33.2979L32.1696 34.1947C32.9428 34.9798 33.3157 35.4523 33.3157 36.3886V36.8009C33.3157 37.9606 32.6919 38.7818 31.2469 38.7818C29.8018 38.7818 29.2416 37.9709 29.2416 36.8628L29.2399 36.861Z" fill="white"/>
<path fill-rule="evenodd" clip-rule="evenodd" d="M38.3022 30.2313V36.624C38.3022 37.9331 37.7403 38.7801 36.2969 38.7801C34.8536 38.7801 34.1783 37.9331 34.1783 36.624V30.2313H35.5993V36.7614C35.5993 37.2596 35.7986 37.5981 36.2987 37.5981C36.7987 37.5981 36.9963 37.2596 36.9963 36.7614V30.2313H38.3056H38.3022Z" fill="white"/>
<path fill-rule="evenodd" clip-rule="evenodd" d="M39.1631 36.861V35.7272H40.4844V36.8868C40.4844 37.361 40.6958 37.6359 41.1821 37.6359C41.6305 37.6359 41.8299 37.3369 41.8299 36.8868V36.5621C41.8299 36.0759 41.6305 35.777 41.1941 35.3664L40.359 34.5314C39.5497 33.7343 39.1751 33.2481 39.1751 32.2757V31.9888C39.1751 30.9425 39.7868 30.1316 41.17 30.1316C42.5533 30.1316 43.1512 30.8291 43.1512 32.0506V32.7361H41.8556V32.0008C41.8556 31.5146 41.6305 31.2775 41.1821 31.2775C40.7834 31.2775 40.5085 31.5026 40.5085 31.975V32.1503C40.5085 32.6244 40.7714 32.8993 41.1821 33.2979L42.091 34.1947C42.8643 34.9798 43.2389 35.4523 43.2389 36.3886V36.8009C43.2389 37.9606 42.6151 38.7818 41.17 38.7818C39.7249 38.7818 39.1631 37.9709 39.1631 36.8628V36.861Z" fill="white"/>
<path fill-rule="evenodd" clip-rule="evenodd" d="M43.9365 30.2313H47.7133V31.3909H46.5414V38.6804H45.1084V31.3909H43.9365V30.2313Z" fill="white"/>
<path fill-rule="evenodd" clip-rule="evenodd" d="M48.4986 30.2313H51.8888V31.3909H49.9196V33.8082H51.3286V34.9541H49.9196V37.5225H51.8888V38.6804H48.4986V30.2313Z" fill="white"/>
<path fill-rule="evenodd" clip-rule="evenodd" d="M53.9576 33.3718V38.6804H52.7617V30.2313H54.1587L55.6914 35.0795V30.2313H56.8753V38.6804H55.6278L53.9576 33.3718Z" fill="white"/>
<path fill-rule="evenodd" clip-rule="evenodd" d="M57.6485 30.2313H61.4253V31.3909H60.2535V38.6804H58.8204V31.3909H57.6485V30.2313Z" fill="white"/>
<path fill-rule="evenodd" clip-rule="evenodd" d="M61.9872 38.6805L63.5818 30.2313H65.2022L66.8105 38.6805H65.3517L65.0905 37.136H63.5818L63.3327 38.6805H61.9872ZM65.551 29.6334L63.3206 29.9203V29.1232L65.551 28.649V29.6334ZM63.7691 36.0021H64.9049L64.343 32.6124H64.3293L63.7674 36.0021H63.7691Z" fill="white"/>
<path fill-rule="evenodd" clip-rule="evenodd" d="M72.0702 30.2313L70.4619 38.6804H68.9171L67.3088 30.2313H68.7539L69.7265 36.1275H69.7402L70.7368 30.2313H72.0702Z" fill="white"/>
<path fill-rule="evenodd" clip-rule="evenodd" d="M72.7816 30.2313H76.1718V31.3909H74.2026V33.8082H75.6099V34.9541H74.2026V37.5225H76.1718V38.6804H72.7816V30.2313Z" fill="white"/>
<path d="M78.4657 30.2313H77.0447V38.6804H78.4657V30.2313Z" fill="white"/>
<path fill-rule="evenodd" clip-rule="evenodd" d="M79.3369 36.861V35.7272H80.6583V36.8868C80.6583 37.361 80.8714 37.6359 81.3559 37.6359C81.8044 37.6359 82.0054 37.3369 82.0054 36.8868V36.5621C82.0054 36.0759 81.8044 35.777 81.3697 35.3664L80.5346 34.5314C79.7235 33.7343 79.3507 33.2481 79.3507 32.2757V31.9888C79.3507 30.9425 79.9624 30.1316 81.3456 30.1316C82.7288 30.1316 83.3285 30.8291 83.3285 32.0506V32.7361H82.0312V32.0008C82.0312 31.5146 81.8061 31.2775 81.3576 31.2775C80.959 31.2775 80.6858 31.5026 80.6858 31.975V32.1503C80.6858 32.6244 80.947 32.8993 81.3576 33.2979L82.2666 34.1947C83.0399 34.9798 83.4144 35.4523 83.4144 36.3886V36.8009C83.4144 37.9606 82.7907 38.7818 81.3456 38.7818C79.9005 38.7818 79.3386 37.9709 79.3386 36.8628L79.3369 36.861Z" fill="white"/>
</svg>
