<svg width="50" height="69" viewBox="0 0 50 69" fill="none" xmlns="http://www.w3.org/2000/svg">
<g clip-path="url(#clip0_303_2394)">
<path fill-rule="evenodd" clip-rule="evenodd" d="M45.7808 69C48.1076 69 50 67.0103 50 64.5498V28.5026C50 21.8304 44.5192 21.5292 44.5192 21.5292H34.1109C28.6301 21.5292 28.761 15.6039 28.761 15.6039V6.56545C28.761 -0.269899 22.8577 0.0376603 22.8577 0.0376603L22.8219 0H4.21923C1.88646 0 0 1.98972 0 4.4502V64.5498C0 66.9726 1.8567 68.9435 4.12997 69" fill="#E31E24"/>
<path fill-rule="evenodd" clip-rule="evenodd" d="M28.3742 0.910156L48.5301 21.4413V21.6924C47.5185 20.7823 45.9296 19.8784 43.573 19.8784H34.2954C34.2954 19.8784 30.2131 19.734 30.2131 14.6813V5.76834C30.2131 5.76834 29.6418 2.20944 28.5289 1.18006" fill="url(#paint0_linear_303_2394)"/>
<path d="M4.75482 5.74972H8.23018C8.99191 5.74972 9.54535 5.94429 9.93216 6.3209C10.319 6.71005 10.4916 7.23102 10.4916 7.94029C10.4916 8.64956 10.2714 9.22074 9.8667 9.62873C9.46203 10.0367 8.83718 10.2313 7.98024 10.2313H6.84956V12.8675H4.76077V5.74972H4.75482ZM6.84956 8.78765H7.37325C7.77791 8.78765 8.04571 8.69978 8.21828 8.55541C8.39086 8.41105 8.45632 8.21647 8.45632 8.00306C8.45632 7.77082 8.37301 7.59507 8.23614 7.43188C8.09926 7.26868 7.83147 7.18081 7.4268 7.18081H6.83766V8.78137H6.85551L6.84956 8.78765ZM11.6044 5.74972H14.7108C15.3178 5.74972 15.8236 5.83759 16.1926 6.00079C16.5615 6.17653 16.865 6.4276 17.1388 6.74771C17.3768 7.08666 17.5613 7.45698 17.6803 7.8838C17.7815 8.31062 17.8469 8.7751 17.8469 9.25213C17.8469 10.0179 17.7636 10.6016 17.6089 11.0284C17.4423 11.4364 17.2221 11.7942 16.9186 12.0767C16.6329 12.3591 16.3116 12.56 15.9724 12.6478C15.5142 12.7734 15.1095 12.8424 14.7227 12.8424H11.6163V5.72461L11.5984 5.74344L11.6044 5.74972ZM13.6813 7.36911V11.267H14.205C14.6453 11.267 14.9488 11.2105 15.1512 11.1038C15.3356 11.0159 15.4904 10.8213 15.5915 10.5702C15.6927 10.3192 15.7463 9.89235 15.7463 9.34C15.7463 8.59307 15.6272 8.07838 15.3892 7.78965C15.1512 7.51975 14.7643 7.38166 14.2228 7.38166H13.6813V7.36283V7.36911ZM18.9122 5.74972H24.0716V7.28124H21.001V8.52403H23.6313V9.96767H21.001V12.8675H18.9122V5.74972Z" fill="#FF6969"/>
<path fill-rule="evenodd" clip-rule="evenodd" d="M4.75482 33.1792H26.3449V37.1084H4.75482V33.1792Z" fill="#FF6969"/>
<path fill-rule="evenodd" clip-rule="evenodd" d="M4.75482 40.0332H33.5634V43.9624H4.75482V40.0332Z" fill="#FF6969"/>
<path fill-rule="evenodd" clip-rule="evenodd" d="M4.75482 46.8813H26.3449V50.8106H4.75482V46.8813Z" fill="#FF6969"/>
<path fill-rule="evenodd" clip-rule="evenodd" d="M4.75482 53.7168H33.5634V57.646H4.75482V53.7168Z" fill="#FF6969"/>
</g>
<defs>
<linearGradient id="paint0_linear_303_2394" x1="64.4788" y1="18.6369" x2="48.9436" y2="39.6542" gradientUnits="userSpaceOnUse">
<stop stop-color="#A42421"/>
<stop offset="1" stop-color="#E31E24"/>
</linearGradient>
<clipPath id="clip0_303_2394">
<rect width="50" height="69" fill="white"/>
</clipPath>
</defs>
</svg>
