<?xml version="1.0" encoding="utf-8"?>
<svg fill="none" height="1166" viewBox="0 0 768 1048" width="800" xmlns="http://www.w3.org/2000/svg">
<g clip-path="url(#clip0_0_1)">
<path d="M419.703 442.924H403.535C402.445 442.924 401.463 443.711 401.266 444.793L398.182 462.318L420.106 452.031L421.383 444.793C421.579 443.505 420.794 442.924 419.713 442.924H419.703Z" fill="white"/>
<path d="M389.037 514.293C388.841 515.286 389.43 516.27 390.609 516.27H406.777C408.25 516.27 408.948 515.384 409.144 514.293L418.721 459.879L396.797 470.166L389.037 514.293Z" fill="white"/>
<path d="M278.358 446.347L276.187 458.689C275.991 459.771 275.205 460.567 274.114 460.567H273.918C269.969 460.272 258.831 459.279 251.729 459.279C248.969 459.279 246.11 460.164 246.11 463.429C246.11 464.816 247.093 465.701 250.452 467.678L262.485 474.788C269.586 478.938 272.346 484.367 272.346 491.27C272.346 509.73 256.866 517.233 240.099 517.233C232.015 517.233 225.699 516.152 220.67 514.667C219.786 514.372 218.99 513.88 218.99 512.985V512.69L221.063 500.544C221.259 499.463 222.144 498.568 223.332 498.568H223.528C227.575 498.961 238.027 500.053 243.252 500.053C247.201 500.053 250.452 498.666 250.452 494.231C250.452 492.746 249.47 491.664 246.602 489.785L233.881 481.397C228.165 477.65 225.405 471.228 225.405 465.111C225.414 447.33 239.313 442 254.99 442C262.779 442 273.034 443.278 276.884 444.468C277.67 444.763 278.368 445.157 278.368 446.052V446.347H278.358Z" fill="white"/>
<path d="M334.464 445.157L332.391 457.204C332.195 458.286 331.104 459.181 330.024 459.181H310.104C306.558 459.181 305.173 460.361 304.485 464.118L303.199 471.326H327.45C328.433 471.326 329.13 472.015 329.13 473.008V473.303L327.058 484.957C326.861 486.039 325.879 486.933 324.789 486.933H300.537L299.054 495.126C298.955 495.912 298.857 496.512 298.857 497.102C298.857 499.374 300.036 500.062 302.904 500.062H322.824C323.806 500.062 324.504 500.751 324.504 501.744V502.039L322.333 514.086C322.137 515.266 321.351 515.866 320.064 516.063C316.223 516.555 310.202 517.243 300.635 517.243C289.094 517.243 278.544 513.093 278.544 500.161C278.544 498.577 278.741 496.906 279.035 495.126L284.457 464.127C287.925 444.173 299.761 442 313.66 442C323.227 442 329.238 442.688 332.892 443.18C333.973 443.278 334.474 443.77 334.474 444.763V445.157H334.464Z" fill="white"/>
<path d="M390.874 446.347L388.704 458.689C388.507 459.771 387.721 460.567 386.631 460.567H386.435C382.486 460.272 371.347 459.279 364.246 459.279C361.485 459.279 358.627 460.164 358.627 463.429C358.627 464.816 359.609 465.701 362.969 467.678L375.001 474.788C382.103 478.938 384.863 484.367 384.863 491.27C384.863 509.73 369.383 517.233 352.616 517.233C344.532 517.233 338.216 516.152 333.187 514.667C332.303 514.371 331.507 513.88 331.507 512.985V512.69L333.58 500.544C333.776 499.462 334.66 498.568 335.849 498.568H336.045C340.092 498.961 350.543 500.053 355.769 500.053C359.717 500.053 362.969 498.666 362.969 494.231C362.969 492.746 361.986 491.664 359.118 489.785L346.398 481.397C340.681 477.65 337.921 471.228 337.921 465.111C337.921 447.34 351.82 442.01 367.507 442.01C375.296 442.01 385.551 443.288 389.401 444.478C390.187 444.773 390.884 445.167 390.884 446.062V446.357L390.874 446.347Z" fill="white"/>
<path d="M457.206 443.131C457.51 443.18 457.579 443.249 457.53 443.524L457.363 444.527C457.314 444.803 457.245 444.95 456.852 444.901C455.831 444.832 454.2 444.763 452.854 444.763C450.968 444.763 448.994 445.088 448.994 447.134C448.994 448.255 449.525 448.805 451.067 449.828L452.972 451.107C455.133 452.552 455.899 453.782 455.899 455.483C455.899 458.768 453.129 460.459 449.416 460.459C448.14 460.459 446.47 460.292 445.468 460.135C445.193 460.086 445.045 459.997 445.095 459.712L445.262 458.778C445.311 458.453 445.399 458.355 445.792 458.404C446.833 458.492 448.532 458.542 449.603 458.542C452.108 458.542 453.67 457.676 453.67 455.473C453.67 454.352 453.061 453.801 451.44 452.68L449.416 451.303C447.835 450.231 446.882 448.904 446.882 447.232C446.882 443.996 449.691 442.836 452.854 442.836C454.23 442.836 456.341 442.974 457.196 443.111L457.206 443.131Z" fill="white"/>
<path d="M468.384 453.064L468.197 454.037C468.128 454.342 468.03 454.549 467.686 454.549H459.858L459.809 454.824C459.72 455.355 459.671 455.827 459.671 456.24C459.671 457.981 460.762 458.728 462.549 458.728C463.895 458.728 465.476 458.561 466.567 458.404C466.91 458.355 467.058 458.423 467.009 458.728L466.871 459.515C466.822 459.84 466.704 459.977 466.311 460.046C464.936 460.302 463.807 460.44 462.245 460.44C459.946 460.44 457.667 459.279 457.667 456.132C457.667 455.689 457.717 455.198 457.805 454.686L458.109 453.054C458.807 449.356 460.968 447.311 464.268 447.311C467.146 447.311 468.521 449.199 468.521 451.638C468.521 452.08 468.472 452.542 468.384 453.034V453.064ZM463.974 449.13C461.95 449.13 460.604 450.733 460.182 452.877L460.162 452.995H466.321L466.341 452.877C466.429 452.415 466.478 451.972 466.478 451.598C466.478 449.946 465.614 449.13 463.964 449.13H463.974Z" fill="white"/>
<path d="M471.409 459.83C471.36 460.085 471.105 460.292 470.849 460.292H469.71C469.454 460.292 469.317 460.056 469.366 459.83L471.439 447.969C471.488 447.714 471.714 447.507 471.969 447.507H473.059C473.334 447.507 473.452 447.743 473.403 447.969L473.315 448.5C474.572 447.527 475.682 447.34 476.753 447.34H476.802C477.195 447.34 477.263 447.507 477.224 447.763L477.057 448.736C477.008 448.992 476.821 449.13 476.497 449.13H476.428C475.102 449.13 474.248 449.366 473.108 450.084L471.409 459.83Z" fill="white"/>
<path d="M488.579 448.058L483.746 458.62C483.068 460.085 482.096 460.459 481.163 460.459C480.23 460.459 479.395 460.085 479.238 458.62L478.118 448.058C478.069 447.635 478.285 447.497 478.56 447.497H479.748C479.935 447.497 480.092 447.635 480.122 447.94L480.937 458.04C480.986 458.62 481.143 458.757 481.379 458.757C481.585 458.757 481.801 458.62 482.057 458.04L486.447 447.94C486.585 447.635 486.703 447.497 487.056 447.497H488.353C488.54 447.497 488.657 447.615 488.657 447.772C488.657 447.861 488.638 447.959 488.589 448.048L488.579 448.058Z" fill="white"/>
<path d="M492.439 447.497C492.714 447.497 492.881 447.586 492.812 447.959L490.74 459.82C490.691 460.075 490.573 460.282 490.18 460.282H489.06C488.736 460.282 488.638 460.046 488.687 459.82L490.76 447.959C490.828 447.537 491.064 447.497 491.319 447.497H492.439ZM493.343 442.659C493.667 442.659 493.765 442.796 493.716 443.121L493.392 444.98C493.323 445.304 493.205 445.442 492.832 445.442H491.644C491.3 445.442 491.221 445.206 491.27 444.98L491.594 443.121C491.644 442.865 491.801 442.659 492.154 442.659H493.343Z" fill="white"/>
<path d="M503.48 448.107L503.342 448.943C503.293 449.179 503.067 449.287 502.851 449.287H502.782C501.78 449.169 501.083 449.12 499.944 449.12C498.087 449.12 496.741 450.585 496.339 452.985L496.034 454.804C495.946 455.335 495.897 455.778 495.897 456.201C495.897 457.971 496.732 458.669 498.244 458.669C499.384 458.669 500.15 458.62 501.171 458.502H501.24C501.427 458.502 501.584 458.591 501.584 458.777V458.846L501.446 459.682C501.397 460.007 501.26 460.125 500.887 460.194C500.101 460.331 499.03 460.449 497.94 460.449C495.219 460.449 493.873 458.561 493.873 456.073C493.873 455.65 493.922 455.237 493.991 454.794L494.296 452.975C494.924 449.209 497.085 447.32 500.248 447.32C501.338 447.32 502.36 447.438 503.106 447.576C503.381 447.625 503.499 447.714 503.499 447.92C503.499 447.969 503.48 448.009 503.48 448.087V448.107ZM499.06 461.393L495.897 464.324C495.641 464.56 495.573 464.668 495.317 464.668H494.06C493.942 464.668 493.873 464.619 493.873 464.531C493.873 464.462 493.922 464.363 494.011 464.275L496.781 461.393C497.036 461.138 497.125 461.049 497.409 461.049H498.942C499.079 461.049 499.177 461.098 499.177 461.187C499.177 461.236 499.158 461.305 499.06 461.393Z" fill="white"/>
<path d="M513.793 453.014L513.489 454.785C512.88 458.325 510.974 460.459 507.31 460.459C504.521 460.459 503.038 458.64 503.038 456.063C503.038 455.64 503.087 455.227 503.155 454.785L503.46 453.014C504.108 449.248 506.151 447.34 509.619 447.34C512.477 447.34 513.921 449.159 513.921 451.716C513.921 452.139 513.872 452.582 513.803 453.014H513.793ZM509.314 449.13C507.291 449.13 505.896 450.644 505.503 453.014L505.199 454.785C505.11 455.296 505.061 455.738 505.061 456.161C505.061 457.814 505.808 458.679 507.615 458.679C509.658 458.679 511.053 457.076 511.446 454.794L511.75 453.024C511.839 452.532 511.868 452.09 511.868 451.696C511.868 450.025 511.122 449.14 509.314 449.14V449.13Z" fill="white"/>
<path d="M452.56 471.051C452.864 471.1 452.933 471.169 452.884 471.444L452.717 472.447C452.668 472.723 452.599 472.87 452.206 472.821C451.185 472.752 449.554 472.683 448.208 472.683C446.322 472.683 444.348 473.008 444.348 475.054C444.348 476.175 444.879 476.725 446.421 477.748L448.326 479.027C450.487 480.472 451.253 481.702 451.253 483.403C451.253 486.688 448.483 488.379 444.77 488.379C443.494 488.379 441.824 488.212 440.822 488.055C440.547 488.005 440.399 487.917 440.449 487.632L440.616 486.697C440.665 486.373 440.753 486.275 441.146 486.324C442.187 486.412 443.886 486.461 444.957 486.461C447.462 486.461 449.024 485.596 449.024 483.393C449.024 482.272 448.415 481.721 446.794 480.6L444.77 479.223C443.189 478.151 442.236 476.824 442.236 475.152C442.236 471.916 445.046 470.756 448.208 470.756C449.584 470.756 451.695 470.894 452.55 471.031L452.56 471.051Z" fill="white"/>
<path d="M463.757 480.944L463.453 482.715C462.844 486.255 460.938 488.389 457.275 488.389C454.485 488.389 453.002 486.58 453.002 483.993C453.002 483.57 453.051 483.157 453.12 482.715L453.424 480.944C454.072 477.178 456.115 475.27 459.583 475.27C462.441 475.27 463.885 477.089 463.885 479.646C463.885 480.069 463.836 480.512 463.767 480.944H463.757ZM459.278 477.05C457.255 477.05 455.86 478.565 455.467 480.935L455.163 482.705C455.074 483.216 455.025 483.659 455.025 484.082C455.025 485.734 455.772 486.589 457.579 486.589C459.622 486.589 461.017 484.986 461.41 482.705L461.714 480.935C461.803 480.443 461.832 480 461.832 479.607C461.832 477.935 461.086 477.05 459.278 477.05Z" fill="white"/>
<path d="M467.549 480.915L467.244 482.734C467.156 483.266 467.107 483.708 467.107 484.131C467.107 485.901 467.942 486.599 469.454 486.599C470.594 486.599 471.36 486.55 472.382 486.432C472.755 486.363 472.843 486.521 472.804 486.776L472.666 487.612C472.617 487.937 472.48 488.055 472.107 488.124C471.34 488.261 470.25 488.379 469.16 488.379C466.439 488.379 465.093 486.491 465.093 484.003C465.093 483.58 465.142 483.167 465.211 482.725L465.516 480.905C466.144 477.139 468.286 475.25 471.468 475.25C472.539 475.25 473.58 475.368 474.326 475.506C474.749 475.575 474.749 475.713 474.7 476.018L474.562 476.853C474.513 477.109 474.425 477.276 474.002 477.198C473 477.08 472.303 477.031 471.164 477.031C469.307 477.031 467.961 478.496 467.559 480.895L467.549 480.915Z" fill="white"/>
<path d="M478.638 475.427C478.913 475.427 479.08 475.516 479.012 475.89L476.939 487.75C476.89 488.006 476.772 488.212 476.379 488.212H475.259C474.935 488.212 474.837 487.976 474.886 487.75L476.959 475.89C477.027 475.467 477.263 475.427 477.519 475.427H478.638ZM479.542 470.589C479.866 470.589 479.964 470.727 479.915 471.051L479.591 472.91C479.522 473.234 479.405 473.372 479.031 473.372H477.843C477.499 473.372 477.42 473.136 477.47 472.91L477.794 471.051C477.843 470.795 478 470.589 478.354 470.589H479.542Z" fill="white"/>
<path d="M490.514 475.801C490.936 475.89 490.956 476.037 490.907 476.332L488.913 487.76C488.864 488.015 488.746 488.222 488.382 488.222H487.449C487.105 488.222 487.056 488.035 487.105 487.711L487.223 486.993C485.848 487.966 485.043 488.389 483.481 488.389C481.507 488.389 479.856 487.13 479.856 484.269C479.856 483.826 479.906 483.364 479.994 482.872L480.416 480.571C481.133 476.548 483.668 475.27 486.457 475.27C487.852 475.27 489.335 475.506 490.524 475.801H490.514ZM486.447 476.981C484.051 476.981 482.842 478.309 482.4 480.777L481.978 483.177C481.909 483.521 481.89 483.895 481.89 484.249C481.89 486.039 482.793 486.668 483.913 486.668C485.033 486.668 486.005 486.176 487.282 485.321L488.697 477.227C488.068 477.109 487.42 476.991 486.447 476.991V476.981Z" fill="white"/>
<path d="M496.319 470.727C496.574 470.727 496.712 470.845 496.643 471.169L493.736 487.76C493.687 488.015 493.598 488.222 493.225 488.222H492.017C491.761 488.222 491.643 487.986 491.693 487.76L494.6 471.169C494.649 470.913 494.767 470.727 495.111 470.727H496.319Z" fill="white"/>
<path d="M446.912 498.646H448.1C448.356 498.646 448.474 498.764 448.424 499.089L445.566 515.375C445.517 515.68 445.399 515.837 444.987 515.906C443.503 516.181 442.059 516.299 440.645 516.299C437.806 516.299 436.441 514.559 436.441 512.021C436.441 511.559 436.49 511.067 436.578 510.556L436.883 508.884C437.6 504.882 439.555 503.18 442.943 503.18C443.66 503.18 444.751 503.249 445.615 503.416L446.381 499.089C446.45 498.764 446.656 498.646 446.912 498.646ZM442.639 504.98C440.36 504.98 439.339 506.632 438.916 508.884L438.612 510.556C438.523 511.117 438.445 511.628 438.445 512.07C438.445 513.654 439.142 514.509 440.93 514.509C441.716 514.509 442.855 514.441 443.67 514.372L445.301 505.137C444.554 505 443.376 504.97 442.629 504.97L442.639 504.98Z" fill="white"/>
<path d="M458.807 503.721C459.229 503.81 459.249 503.957 459.2 504.252L457.206 515.68C457.157 515.935 457.039 516.142 456.675 516.142H455.742C455.398 516.142 455.349 515.955 455.398 515.63L455.516 514.913C454.141 515.886 453.336 516.309 451.774 516.309C449.8 516.309 448.149 515.05 448.149 512.188C448.149 511.746 448.199 511.284 448.287 510.792L448.709 508.491C449.426 504.468 451.961 503.19 454.75 503.19C456.145 503.19 457.628 503.426 458.817 503.721H458.807ZM454.74 504.901C452.344 504.901 451.135 506.229 450.693 508.697L450.271 511.097C450.202 511.441 450.183 511.815 450.183 512.169C450.183 513.959 451.086 514.588 452.206 514.588C453.326 514.588 454.298 514.096 455.575 513.241L456.99 505.147C456.361 505.029 455.713 504.911 454.74 504.911V504.901Z" fill="white"/>
<path d="M470.594 498.853C470.898 498.853 470.987 498.991 470.938 499.296L468.06 515.67C468.01 515.994 467.873 516.132 467.549 516.132H466.272C465.967 516.132 465.899 515.896 465.948 515.67L468.826 499.296C468.875 499.06 468.963 498.853 469.317 498.853H470.594Z" fill="white"/>
<path d="M482.234 508.028L480.888 515.68C480.839 515.935 480.583 516.142 480.328 516.142H479.208C478.933 516.142 478.786 515.906 478.835 515.68L480.181 508.028C480.249 507.586 480.299 507.124 480.299 506.75C480.299 505.629 479.837 504.98 478.138 504.98C477.254 504.98 476.35 505.167 474.857 505.865L473.138 515.68C473.089 515.916 472.833 516.142 472.578 516.142H471.439C471.164 516.142 471.046 515.886 471.095 515.68L473.167 503.819C473.217 503.564 473.354 503.357 473.776 503.357H474.749C475.122 503.357 475.24 503.495 475.191 503.819L475.122 504.311C476.242 503.682 477.283 503.19 478.864 503.19C481.35 503.19 482.351 504.773 482.351 506.77C482.351 507.163 482.302 507.635 482.234 508.028Z" fill="white"/>
<path d="M494.276 498.646H495.464C495.72 498.646 495.838 498.764 495.789 499.089L492.93 515.375C492.881 515.68 492.763 515.837 492.351 515.906C490.868 516.181 489.424 516.299 488.009 516.299C485.171 516.299 483.805 514.559 483.805 512.021C483.805 511.559 483.854 511.067 483.943 510.556L484.247 508.884C484.964 504.882 486.919 503.18 490.308 503.18C491.025 503.18 492.115 503.249 492.979 503.416L493.746 499.089C493.814 498.764 494.021 498.646 494.276 498.646ZM489.993 504.98C487.715 504.98 486.693 506.632 486.271 508.884L485.966 510.556C485.878 511.117 485.799 511.628 485.799 512.07C485.799 513.654 486.497 514.509 488.284 514.509C489.07 514.509 490.209 514.441 491.025 514.372L492.655 505.137C491.909 505 490.73 504.97 489.984 504.97L489.993 504.98Z" fill="white"/>
<path d="M507.31 503.809L505.238 515.67C505.189 515.926 504.963 516.132 504.707 516.132H503.617C503.381 516.132 503.273 515.965 503.273 515.758V515.67L503.342 515.247C501.947 515.965 500.857 516.289 499.482 516.289C497.488 516.289 496.093 515.06 496.093 512.611C496.093 512.169 496.142 511.707 496.231 511.195L497.527 503.8C497.576 503.544 497.832 503.337 498.087 503.337H499.207C499.442 503.337 499.58 503.505 499.58 503.711V503.8L498.234 511.451C498.146 511.962 498.097 512.405 498.097 512.778C498.097 514.086 498.725 514.5 500.258 514.5C501.23 514.5 502.399 514.175 503.558 513.634L505.277 503.79C505.326 503.534 505.582 503.328 505.837 503.328H506.976C507.212 503.328 507.32 503.514 507.32 503.701V503.79L507.31 503.809ZM506.917 498.371L503.755 501.302C503.499 501.538 503.43 501.646 503.175 501.646H501.918C501.8 501.646 501.731 501.597 501.731 501.508C501.731 501.439 501.78 501.341 501.869 501.253L504.658 498.371C504.914 498.115 504.982 498.027 505.267 498.027H506.8C506.937 498.027 507.035 498.076 507.035 498.165C507.035 498.214 507.016 498.283 506.917 498.371Z" fill="white"/>
<path d="M517.211 503.485C517.555 503.554 517.604 503.623 517.555 503.947L517.437 504.714C517.388 504.99 517.251 505.157 516.907 505.108C516.121 505.019 514.795 504.921 513.489 504.921C512.418 504.921 511.053 505.226 511.053 506.573C511.053 507.153 511.514 507.596 512.31 508.107L514.382 509.484C515.984 510.556 516.455 511.372 516.455 512.602C516.455 515.345 514.019 516.299 511.455 516.299C510.483 516.299 508.852 516.211 507.831 515.955C507.595 515.906 507.389 515.749 507.438 515.493L507.575 514.677C507.644 514.372 507.762 514.283 508.155 514.332C509.245 514.47 510.925 514.588 511.76 514.588C513.135 514.588 514.382 514.096 514.382 512.611C514.382 512.08 514.107 511.657 513.037 510.959L510.945 509.582C509.668 508.746 508.99 507.812 508.99 506.553C508.99 503.967 511.475 503.18 513.803 503.18C515.591 503.18 516.219 503.269 517.221 503.485H517.211Z" fill="white"/>
<path d="M525.944 503.348C526.219 503.348 526.366 503.485 526.317 503.81L526.18 504.596C526.111 505.019 525.904 505.059 525.649 505.059H523.144L521.7 513.221C521.651 513.497 521.632 513.713 521.632 513.9C521.632 514.578 521.956 514.647 522.702 514.647H524.117C524.372 514.647 524.49 514.716 524.441 514.972L524.303 515.788C524.254 515.995 524.136 516.132 523.812 516.181C523.351 516.25 522.791 516.299 522.349 516.299C520.767 516.299 519.559 515.69 519.559 514.087C519.559 513.782 519.579 513.556 519.648 513.182L521.091 505.059L518.881 504.803C518.646 504.783 518.459 504.616 518.508 504.38L518.626 503.751C518.695 503.426 518.881 503.328 519.137 503.328H521.386L521.759 501.046C521.809 500.81 522.015 500.623 522.27 500.584L523.498 500.397C523.822 500.348 523.891 500.564 523.842 500.791L523.419 503.328H525.934L525.944 503.348Z" fill="white"/>
<path d="M527.947 515.68C527.898 515.935 527.643 516.142 527.388 516.142H526.248C525.993 516.142 525.855 515.906 525.904 515.68L527.977 503.819C528.026 503.564 528.252 503.357 528.507 503.357H529.598C529.873 503.357 529.991 503.593 529.941 503.819L529.853 504.35C531.11 503.377 532.22 503.19 533.291 503.19H533.34C533.733 503.19 533.802 503.357 533.762 503.613L533.595 504.586C533.546 504.842 533.36 504.98 533.036 504.98H532.967C531.641 504.98 530.786 505.216 529.647 505.934L527.947 515.68Z" fill="white"/>
<path d="M537.239 503.347C537.514 503.347 537.681 503.436 537.613 503.81L535.54 515.67C535.491 515.926 535.373 516.132 534.98 516.132H533.861C533.536 516.132 533.438 515.896 533.487 515.67L535.56 503.81C535.629 503.387 535.864 503.347 536.12 503.347H537.239ZM538.153 498.509C538.477 498.509 538.575 498.646 538.526 498.971L538.202 500.83C538.133 501.154 538.015 501.292 537.642 501.292H536.454C536.11 501.292 536.031 501.056 536.08 500.83L536.405 498.971C536.454 498.715 536.611 498.509 536.964 498.509H538.153Z" fill="white"/>
<path d="M549.115 503.721C549.537 503.81 549.557 503.957 549.508 504.252L547.514 515.68C547.465 515.935 547.347 516.142 546.983 516.142H546.05C545.707 516.142 545.657 515.955 545.707 515.63L545.824 514.913C544.449 515.886 543.644 516.309 542.082 516.309C540.108 516.309 538.458 515.05 538.458 512.188C538.458 511.746 538.507 511.284 538.595 510.792L539.017 508.491C539.734 504.468 542.269 503.19 545.058 503.19C546.453 503.19 547.936 503.426 549.125 503.721H549.115ZM545.048 504.901C542.652 504.901 541.444 506.229 541.002 508.697L540.579 511.097C540.51 511.441 540.491 511.815 540.491 512.169C540.491 513.959 541.394 514.588 542.514 514.588C543.634 514.588 544.606 514.096 545.883 513.241L547.298 505.147C546.669 505.029 546.021 504.911 545.048 504.911V504.901Z" fill="white"/>
</g>
<path d="M225.723 551.553H229.441V569.753H225.723V551.553ZM227.985 554.699V551.553H231.599C233.037 551.553 234.259 551.787 235.265 552.255C236.287 552.723 237.067 553.39 237.605 554.257C238.142 555.124 238.411 556.155 238.411 557.351C238.411 558.53 238.142 559.561 237.605 560.445C237.067 561.312 236.287 561.979 235.265 562.447C234.259 562.915 233.037 563.149 231.599 563.149H227.985V560.003H231.599C232.587 560.003 233.367 559.778 233.939 559.327C234.511 558.876 234.797 558.218 234.797 557.351C234.797 556.467 234.511 555.808 233.939 555.375C233.367 554.924 232.587 554.699 231.599 554.699H227.985ZM244.173 560.653C244.173 561.814 244.416 562.846 244.901 563.747C245.387 564.648 246.054 565.359 246.903 565.879C247.753 566.399 248.741 566.659 249.867 566.659C250.994 566.659 251.982 566.399 252.831 565.879C253.681 565.359 254.339 564.648 254.807 563.747C255.293 562.846 255.535 561.814 255.535 560.653C255.535 559.492 255.301 558.46 254.833 557.559C254.365 556.658 253.707 555.947 252.857 555.427C252.008 554.907 251.011 554.647 249.867 554.647C248.741 554.647 247.753 554.907 246.903 555.427C246.054 555.947 245.387 556.658 244.901 557.559C244.416 558.46 244.173 559.492 244.173 560.653ZM240.247 560.653C240.247 559.266 240.49 558.001 240.975 556.857C241.461 555.696 242.137 554.69 243.003 553.841C243.87 552.992 244.884 552.342 246.045 551.891C247.224 551.423 248.498 551.189 249.867 551.189C251.254 551.189 252.528 551.423 253.689 551.891C254.851 552.342 255.865 552.992 256.731 553.841C257.615 554.69 258.291 555.696 258.759 556.857C259.245 558.001 259.487 559.266 259.487 560.653C259.487 562.022 259.245 563.296 258.759 564.475C258.291 565.636 257.624 566.65 256.757 567.517C255.908 568.384 254.894 569.06 253.715 569.545C252.554 570.013 251.271 570.247 249.867 570.247C248.463 570.247 247.172 570.013 245.993 569.545C244.832 569.06 243.818 568.384 242.951 567.517C242.085 566.65 241.417 565.636 240.949 564.475C240.481 563.296 240.247 562.022 240.247 560.653ZM266.495 561.277H270.421L276.349 569.753H271.955L266.495 561.277ZM262.361 551.553H266.079V569.753H262.361V551.553ZM264.623 554.725V551.553H268.471C269.91 551.553 271.132 551.796 272.137 552.281C273.143 552.766 273.914 553.442 274.451 554.309C274.989 555.176 275.257 556.19 275.257 557.351C275.257 558.495 274.989 559.509 274.451 560.393C273.914 561.26 273.143 561.936 272.137 562.421C271.132 562.906 269.91 563.149 268.471 563.149H264.623V560.185H268.237C268.896 560.185 269.459 560.081 269.927 559.873C270.413 559.648 270.785 559.336 271.045 558.937C271.305 558.521 271.435 558.027 271.435 557.455C271.435 556.883 271.305 556.398 271.045 555.999C270.785 555.583 270.413 555.271 269.927 555.063C269.459 554.838 268.896 554.725 268.237 554.725H264.623ZM276.664 554.907V551.553H290.184V554.907H285.27V569.753H281.552V554.907H276.664ZM294.689 554.803V551.553H302.827V554.803H294.689ZM294.689 561.979V558.885H302.567V561.979H294.689ZM292.297 551.553H295.885V569.753H292.297V551.553ZM309.122 560.653C309.122 561.814 309.365 562.846 309.85 563.747C310.336 564.648 311.003 565.359 311.852 565.879C312.702 566.399 313.69 566.659 314.816 566.659C315.943 566.659 316.931 566.399 317.78 565.879C318.63 565.359 319.288 564.648 319.756 563.747C320.242 562.846 320.484 561.814 320.484 560.653C320.484 559.492 320.25 558.46 319.782 557.559C319.314 556.658 318.656 555.947 317.806 555.427C316.957 554.907 315.96 554.647 314.816 554.647C313.69 554.647 312.702 554.907 311.852 555.427C311.003 555.947 310.336 556.658 309.85 557.559C309.365 558.46 309.122 559.492 309.122 560.653ZM305.196 560.653C305.196 559.266 305.439 558.001 305.924 556.857C306.41 555.696 307.086 554.69 307.952 553.841C308.819 552.992 309.833 552.342 310.994 551.891C312.173 551.423 313.447 551.189 314.816 551.189C316.203 551.189 317.477 551.423 318.638 551.891C319.8 552.342 320.814 552.992 321.68 553.841C322.564 554.69 323.24 555.696 323.708 556.857C324.194 558.001 324.436 559.266 324.436 560.653C324.436 562.022 324.194 563.296 323.708 564.475C323.24 565.636 322.573 566.65 321.706 567.517C320.857 568.384 319.843 569.06 318.664 569.545C317.503 570.013 316.22 570.247 314.816 570.247C313.412 570.247 312.121 570.013 310.942 569.545C309.781 569.06 308.767 568.384 307.9 567.517C307.034 566.65 306.366 565.636 305.898 564.475C305.43 563.296 305.196 562.022 305.196 560.653ZM318.716 545.599L314.036 549.499L312.138 548.511L316.038 544.351L318.716 545.599ZM327.311 551.553H331.029V566.503H338.283V569.753H327.311V551.553ZM340.412 551.553H344.182V569.753H340.412V551.553ZM350.992 560.653C350.992 561.814 351.234 562.846 351.72 563.747C352.205 564.648 352.872 565.359 353.722 565.879C354.571 566.399 355.559 566.659 356.686 566.659C357.812 566.659 358.8 566.399 359.65 565.879C360.499 565.359 361.158 564.648 361.626 563.747C362.111 562.846 362.354 561.814 362.354 560.653C362.354 559.492 362.12 558.46 361.652 557.559C361.184 556.658 360.525 555.947 359.676 555.427C358.826 554.907 357.83 554.647 356.686 554.647C355.559 554.647 354.571 554.907 353.722 555.427C352.872 555.947 352.205 556.658 351.72 557.559C351.234 558.46 350.992 559.492 350.992 560.653ZM347.066 560.653C347.066 559.266 347.308 558.001 347.794 556.857C348.279 555.696 348.955 554.69 349.822 553.841C350.688 552.992 351.702 552.342 352.864 551.891C354.042 551.423 355.316 551.189 356.686 551.189C358.072 551.189 359.346 551.423 360.508 551.891C361.669 552.342 362.683 552.992 363.55 553.841C364.434 554.69 365.11 555.696 365.578 556.857C366.063 558.001 366.306 559.266 366.306 560.653C366.306 562.022 366.063 563.296 365.578 564.475C365.11 565.636 364.442 566.65 363.576 567.517C362.726 568.384 361.712 569.06 360.534 569.545C359.372 570.013 358.09 570.247 356.686 570.247C355.282 570.247 353.99 570.013 352.812 569.545C351.65 569.06 350.636 568.384 349.77 567.517C348.903 566.65 348.236 565.636 347.768 564.475C347.3 563.296 347.066 562.022 347.066 560.653ZM376.975 551.553H380.771V569.753H376.975V551.553ZM383.163 569.753H379.367V566.373H383.033C383.83 566.373 384.584 566.269 385.295 566.061C386.005 565.836 386.629 565.489 387.167 565.021C387.704 564.553 388.12 563.964 388.415 563.253C388.727 562.525 388.883 561.658 388.883 560.653C388.883 559.648 388.727 558.79 388.415 558.079C388.12 557.351 387.704 556.753 387.167 556.285C386.629 555.817 386.005 555.479 385.295 555.271C384.584 555.046 383.83 554.933 383.033 554.933H379.367V551.553H383.163C385.069 551.553 386.733 551.926 388.155 552.671C389.593 553.416 390.711 554.474 391.509 555.843C392.306 557.195 392.705 558.798 392.705 560.653C392.705 562.508 392.306 564.12 391.509 565.489C390.711 566.841 389.593 567.89 388.155 568.635C386.733 569.38 385.069 569.753 383.163 569.753ZM397.978 569.753V566.607H407.156V569.753H397.978ZM397.978 554.699V551.553H407.156V554.699H397.978ZM397.978 561.641V558.547H406.636V561.641H397.978ZM395.586 551.553H399.174V569.753H395.586V551.553ZM420.201 563.643C420.583 564.319 420.999 564.908 421.449 565.411C421.917 565.914 422.429 566.304 422.983 566.581C423.538 566.858 424.136 566.997 424.777 566.997C425.523 566.997 426.129 566.806 426.597 566.425C427.065 566.044 427.299 565.524 427.299 564.865C427.299 564.293 427.152 563.834 426.857 563.487C426.58 563.14 426.155 562.837 425.583 562.577C425.029 562.3 424.344 562.005 423.529 561.693C423.096 561.537 422.593 561.329 422.021 561.069C421.467 560.792 420.938 560.445 420.435 560.029C419.933 559.596 419.517 559.076 419.187 558.469C418.858 557.845 418.693 557.1 418.693 556.233C418.693 555.193 418.953 554.3 419.473 553.555C420.011 552.792 420.73 552.212 421.631 551.813C422.55 551.397 423.573 551.189 424.699 551.189C425.861 551.189 426.857 551.388 427.689 551.787C428.539 552.168 429.241 552.662 429.795 553.269C430.367 553.858 430.809 554.474 431.121 555.115L428.209 556.727C427.967 556.294 427.672 555.904 427.325 555.557C426.996 555.193 426.615 554.907 426.181 554.699C425.748 554.474 425.254 554.361 424.699 554.361C423.971 554.361 423.425 554.534 423.061 554.881C422.697 555.21 422.515 555.6 422.515 556.051C422.515 556.502 422.663 556.9 422.957 557.247C423.252 557.576 423.703 557.897 424.309 558.209C424.916 558.504 425.679 558.807 426.597 559.119C427.187 559.327 427.75 559.587 428.287 559.899C428.842 560.211 429.336 560.592 429.769 561.043C430.22 561.476 430.567 561.996 430.809 562.603C431.069 563.192 431.199 563.877 431.199 564.657C431.199 565.541 431.026 566.33 430.679 567.023C430.333 567.716 429.856 568.306 429.249 568.791C428.643 569.259 427.958 569.614 427.195 569.857C426.45 570.117 425.661 570.247 424.829 570.247C423.72 570.247 422.68 570.039 421.709 569.623C420.756 569.19 419.924 568.609 419.213 567.881C418.503 567.153 417.948 566.364 417.549 565.515L420.201 563.643ZM436.623 569.753V566.607H445.801V569.753H436.623ZM436.623 554.699V551.553H445.801V554.699H436.623ZM436.623 561.641V558.547H445.281V561.641H436.623ZM434.231 551.553H437.819V569.753H434.231V551.553ZM453.599 561.277H457.525L463.453 569.753H459.059L453.599 561.277ZM449.465 551.553H453.183V569.753H449.465V551.553ZM451.727 554.725V551.553H455.575C457.014 551.553 458.236 551.796 459.241 552.281C460.246 552.766 461.018 553.442 461.555 554.309C462.092 555.176 462.361 556.19 462.361 557.351C462.361 558.495 462.092 559.509 461.555 560.393C461.018 561.26 460.246 561.936 459.241 562.421C458.236 562.906 457.014 563.149 455.575 563.149H451.727V560.185H455.341C456 560.185 456.563 560.081 457.031 559.873C457.516 559.648 457.889 559.336 458.149 558.937C458.409 558.521 458.539 558.027 458.539 557.455C458.539 556.883 458.409 556.398 458.149 555.999C457.889 555.583 457.516 555.271 457.031 555.063C456.563 554.838 456 554.725 455.341 554.725H451.727ZM472.868 563.409L477.782 551.553H482.098L472.868 570.819L463.638 551.553H467.928L472.868 563.409ZM484.072 551.553H487.842V569.753H484.072V551.553ZM494.756 560.653C494.756 561.849 495.024 562.898 495.562 563.799C496.116 564.683 496.836 565.368 497.72 565.853C498.604 566.321 499.566 566.555 500.606 566.555C501.472 566.555 502.244 566.442 502.92 566.217C503.596 565.992 504.202 565.688 504.74 565.307C505.294 564.926 505.771 564.51 506.17 564.059V568.245C505.424 568.834 504.61 569.294 503.726 569.623C502.859 569.952 501.758 570.117 500.424 570.117C499.037 570.117 497.746 569.892 496.55 569.441C495.371 568.99 494.34 568.34 493.456 567.491C492.589 566.642 491.913 565.645 491.428 564.501C490.96 563.34 490.726 562.057 490.726 560.653C490.726 559.249 490.96 557.975 491.428 556.831C491.913 555.67 492.589 554.664 493.456 553.815C494.34 552.966 495.371 552.316 496.55 551.865C497.746 551.414 499.037 551.189 500.424 551.189C501.758 551.189 502.859 551.354 503.726 551.683C504.61 552.012 505.424 552.472 506.17 553.061V557.247C505.771 556.796 505.294 556.38 504.74 555.999C504.202 555.618 503.596 555.314 502.92 555.089C502.244 554.864 501.472 554.751 500.606 554.751C499.566 554.751 498.604 554.994 497.72 555.479C496.836 555.947 496.116 556.623 495.562 557.507C495.024 558.391 494.756 559.44 494.756 560.653ZM499.28 568.401L501.724 568.479L499.67 571.573C499.791 571.538 499.912 571.512 500.034 571.495C500.155 571.495 500.276 571.495 500.398 571.495C500.727 571.495 501.065 571.582 501.412 571.755C501.758 571.928 502.044 572.188 502.27 572.535C502.512 572.882 502.634 573.315 502.634 573.835C502.634 574.424 502.469 574.918 502.14 575.317C501.828 575.733 501.429 576.045 500.944 576.253C500.458 576.461 499.947 576.565 499.41 576.565C498.768 576.565 498.188 576.487 497.668 576.331C497.165 576.192 496.645 575.932 496.108 575.551L497.2 573.991C497.512 574.216 497.832 574.381 498.162 574.485C498.491 574.589 498.794 574.641 499.072 574.641C499.522 574.641 499.86 574.554 500.086 574.381C500.328 574.225 500.45 573.991 500.45 573.679C500.45 573.35 500.302 573.124 500.008 573.003C499.73 572.882 499.375 572.821 498.942 572.821C498.82 572.821 498.569 572.847 498.188 572.899C497.806 572.951 497.416 573.072 497.018 573.263L499.28 568.401ZM512.755 560.653C512.755 561.814 512.998 562.846 513.483 563.747C513.969 564.648 514.636 565.359 515.485 565.879C516.335 566.399 517.323 566.659 518.449 566.659C519.576 566.659 520.564 566.399 521.413 565.879C522.263 565.359 522.921 564.648 523.389 563.747C523.875 562.846 524.117 561.814 524.117 560.653C524.117 559.492 523.883 558.46 523.415 557.559C522.947 556.658 522.289 555.947 521.439 555.427C520.59 554.907 519.593 554.647 518.449 554.647C517.323 554.647 516.335 554.907 515.485 555.427C514.636 555.947 513.969 556.658 513.483 557.559C512.998 558.46 512.755 559.492 512.755 560.653ZM508.829 560.653C508.829 559.266 509.072 558.001 509.557 556.857C510.043 555.696 510.719 554.69 511.585 553.841C512.452 552.992 513.466 552.342 514.627 551.891C515.806 551.423 517.08 551.189 518.449 551.189C519.836 551.189 521.11 551.423 522.271 551.891C523.433 552.342 524.447 552.992 525.313 553.841C526.197 554.69 526.873 555.696 527.341 556.857C527.827 558.001 528.069 559.266 528.069 560.653C528.069 562.022 527.827 563.296 527.341 564.475C526.873 565.636 526.206 566.65 525.339 567.517C524.49 568.384 523.476 569.06 522.297 569.545C521.136 570.013 519.853 570.247 518.449 570.247C517.045 570.247 515.754 570.013 514.575 569.545C513.414 569.06 512.4 568.384 511.533 567.517C510.667 566.65 509.999 565.636 509.531 564.475C509.063 563.296 508.829 562.022 508.829 560.653ZM532.529 563.643C532.911 564.319 533.327 564.908 533.777 565.411C534.245 565.914 534.757 566.304 535.311 566.581C535.866 566.858 536.464 566.997 537.105 566.997C537.851 566.997 538.457 566.806 538.925 566.425C539.393 566.044 539.627 565.524 539.627 564.865C539.627 564.293 539.48 563.834 539.185 563.487C538.908 563.14 538.483 562.837 537.911 562.577C537.357 562.3 536.672 562.005 535.857 561.693C535.424 561.537 534.921 561.329 534.349 561.069C533.795 560.792 533.266 560.445 532.763 560.029C532.261 559.596 531.845 559.076 531.515 558.469C531.186 557.845 531.021 557.1 531.021 556.233C531.021 555.193 531.281 554.3 531.801 553.555C532.339 552.792 533.058 552.212 533.959 551.813C534.878 551.397 535.901 551.189 537.027 551.189C538.189 551.189 539.185 551.388 540.017 551.787C540.867 552.168 541.569 552.662 542.123 553.269C542.695 553.858 543.137 554.474 543.449 555.115L540.537 556.727C540.295 556.294 540 555.904 539.653 555.557C539.324 555.193 538.943 554.907 538.509 554.699C538.076 554.474 537.582 554.361 537.027 554.361C536.299 554.361 535.753 554.534 535.389 554.881C535.025 555.21 534.843 555.6 534.843 556.051C534.843 556.502 534.991 556.9 535.285 557.247C535.58 557.576 536.031 557.897 536.637 558.209C537.244 558.504 538.007 558.807 538.925 559.119C539.515 559.327 540.078 559.587 540.615 559.899C541.17 560.211 541.664 560.592 542.097 561.043C542.548 561.476 542.895 561.996 543.137 562.603C543.397 563.192 543.527 563.877 543.527 564.657C543.527 565.541 543.354 566.33 543.007 567.023C542.661 567.716 542.184 568.306 541.577 568.791C540.971 569.259 540.286 569.614 539.523 569.857C538.778 570.117 537.989 570.247 537.157 570.247C536.048 570.247 535.008 570.039 534.037 569.623C533.084 569.19 532.252 568.609 531.541 567.881C530.831 567.153 530.276 566.364 529.877 565.515L532.529 563.643Z" fill="white"/>
<g clip-path="url(#clip1_0_1)">
<mask height="186" id="mask0_0_1" maskUnits="userSpaceOnUse" style="mask-type:luminance" width="236" x="532" y="0">
<path d="M767.656 0H532.332V186H767.656V0Z" fill="white"/>
</mask>
<g mask="url(#mask0_0_1)">
<path d="M676.068 50.7367C648.203 50.8744 625.47 28.1756 625.332 0H675.793L676.068 50.7367Z" fill="#E74B1C"/>
<path d="M676.309 50.7367L676.068 0H726.805C726.839 27.9 704.278 50.5989 676.344 50.7367" fill="white"/>
<path d="M532.332 93C532.332 41.6433 573.975 0 625.332 0V93H532.332Z" fill="#E74B1C"/>
<path d="M625.332 2.13698e-05C676.654 -0.0344231 718.297 41.5745 718.332 92.8967V93H625.332V2.13698e-05Z" fill="#1E4587"/>
<path d="M625.332 186V93H718.332C718.332 144.357 676.688 186 625.332 186Z" fill="#52AD32"/>
<path d="M625.332 145.149C596.536 145.149 573.183 121.83 573.183 93H625.332V145.149Z" fill="#1E4587"/>
<path d="M677.481 93C677.481 121.796 654.127 145.149 625.332 145.149V93H677.481Z" fill="#E74B1C"/>
<path d="M573.183 93.0005C573.183 64.2049 596.502 40.8516 625.332 40.8516V93.0005H573.183Z" fill="white"/>
<path d="M677.481 93.0005H625.332V40.8516C654.127 40.8516 677.481 64.1705 677.481 93.0005Z" fill="#52AD32"/>
<path d="M767.656 93C716.3 93 674.656 51.3567 674.656 0H767.656V93Z" fill="#E74B1C"/>
<path d="M715.507 0H767.656V52.1489C738.93 52.1833 715.611 28.8644 715.507 0Z" fill="white"/>
</g>
</g>
<g clip-path="url(#clip2_0_1)">
<mask height="186" id="mask1_0_1" maskUnits="userSpaceOnUse" style="mask-type:luminance" width="236" x="0" y="862">
<path d="M1.52588e-05 1048H235.324V862H1.52588e-05V1048Z" fill="white"/>
</mask>
<g mask="url(#mask1_0_1)">
<path d="M91.5878 997.263C119.453 997.126 142.187 1019.82 142.324 1048H91.8633L91.5878 997.263Z" fill="#E74B1C"/>
<path d="M91.3468 997.263L91.5879 1048H40.8512C40.8168 1020.1 63.3779 997.401 91.3123 997.263" fill="white"/>
<path d="M235.324 955C235.324 1006.36 193.681 1048 142.324 1048V955H235.324Z" fill="#E74B1C"/>
<path d="M142.324 1048C91.0022 1048.03 49.3589 1006.43 49.3245 955.103V955H142.324V1048Z" fill="#1E4587"/>
<path d="M142.324 862V955H49.3245C49.3245 903.643 90.9678 862 142.324 862Z" fill="#52AD32"/>
<path d="M142.325 902.851C171.12 902.851 194.473 926.17 194.473 955H142.325V902.851Z" fill="#1E4587"/>
<path d="M90.1756 955C90.1756 926.204 113.529 902.851 142.324 902.851V955H90.1756Z" fill="#E74B1C"/>
<path d="M194.473 955C194.473 983.796 171.154 1007.15 142.325 1007.15V955H194.473Z" fill="white"/>
<path d="M90.1756 955H142.324V1007.15C113.529 1007.15 90.1756 983.83 90.1756 955Z" fill="#52AD32"/>
<path d="M0 955C51.3567 955 93 996.643 93 1048H0V955Z" fill="#E74B1C"/>
<path d="M52.1489 1048H3.8147e-05V995.851C28.7267 995.817 52.0456 1019.14 52.1489 1048Z" fill="white"/>
</g>
</g>
<defs>
<clipPath id="clip0_0_1">
<rect fill="white" height="75.2235" transform="translate(219 442)" width="330.528"/>
</clipPath>
<clipPath id="clip1_0_1">
<rect fill="white" height="186" transform="translate(532.332)" width="235.324"/>
</clipPath>
<clipPath id="clip2_0_1">
<rect fill="white" height="186" transform="matrix(-1 0 0 -1 235.324 1048)" width="235.324"/>
</clipPath>
</defs>
</svg>