<svg width="224" height="224" viewBox="0 0 224 224" fill="none" xmlns="http://www.w3.org/2000/svg">
<path d="M112 224C173.856 224 224 173.856 224 112C224 50.1441 173.856 0 112 0C50.1441 0 0 50.1441 0 112C0 173.856 50.1441 224 112 224Z" fill="white"/>
<path d="M137.12 221.13C76.96 234.98 16.75 197.31 2.88999 137.16C-10.96 77 26.71 16.79 86.87 2.93C147.03 -10.92 207.24 26.75 221.1 86.9C234.96 147.05 197.28 207.27 137.13 221.13H137.12ZM88.38 9.48C31.83 22.5 -3.58001 79.1 9.43999 135.65C22.46 192.2 79.06 227.61 135.61 214.58C192.16 201.56 227.57 144.96 214.54 88.41C201.52 31.87 144.92 -3.54 88.38 9.48Z" fill="#4C8900"/>
<path d="M189.57 160.56L183.87 157C195.88 137.8 199.7 115.07 194.61 93C189.53 70.93 176.15 52.16 156.96 40.15L160.52 34.45C181.24 47.41 195.67 67.67 201.16 91.49C206.65 115.31 202.53 139.84 189.56 160.56H189.57Z" fill="#4C8900"/>
<path d="M63.46 189.61C42.74 176.65 28.31 156.39 22.82 132.57C17.33 108.75 21.45 84.22 34.42 63.5L40.12 67.06C28.11 86.26 24.29 108.99 29.38 131.06C34.46 153.13 47.84 171.9 67.03 183.91L63.47 189.61H63.46Z" fill="#4C8900"/>
<path d="M139.1 48.28L90.47 126.01L62.03 108.22L43.93 137.15L101.3 173.04L168.03 66.38L139.1 48.28Z" fill="#4C8900"/>
<path d="M55.53 53.15L50.96 57.81L48.92 55.81L53.49 51.15L55.53 53.15Z" fill="#4C8900"/>
<path d="M72.23 37.53C72.92 38.67 72.71 39.57 71.6 40.25L67.17 42.94L71.2 49.56L68.47 51.22L57.34 32.94L64.5 28.58C65.61 27.9 66.51 28.12 67.19 29.24L72.22 37.51L72.23 37.53ZM69.08 38.56L64.84 31.6L61.5 33.63L65.74 40.59L69.08 38.56Z" fill="#4C8900"/>
<path d="M87.9 39.3C88.39 40.51 88.04 41.36 86.84 41.84L80.41 44.45C79.24 44.93 78.4 44.56 77.91 43.36L71.33 27.17C70.84 25.95 71.18 25.11 72.35 24.63L78.79 22.02C79.99 21.53 80.84 21.9 81.33 23.11L87.91 39.3H87.9ZM84.63 39.77L78.65 25.04L74.58 26.69L80.57 41.42L84.64 39.77H84.63Z" fill="#4C8900"/>
<path d="M99.9 36.38C100.19 37.65 99.71 38.43 98.45 38.72L92.17 40.17C90.92 40.46 90.15 39.97 89.85 38.7L88.7 33.73L91.82 33.01L92.8 37.26L96.61 36.38L95.67 32.29L88.06 27.82C87.51 27.49 87.15 26.99 87 26.31L85.93 21.67C85.63 20.39 86.11 19.61 87.37 19.32L93.65 17.87C94.91 17.58 95.69 18.06 95.98 19.33L97.05 23.99L93.93 24.71L93.02 20.78L89.21 21.66L90.08 25.43L97.69 29.88C98.24 30.2 98.6 30.71 98.76 31.42L99.9 36.39V36.38Z" fill="#4C8900"/>
<path d="M112.18 35.38C112.27 36.68 111.67 37.38 110.38 37.46L103.96 37.9C102.68 37.99 101.99 37.38 101.9 36.08L101.55 30.99L104.74 30.77L105.04 35.12L108.94 34.85L108.65 30.66L101.84 25.04C101.35 24.63 101.07 24.07 101.03 23.38L100.7 18.63C100.61 17.32 101.21 16.62 102.49 16.53L108.92 16.09C110.21 16 110.9 16.6 110.99 17.89L111.32 22.66L108.13 22.88L107.85 18.86L103.95 19.13L104.21 22.99L111.02 28.58C111.51 28.99 111.79 29.55 111.83 30.26L112.18 35.35V35.38Z" fill="#4C8900"/>
<path d="M124.91 36.39C124.79 37.69 124.07 38.27 122.77 38.15L116 37.51C114.71 37.39 114.13 36.68 114.25 35.38L116.07 16.02L119.25 16.32L117.51 34.89L121.8 35.29L123.54 16.72L126.72 17.02L124.9 36.38L124.91 36.39Z" fill="#4C8900"/>
<path d="M129.84 39.54L126.71 38.87L131.22 17.95L134.35 18.62L129.84 39.54Z" fill="#4C8900"/>
<path d="M145.46 37.56L139.39 35.18L140.43 32.52L146.5 34.9L145.46 37.56Z" fill="#4C8900"/>
<path d="M78.15 193.1L71.76 190.28L72.99 187.48L79.38 190.3L78.14 193.1H78.15Z" fill="#4C8900"/>
<path d="M90.2 202.48C89.8 203.82 88.94 204.29 87.61 203.89L81.01 201.91C79.69 201.52 79.23 200.65 79.63 199.31L81.2 194.08L84.48 195.06L83.14 199.53L87.15 200.73L88.44 196.43L83.73 188.23C83.39 187.63 83.33 186.97 83.54 186.26L85 181.38C85.4 180.03 86.26 179.56 87.58 179.95L94.18 181.93C95.51 182.33 95.97 183.19 95.58 184.52L94.11 189.43L90.83 188.45L92.07 184.32L88.06 183.12L86.87 187.09L91.59 195.26C91.93 195.85 91.99 196.52 91.77 197.25L90.2 202.48Z" fill="#4C8900"/>
<path d="M106.03 204.93C105.85 206.31 105.07 206.92 103.67 206.74L96.46 205.81C95.09 205.63 94.49 204.85 94.67 203.47L97.33 182.83L100.73 183.27L98.18 203.07L102.75 203.66L105.3 183.86L108.7 184.3L106.04 204.94L106.03 204.93Z" fill="#4C8900"/>
<path d="M121.96 204.59C122.03 205.99 121.36 206.71 119.97 206.78L110.83 207.21L109.76 184.33L118.84 183.91C120.19 183.85 120.91 184.52 120.97 185.92L121.25 191.81C121.29 192.59 121.07 193.21 120.6 193.66C120.53 193.72 119.96 194.13 118.87 194.87C120.06 195.53 120.69 195.89 120.77 195.95C121.32 196.38 121.61 197 121.65 197.8L121.97 204.6L121.96 204.59ZM118.49 203.97L118.19 197.45L116.46 196.42L113.77 196.55L114.13 204.18L118.5 203.98L118.49 203.97ZM117.86 192.39L117.6 186.85L113.32 187.05L113.63 193.76L116.26 193.64L117.86 192.39Z" fill="#4C8900"/>
<path d="M137.93 200.39C138.34 201.72 137.89 202.59 136.56 203L129.98 205.04C128.67 205.45 127.8 204.98 127.39 203.65L125.77 198.44L129.04 197.43L130.42 201.89L134.42 200.65L133.09 196.36L124.61 192.18C123.99 191.87 123.57 191.36 123.35 190.65L121.84 185.79C121.43 184.45 121.87 183.57 123.19 183.17L129.77 181.13C131.09 180.72 131.96 181.18 132.37 182.5L133.89 187.39L130.62 188.41L129.34 184.29L125.34 185.53L126.57 189.49L135.04 193.64C135.66 193.94 136.08 194.46 136.3 195.19L137.92 200.4L137.93 200.39Z" fill="#4C8900"/>
<path d="M136.74 172.75L134.45 178.02L132.21 179.03L132.16 178.92L132.86 174.35L136.69 172.62L136.74 172.74V172.75ZM145.73 199.15L142.61 200.56L133.19 179.68L136.31 178.27L145.73 199.15Z" fill="#4C8900"/>
<path d="M157.17 188.16C157.83 189.34 157.99 190.45 157.67 191.51C157.35 192.57 156.59 193.43 155.41 194.09L149.32 197.5L138.13 177.51L144.22 174.1C145.4 173.44 146.53 173.25 147.61 173.54C148.69 173.83 149.55 174.56 150.21 175.73L157.16 188.16H157.17ZM153.89 189.34L147.46 177.86C146.84 176.74 145.94 176.51 144.77 177.17L142.55 178.41L150.86 193.26L153.01 192.06C154.23 191.38 154.52 190.47 153.89 189.34Z" fill="#4C8900"/>
<path d="M165.14 188.09L162.27 189.95L149.81 170.73L152.68 168.87L165.14 188.09Z" fill="#4C8900"/>
<path d="M176.2 177.72C177.02 178.85 176.87 179.82 175.75 180.63L169.73 185C168.63 185.8 167.67 185.63 166.85 184.5L155.87 169.36C155.05 168.22 155.18 167.26 156.28 166.46L162.3 162.09C163.42 161.28 164.39 161.44 165.22 162.58L176.2 177.72ZM172.93 179.04L162.94 165.26L159.14 168.02L169.14 181.8L172.94 179.04H172.93Z" fill="#4C8900"/>
<path d="M185.57 163.31L180.24 167.82L178.26 165.49L183.59 160.98L185.57 163.32V163.31Z" fill="#4C8900"/>
</svg>
